<ttFont>
    <TTGlyph name="A" xMin="-5" yMin="-33" xMax="620" yMax="805">
      <contour>
        <pt x="-5" y="44" on="1"/>
        <pt x="-5" y="63" on="0"/>
        <pt x="105" y="308" on="0"/>
        <pt x="250" y="625" on="0"/>
        <pt x="276" y="693" on="1"/>
        <pt x="298" y="750" on="1"/>
        <pt x="282" y="774" on="0"/>
        <pt x="263" y="793" on="1"/>
        <pt x="294" y="805" on="0"/>
        <pt x="322" y="805" on="1"/>
        <pt x="385" y="805" on="0"/>
        <pt x="420" y="725" on="1"/>
        <pt x="442" y="674" on="0"/>
        <pt x="479" y="497" on="1"/>
        <pt x="480" y="495" on="0"/>
        <pt x="484" y="473" on="0"/>
        <pt x="521" y="292" on="0"/>
        <pt x="535" y="233" on="0"/>
        <pt x="552" y="172" on="1"/>
        <pt x="579" y="69" on="0"/>
        <pt x="620" y="12" on="1"/>
        <pt x="573" y="-16" on="0"/>
        <pt x="512" y="-16" on="0"/>
        <pt x="485" y="21" on="0"/>
        <pt x="462" y="98" on="0"/>
        <pt x="425" y="274" on="1"/>
        <pt x="403" y="240" on="0"/>
        <pt x="337" y="238" on="1"/>
        <pt x="159" y="231" on="1"/>
        <pt x="102" y="77" on="0"/>
        <pt x="76" y="-33" on="1"/>
        <pt x="-5" y="1" on="0"/>
      </contour>
      <contour>
        <pt x="333" y="661" on="1"/>
        <pt x="218" y="388" on="0"/>
        <pt x="186" y="306" on="1"/>
        <pt x="418" y="306" on="1"/>
        <pt x="371" y="535" on="0"/>
      </contour>
    </TTGlyph>
    <TTGlyph name="AE" xMin="-15" yMin="-33" xMax="899" yMax="793">
      <contour>
        <pt x="587" y="683" on="1"/>
        <pt x="587" y="634" on="0"/>
        <pt x="556" y="417" on="1"/>
        <pt x="597" y="416" on="0"/>
        <pt x="646" y="416" on="1"/>
        <pt x="734" y="416" on="0"/>
        <pt x="771" y="445" on="1"/>
        <pt x="773" y="429" on="0"/>
        <pt x="773" y="419" on="1"/>
        <pt x="773" y="340" on="0"/>
        <pt x="710" y="340" on="1"/>
        <pt x="601" y="340" on="0"/>
        <pt x="546" y="341" on="1"/>
        <pt x="530" y="197" on="0"/>
        <pt x="530" y="84" on="1"/>
        <pt x="761" y="84" on="0"/>
        <pt x="864" y="114" on="1"/>
        <pt x="857" y="56" on="0"/>
        <pt x="792" y="-8" on="0"/>
        <pt x="743" y="-8" on="1"/>
        <pt x="729" y="-8" on="0"/>
        <pt x="584" y="5" on="0"/>
        <pt x="448" y="5" on="0"/>
        <pt x="380" y="-8" on="1"/>
        <pt x="388" y="25" on="0"/>
        <pt x="418" y="49" on="1"/>
        <pt x="417" y="55" on="0"/>
        <pt x="417" y="121" on="0"/>
        <pt x="448" y="340" on="1"/>
        <pt x="339" y="338" on="0"/>
        <pt x="268" y="309" on="1"/>
        <pt x="266" y="327" on="0"/>
        <pt x="266" y="338" on="1"/>
        <pt x="266" y="386" on="0"/>
        <pt x="330" y="419" on="0"/>
        <pt x="427" y="419" on="0"/>
        <pt x="459" y="418" on="1"/>
        <pt x="481" y="579" on="0"/>
        <pt x="484" y="698" on="1"/>
        <pt x="437" y="706" on="0"/>
        <pt x="408" y="709" on="1"/>
        <pt x="383" y="648" on="0"/>
        <pt x="310" y="508" on="1"/>
        <pt x="114" y="136" on="0"/>
        <pt x="61" y="-33" on="1"/>
        <pt x="-15" y="-14" on="0"/>
        <pt x="-15" y="44" on="1"/>
        <pt x="-15" y="64" on="0"/>
        <pt x="112" y="303" on="0"/>
        <pt x="285" y="616" on="0"/>
        <pt x="316" y="681" on="1"/>
        <pt x="368" y="790" on="1"/>
        <pt x="507" y="771" on="0"/>
        <pt x="789" y="771" on="0"/>
        <pt x="899" y="793" on="1"/>
        <pt x="891" y="741" on="0"/>
        <pt x="849" y="719" on="1"/>
        <pt x="804" y="695" on="0"/>
        <pt x="766" y="692" on="1"/>
        <pt x="718" y="687" on="0"/>
        <pt x="614" y="687" on="0"/>
        <pt x="587" y="689" on="1"/>
      </contour>
    </TTGlyph>
    <TTGlyph name="Aacute" xMin="-5" yMin="-33" xMax="620" yMax="1081">
      <contour>
        <pt x="-5" y="44" on="1"/>
        <pt x="-5" y="63" on="0"/>
        <pt x="105" y="308" on="0"/>
        <pt x="250" y="625" on="0"/>
        <pt x="276" y="693" on="1"/>
        <pt x="298" y="750" on="1"/>
        <pt x="282" y="774" on="0"/>
        <pt x="263" y="793" on="1"/>
        <pt x="294" y="805" on="0"/>
        <pt x="322" y="805" on="1"/>
        <pt x="385" y="805" on="0"/>
        <pt x="420" y="725" on="1"/>
        <pt x="442" y="674" on="0"/>
        <pt x="479" y="497" on="1"/>
        <pt x="480" y="495" on="0"/>
        <pt x="484" y="473" on="0"/>
        <pt x="521" y="292" on="0"/>
        <pt x="535" y="233" on="0"/>
        <pt x="552" y="172" on="1"/>
        <pt x="579" y="69" on="0"/>
        <pt x="620" y="12" on="1"/>
        <pt x="573" y="-16" on="0"/>
        <pt x="512" y="-16" on="0"/>
        <pt x="485" y="21" on="0"/>
        <pt x="462" y="98" on="0"/>
        <pt x="425" y="274" on="1"/>
        <pt x="403" y="240" on="0"/>
        <pt x="337" y="238" on="1"/>
        <pt x="159" y="231" on="1"/>
        <pt x="102" y="77" on="0"/>
        <pt x="76" y="-33" on="1"/>
        <pt x="-5" y="1" on="0"/>
      </contour>
      <contour>
        <pt x="333" y="661" on="1"/>
        <pt x="218" y="388" on="0"/>
        <pt x="186" y="306" on="1"/>
        <pt x="418" y="306" on="1"/>
        <pt x="371" y="535" on="0"/>
      </contour>
      <contour>
        <pt x="241" y="881" on="1"/>
        <pt x="266" y="937" on="0"/>
        <pt x="379" y="1060" on="0"/>
        <pt x="432" y="1081" on="1"/>
        <pt x="478" y="1051" on="0"/>
        <pt x="480" y="999" on="1"/>
        <pt x="422" y="981" on="0"/>
        <pt x="309" y="893" on="0"/>
        <pt x="273" y="848" on="1"/>
        <pt x="261" y="851" on="0"/>
        <pt x="242" y="870" on="0"/>
      </contour>
    </TTGlyph>
    <TTGlyph name="Acircumflex" xMin="-5" yMin="-33" xMax="620" yMax="1082">
      <contour>
        <pt x="-5" y="44" on="1"/>
        <pt x="-5" y="63" on="0"/>
        <pt x="105" y="308" on="0"/>
        <pt x="250" y="625" on="0"/>
        <pt x="276" y="693" on="1"/>
        <pt x="298" y="750" on="1"/>
        <pt x="282" y="774" on="0"/>
        <pt x="263" y="793" on="1"/>
        <pt x="294" y="805" on="0"/>
        <pt x="322" y="805" on="1"/>
        <pt x="385" y="805" on="0"/>
        <pt x="420" y="725" on="1"/>
        <pt x="442" y="674" on="0"/>
        <pt x="479" y="497" on="1"/>
        <pt x="480" y="495" on="0"/>
        <pt x="484" y="473" on="0"/>
        <pt x="521" y="292" on="0"/>
        <pt x="535" y="233" on="0"/>
        <pt x="552" y="172" on="1"/>
        <pt x="579" y="69" on="0"/>
        <pt x="620" y="12" on="1"/>
        <pt x="573" y="-16" on="0"/>
        <pt x="512" y="-16" on="0"/>
        <pt x="485" y="21" on="0"/>
        <pt x="462" y="98" on="0"/>
        <pt x="425" y="274" on="1"/>
        <pt x="403" y="240" on="0"/>
        <pt x="337" y="238" on="1"/>
        <pt x="159" y="231" on="1"/>
        <pt x="102" y="77" on="0"/>
        <pt x="76" y="-33" on="1"/>
        <pt x="-5" y="1" on="0"/>
      </contour>
      <contour>
        <pt x="333" y="661" on="1"/>
        <pt x="218" y="388" on="0"/>
        <pt x="186" y="306" on="1"/>
        <pt x="418" y="306" on="1"/>
        <pt x="371" y="535" on="0"/>
      </contour>
      <contour>
        <pt x="526" y="881" on="1"/>
        <pt x="502" y="870" on="0"/>
        <pt x="434" y="870" on="0"/>
        <pt x="395" y="924" on="0"/>
        <pt x="380" y="1001" on="1"/>
        <pt x="329" y="908" on="0"/>
        <pt x="247" y="854" on="1"/>
        <pt x="209" y="884" on="0"/>
        <pt x="208" y="930" on="1"/>
        <pt x="277" y="975" on="0"/>
        <pt x="324" y="1019" on="0"/>
        <pt x="340" y="1035" on="0"/>
        <pt x="375" y="1078" on="0"/>
        <pt x="379" y="1082" on="1"/>
        <pt x="439" y="1082" on="0"/>
        <pt x="448" y="1021" on="1"/>
        <pt x="452" y="995" on="0"/>
        <pt x="490" y="915" on="0"/>
      </contour>
    </TTGlyph>
    <TTGlyph name="Adieresis" xMin="-5" yMin="-33" xMax="620" yMax="1028">
      <contour>
        <pt x="-5" y="44" on="1"/>
        <pt x="-5" y="63" on="0"/>
        <pt x="105" y="308" on="0"/>
        <pt x="250" y="625" on="0"/>
        <pt x="276" y="693" on="1"/>
        <pt x="298" y="750" on="1"/>
        <pt x="282" y="774" on="0"/>
        <pt x="263" y="793" on="1"/>
        <pt x="294" y="805" on="0"/>
        <pt x="322" y="805" on="1"/>
        <pt x="385" y="805" on="0"/>
        <pt x="420" y="725" on="1"/>
        <pt x="442" y="674" on="0"/>
        <pt x="479" y="497" on="1"/>
        <pt x="480" y="495" on="0"/>
        <pt x="484" y="473" on="0"/>
        <pt x="521" y="292" on="0"/>
        <pt x="535" y="233" on="0"/>
        <pt x="552" y="172" on="1"/>
        <pt x="579" y="69" on="0"/>
        <pt x="620" y="12" on="1"/>
        <pt x="573" y="-16" on="0"/>
        <pt x="512" y="-16" on="0"/>
        <pt x="485" y="21" on="0"/>
        <pt x="462" y="98" on="0"/>
        <pt x="425" y="274" on="1"/>
        <pt x="403" y="240" on="0"/>
        <pt x="337" y="238" on="1"/>
        <pt x="159" y="231" on="1"/>
        <pt x="102" y="77" on="0"/>
        <pt x="76" y="-33" on="1"/>
        <pt x="-5" y="1" on="0"/>
      </contour>
      <contour>
        <pt x="333" y="661" on="1"/>
        <pt x="218" y="388" on="0"/>
        <pt x="186" y="306" on="1"/>
        <pt x="418" y="306" on="1"/>
        <pt x="371" y="535" on="0"/>
      </contour>
      <contour>
        <pt x="282" y="911" on="1"/>
        <pt x="198" y="911" on="0"/>
        <pt x="198" y="968" on="1"/>
        <pt x="198" y="988" on="0"/>
        <pt x="213" y="1024" on="1"/>
        <pt x="235" y="1028" on="0"/>
        <pt x="251" y="1028" on="1"/>
        <pt x="335" y="1028" on="0"/>
        <pt x="335" y="971" on="1"/>
        <pt x="335" y="951" on="0"/>
        <pt x="320" y="915" on="1"/>
        <pt x="298" y="911" on="0"/>
      </contour>
      <contour>
        <pt x="492" y="911" on="1"/>
        <pt x="408" y="911" on="0"/>
        <pt x="408" y="968" on="1"/>
        <pt x="408" y="988" on="0"/>
        <pt x="423" y="1024" on="1"/>
        <pt x="445" y="1028" on="0"/>
        <pt x="461" y="1028" on="1"/>
        <pt x="545" y="1028" on="0"/>
        <pt x="545" y="971" on="1"/>
        <pt x="545" y="951" on="0"/>
        <pt x="530" y="915" on="1"/>
        <pt x="508" y="911" on="0"/>
      </contour>
    </TTGlyph>
    <TTGlyph name="Agrave" xMin="-5" yMin="-33" xMax="620" yMax="1081">
      <contour>
        <pt x="-5" y="44" on="1"/>
        <pt x="-5" y="63" on="0"/>
        <pt x="105" y="308" on="0"/>
        <pt x="250" y="625" on="0"/>
        <pt x="276" y="693" on="1"/>
        <pt x="298" y="750" on="1"/>
        <pt x="282" y="774" on="0"/>
        <pt x="263" y="793" on="1"/>
        <pt x="294" y="805" on="0"/>
        <pt x="322" y="805" on="1"/>
        <pt x="385" y="805" on="0"/>
        <pt x="420" y="725" on="1"/>
        <pt x="442" y="674" on="0"/>
        <pt x="479" y="497" on="1"/>
        <pt x="480" y="495" on="0"/>
        <pt x="484" y="473" on="0"/>
        <pt x="521" y="292" on="0"/>
        <pt x="535" y="233" on="0"/>
        <pt x="552" y="172" on="1"/>
        <pt x="579" y="69" on="0"/>
        <pt x="620" y="12" on="1"/>
        <pt x="573" y="-16" on="0"/>
        <pt x="512" y="-16" on="0"/>
        <pt x="485" y="21" on="0"/>
        <pt x="462" y="98" on="0"/>
        <pt x="425" y="274" on="1"/>
        <pt x="403" y="240" on="0"/>
        <pt x="337" y="238" on="1"/>
        <pt x="159" y="231" on="1"/>
        <pt x="102" y="77" on="0"/>
        <pt x="76" y="-33" on="1"/>
        <pt x="-5" y="1" on="0"/>
      </contour>
      <contour>
        <pt x="333" y="661" on="1"/>
        <pt x="218" y="388" on="0"/>
        <pt x="186" y="306" on="1"/>
        <pt x="418" y="306" on="1"/>
        <pt x="371" y="535" on="0"/>
      </contour>
      <contour>
        <pt x="491" y="881" on="1"/>
        <pt x="490" y="870" on="0"/>
        <pt x="471" y="851" on="0"/>
        <pt x="459" y="848" on="1"/>
        <pt x="423" y="893" on="0"/>
        <pt x="310" y="981" on="0"/>
        <pt x="252" y="999" on="1"/>
        <pt x="254" y="1051" on="0"/>
        <pt x="300" y="1081" on="1"/>
        <pt x="353" y="1060" on="0"/>
        <pt x="466" y="937" on="0"/>
      </contour>
    </TTGlyph>
    <TTGlyph name="Aring" xMin="-5" yMin="-33" xMax="620" yMax="1084">
      <contour>
        <pt x="-5" y="44" on="1"/>
        <pt x="-5" y="63" on="0"/>
        <pt x="105" y="308" on="0"/>
        <pt x="250" y="625" on="0"/>
        <pt x="276" y="693" on="1"/>
        <pt x="298" y="750" on="1"/>
        <pt x="282" y="774" on="0"/>
        <pt x="263" y="793" on="1"/>
        <pt x="294" y="805" on="0"/>
        <pt x="322" y="805" on="1"/>
        <pt x="385" y="805" on="0"/>
        <pt x="420" y="725" on="1"/>
        <pt x="442" y="674" on="0"/>
        <pt x="479" y="497" on="1"/>
        <pt x="480" y="495" on="0"/>
        <pt x="484" y="473" on="0"/>
        <pt x="521" y="292" on="0"/>
        <pt x="535" y="233" on="0"/>
        <pt x="552" y="172" on="1"/>
        <pt x="579" y="69" on="0"/>
        <pt x="620" y="12" on="1"/>
        <pt x="573" y="-16" on="0"/>
        <pt x="512" y="-16" on="0"/>
        <pt x="485" y="21" on="0"/>
        <pt x="462" y="98" on="0"/>
        <pt x="425" y="274" on="1"/>
        <pt x="403" y="240" on="0"/>
        <pt x="337" y="238" on="1"/>
        <pt x="159" y="231" on="1"/>
        <pt x="102" y="77" on="0"/>
        <pt x="76" y="-33" on="1"/>
        <pt x="-5" y="1" on="0"/>
      </contour>
      <contour>
        <pt x="333" y="661" on="1"/>
        <pt x="218" y="388" on="0"/>
        <pt x="186" y="306" on="1"/>
        <pt x="418" y="306" on="1"/>
        <pt x="371" y="535" on="0"/>
      </contour>
      <contour>
        <pt x="425" y="979" on="1"/>
        <pt x="425" y="1020" on="0"/>
        <pt x="377" y="1020" on="1"/>
        <pt x="354" y="1020" on="0"/>
        <pt x="332" y="1015" on="1"/>
        <pt x="320" y="981" on="0"/>
        <pt x="320" y="958" on="1"/>
        <pt x="320" y="917" on="0"/>
        <pt x="368" y="917" on="1"/>
        <pt x="391" y="917" on="0"/>
        <pt x="413" y="922" on="1"/>
        <pt x="425" y="956" on="0"/>
      </contour>
      <contour>
        <pt x="406" y="853" on="0"/>
        <pt x="316" y="853" on="0"/>
        <pt x="254" y="896" on="0"/>
        <pt x="254" y="989" on="0"/>
        <pt x="282" y="1067" on="1"/>
        <pt x="339" y="1084" on="0"/>
        <pt x="429" y="1084" on="0"/>
        <pt x="491" y="1041" on="0"/>
        <pt x="491" y="948" on="0"/>
        <pt x="463" y="870" on="1"/>
      </contour>
    </TTGlyph>
    <TTGlyph name="Atilde" xMin="-5" yMin="-33" xMax="620" yMax="1025">
      <contour>
        <pt x="-5" y="44" on="1"/>
        <pt x="-5" y="63" on="0"/>
        <pt x="105" y="308" on="0"/>
        <pt x="250" y="625" on="0"/>
        <pt x="276" y="693" on="1"/>
        <pt x="298" y="750" on="1"/>
        <pt x="282" y="774" on="0"/>
        <pt x="263" y="793" on="1"/>
        <pt x="294" y="805" on="0"/>
        <pt x="322" y="805" on="1"/>
        <pt x="385" y="805" on="0"/>
        <pt x="420" y="725" on="1"/>
        <pt x="442" y="674" on="0"/>
        <pt x="479" y="497" on="1"/>
        <pt x="480" y="495" on="0"/>
        <pt x="484" y="473" on="0"/>
        <pt x="521" y="292" on="0"/>
        <pt x="535" y="233" on="0"/>
        <pt x="552" y="172" on="1"/>
        <pt x="579" y="69" on="0"/>
        <pt x="620" y="12" on="1"/>
        <pt x="573" y="-16" on="0"/>
        <pt x="512" y="-16" on="0"/>
        <pt x="485" y="21" on="0"/>
        <pt x="462" y="98" on="0"/>
        <pt x="425" y="274" on="1"/>
        <pt x="403" y="240" on="0"/>
        <pt x="337" y="238" on="1"/>
        <pt x="159" y="231" on="1"/>
        <pt x="102" y="77" on="0"/>
        <pt x="76" y="-33" on="1"/>
        <pt x="-5" y="1" on="0"/>
      </contour>
      <contour>
        <pt x="333" y="661" on="1"/>
        <pt x="218" y="388" on="0"/>
        <pt x="186" y="306" on="1"/>
        <pt x="418" y="306" on="1"/>
        <pt x="371" y="535" on="0"/>
      </contour>
      <contour>
        <pt x="521" y="954" on="0"/>
        <pt x="470" y="906" on="0"/>
        <pt x="411" y="906" on="0"/>
        <pt x="323" y="935" on="0"/>
        <pt x="306" y="935" on="1"/>
        <pt x="262" y="935" on="0"/>
        <pt x="238" y="901" on="1"/>
        <pt x="217" y="901" on="0"/>
        <pt x="212" y="918" on="1"/>
        <pt x="220" y="972" on="0"/>
        <pt x="271" y="1020" on="0"/>
        <pt x="330" y="1020" on="0"/>
        <pt x="418" y="991" on="0"/>
        <pt x="435" y="991" on="1"/>
        <pt x="479" y="991" on="0"/>
        <pt x="503" y="1025" on="1"/>
        <pt x="524" y="1025" on="0"/>
        <pt x="529" y="1008" on="1"/>
      </contour>
    </TTGlyph>
    <TTGlyph name="B" xMin="90" yMin="-24" xMax="611" yMax="847">
      <contour>
        <pt x="133" y="342" on="0"/>
        <pt x="156" y="602" on="0"/>
        <pt x="156" y="814" on="0"/>
        <pt x="142" y="847" on="1"/>
        <pt x="225" y="819" on="0"/>
        <pt x="246" y="759" on="1"/>
        <pt x="324" y="802" on="0"/>
        <pt x="488" y="802" on="0"/>
        <pt x="611" y="712" on="0"/>
        <pt x="610" y="560" on="0"/>
        <pt x="512" y="448" on="0"/>
        <pt x="422" y="418" on="1"/>
        <pt x="492" y="403" on="0"/>
        <pt x="606" y="298" on="0"/>
        <pt x="606" y="221" on="1"/>
        <pt x="606" y="103" on="0"/>
        <pt x="441" y="-24" on="0"/>
        <pt x="192" y="-24" on="0"/>
        <pt x="90" y="53" on="1"/>
        <pt x="91" y="61" on="0"/>
      </contour>
      <contour>
        <pt x="508" y="661" on="0"/>
        <pt x="436" y="728" on="0"/>
        <pt x="312" y="728" on="0"/>
        <pt x="258" y="702" on="1"/>
        <pt x="258" y="639" on="0"/>
        <pt x="205" y="136" on="0"/>
        <pt x="205" y="65" on="1"/>
        <pt x="256" y="47" on="0"/>
        <pt x="305" y="47" on="1"/>
        <pt x="391" y="47" on="0"/>
        <pt x="503" y="146" on="0"/>
        <pt x="503" y="230" on="1"/>
        <pt x="503" y="293" on="0"/>
        <pt x="388" y="388" on="0"/>
        <pt x="286" y="392" on="1"/>
        <pt x="283" y="428" on="1"/>
        <pt x="389" y="441" on="0"/>
        <pt x="508" y="550" on="0"/>
      </contour>
    </TTGlyph>
    <TTGlyph name="C" xMin="60" yMin="-15" xMax="637" yMax="806">
      <contour>
        <pt x="323" y="-15" on="1"/>
        <pt x="212" y="-15" on="0"/>
        <pt x="60" y="165" on="0"/>
        <pt x="60" y="337" on="1"/>
        <pt x="60" y="464" on="0"/>
        <pt x="142" y="673" on="0"/>
        <pt x="317" y="806" on="0"/>
        <pt x="537" y="806" on="0"/>
        <pt x="637" y="699" on="0"/>
        <pt x="637" y="561" on="0"/>
        <pt x="567" y="478" on="0"/>
        <pt x="511" y="478" on="1"/>
        <pt x="493" y="478" on="0"/>
        <pt x="467" y="486" on="1"/>
        <pt x="490" y="510" on="0"/>
        <pt x="525" y="597" on="0"/>
        <pt x="525" y="685" on="0"/>
        <pt x="478" y="748" on="0"/>
        <pt x="427" y="748" on="1"/>
        <pt x="350" y="748" on="0"/>
        <pt x="229" y="621" on="0"/>
        <pt x="168" y="436" on="0"/>
        <pt x="168" y="338" on="1"/>
        <pt x="168" y="200" on="0"/>
        <pt x="274" y="63" on="0"/>
        <pt x="358" y="63" on="1"/>
        <pt x="414" y="63" on="0"/>
        <pt x="532" y="131" on="0"/>
        <pt x="570" y="195" on="1"/>
        <pt x="585" y="195" on="0"/>
        <pt x="611" y="177" on="0"/>
        <pt x="611" y="168" on="1"/>
        <pt x="555" y="62" on="0"/>
        <pt x="470" y="21" on="1"/>
        <pt x="396" y="-15" on="0"/>
      </contour>
    </TTGlyph>
    <TTGlyph name="Ccedilla" xMin="60" yMin="-313" xMax="637" yMax="806">
      <contour>
        <pt x="323" y="-15" on="1"/>
        <pt x="212" y="-15" on="0"/>
        <pt x="60" y="165" on="0"/>
        <pt x="60" y="337" on="1"/>
        <pt x="60" y="464" on="0"/>
        <pt x="142" y="673" on="0"/>
        <pt x="317" y="806" on="0"/>
        <pt x="537" y="806" on="0"/>
        <pt x="637" y="699" on="0"/>
        <pt x="637" y="561" on="0"/>
        <pt x="567" y="478" on="0"/>
        <pt x="511" y="478" on="1"/>
        <pt x="493" y="478" on="0"/>
        <pt x="467" y="486" on="1"/>
        <pt x="490" y="510" on="0"/>
        <pt x="525" y="597" on="0"/>
        <pt x="525" y="685" on="0"/>
        <pt x="478" y="748" on="0"/>
        <pt x="427" y="748" on="1"/>
        <pt x="350" y="748" on="0"/>
        <pt x="229" y="621" on="0"/>
        <pt x="168" y="436" on="0"/>
        <pt x="168" y="338" on="1"/>
        <pt x="168" y="200" on="0"/>
        <pt x="274" y="63" on="0"/>
        <pt x="358" y="63" on="1"/>
        <pt x="414" y="63" on="0"/>
        <pt x="532" y="131" on="0"/>
        <pt x="570" y="195" on="1"/>
        <pt x="585" y="195" on="0"/>
        <pt x="611" y="177" on="0"/>
        <pt x="611" y="168" on="1"/>
        <pt x="555" y="62" on="0"/>
        <pt x="470" y="21" on="1"/>
        <pt x="396" y="-15" on="0"/>
      </contour>
      <contour>
        <pt x="313" y="-44" on="0"/>
        <pt x="372" y="-105" on="0"/>
        <pt x="372" y="-206" on="0"/>
        <pt x="303" y="-295" on="0"/>
        <pt x="244" y="-313" on="1"/>
        <pt x="205" y="-296" on="0"/>
        <pt x="205" y="-243" on="1"/>
        <pt x="248" y="-234" on="0"/>
        <pt x="298" y="-181" on="0"/>
        <pt x="298" y="-146" on="1"/>
        <pt x="298" y="-91" on="0"/>
        <pt x="244" y="-67" on="1"/>
        <pt x="244" y="-54" on="0"/>
        <pt x="250" y="-40" on="1"/>
      </contour>
    </TTGlyph>
    <TTGlyph name="D" xMin="90" yMin="-15" xMax="709" yMax="847">
      <contour>
        <pt x="413" y="802" on="1"/>
        <pt x="551" y="802" on="0"/>
        <pt x="709" y="584" on="0"/>
        <pt x="709" y="419" on="1"/>
        <pt x="709" y="251" on="0"/>
        <pt x="618" y="123" on="1"/>
        <pt x="574" y="60" on="0"/>
        <pt x="425" y="-15" on="0"/>
        <pt x="266" y="-15" on="0"/>
        <pt x="145" y="19" on="0"/>
        <pt x="118" y="36" on="1"/>
        <pt x="90" y="53" on="1"/>
        <pt x="91" y="61" on="0"/>
        <pt x="112" y="202" on="1"/>
        <pt x="156" y="496" on="0"/>
        <pt x="156" y="735" on="1"/>
        <pt x="156" y="814" on="0"/>
        <pt x="142" y="847" on="1"/>
        <pt x="225" y="819" on="0"/>
        <pt x="246" y="759" on="1"/>
        <pt x="335" y="802" on="0"/>
      </contour>
      <contour>
        <pt x="206" y="70" on="1"/>
        <pt x="250" y="55" on="0"/>
        <pt x="376" y="55" on="0"/>
        <pt x="494" y="120" on="0"/>
        <pt x="530" y="174" on="1"/>
        <pt x="604" y="283" on="0"/>
        <pt x="604" y="557" on="0"/>
        <pt x="482" y="725" on="0"/>
        <pt x="379" y="725" on="1"/>
        <pt x="310" y="725" on="0"/>
        <pt x="259" y="702" on="1"/>
        <pt x="259" y="640" on="0"/>
        <pt x="206" y="140" on="0"/>
      </contour>
    </TTGlyph>
    <TTGlyph name="Delta" xMin="41" yMin="-14" xMax="626" yMax="733">
      <contour>
        <pt x="387" y="733" on="1"/>
        <pt x="463" y="733" on="0"/>
        <pt x="503" y="569" on="1"/>
        <pt x="619" y="114" on="1"/>
        <pt x="626" y="88" on="0"/>
        <pt x="626" y="62" on="1"/>
        <pt x="626" y="18" on="0"/>
        <pt x="599" y="0" on="1"/>
        <pt x="492" y="0" on="0"/>
        <pt x="203" y="-14" on="0"/>
        <pt x="158" y="-14" on="1"/>
        <pt x="63" y="-14" on="0"/>
        <pt x="41" y="42" on="1"/>
        <pt x="84" y="141" on="0"/>
        <pt x="311" y="605" on="0"/>
        <pt x="343" y="688" on="1"/>
        <pt x="332" y="702" on="0"/>
        <pt x="312" y="722" on="1"/>
        <pt x="350" y="733" on="0"/>
      </contour>
      <contour>
        <pt x="157" y="75" on="1"/>
        <pt x="208" y="73" on="0"/>
        <pt x="345" y="73" on="0"/>
        <pt x="486" y="84" on="0"/>
        <pt x="517" y="85" on="1"/>
        <pt x="516" y="88" on="0"/>
        <pt x="415" y="507" on="0"/>
        <pt x="387" y="597" on="1"/>
        <pt x="371" y="561" on="0"/>
        <pt x="318" y="449" on="1"/>
        <pt x="213" y="225" on="0"/>
      </contour>
    </TTGlyph>
    <TTGlyph name="E" xMin="70" yMin="-8" xMax="589" yMax="793">
      <contour>
        <pt x="400" y="340" on="1"/>
        <pt x="311" y="341" on="1"/>
        <pt x="262" y="341" on="0"/>
        <pt x="236" y="339" on="1"/>
        <pt x="220" y="197" on="0"/>
        <pt x="220" y="84" on="1"/>
        <pt x="451" y="84" on="0"/>
        <pt x="554" y="114" on="1"/>
        <pt x="547" y="56" on="0"/>
        <pt x="482" y="-8" on="0"/>
        <pt x="433" y="-8" on="1"/>
        <pt x="419" y="-8" on="0"/>
        <pt x="274" y="5" on="0"/>
        <pt x="138" y="5" on="0"/>
        <pt x="70" y="-8" on="1"/>
        <pt x="78" y="25" on="0"/>
        <pt x="108" y="49" on="1"/>
        <pt x="107" y="55" on="0"/>
        <pt x="107" y="119" on="0"/>
        <pt x="136" y="324" on="1"/>
        <pt x="108" y="317" on="0"/>
        <pt x="88" y="309" on="1"/>
        <pt x="86" y="327" on="0"/>
        <pt x="86" y="338" on="1"/>
        <pt x="86" y="399" on="0"/>
        <pt x="148" y="414" on="1"/>
        <pt x="171" y="582" on="0"/>
        <pt x="173" y="682" on="1"/>
        <pt x="147" y="684" on="0"/>
        <pt x="126" y="706" on="0"/>
        <pt x="126" y="763" on="0"/>
        <pt x="134" y="785" on="1"/>
        <pt x="237" y="771" on="0"/>
        <pt x="479" y="771" on="0"/>
        <pt x="589" y="793" on="1"/>
        <pt x="583" y="755" on="0"/>
        <pt x="540" y="708" on="0"/>
        <pt x="446" y="688" on="0"/>
        <pt x="415" y="686" on="1"/>
        <pt x="359" y="681" on="0"/>
        <pt x="277" y="681" on="1"/>
        <pt x="276" y="645" on="0"/>
        <pt x="246" y="418" on="1"/>
        <pt x="308" y="416" on="0"/>
        <pt x="336" y="416" on="1"/>
        <pt x="424" y="416" on="0"/>
        <pt x="461" y="445" on="1"/>
        <pt x="463" y="429" on="0"/>
        <pt x="463" y="419" on="1"/>
        <pt x="463" y="340" on="0"/>
      </contour>
    </TTGlyph>
    <TTGlyph name="Eacute" xMin="70" yMin="-8" xMax="589" yMax="1081">
      <contour>
        <pt x="400" y="340" on="1"/>
        <pt x="311" y="341" on="1"/>
        <pt x="262" y="341" on="0"/>
        <pt x="236" y="339" on="1"/>
        <pt x="220" y="197" on="0"/>
        <pt x="220" y="84" on="1"/>
        <pt x="451" y="84" on="0"/>
        <pt x="554" y="114" on="1"/>
        <pt x="547" y="56" on="0"/>
        <pt x="482" y="-8" on="0"/>
        <pt x="433" y="-8" on="1"/>
        <pt x="419" y="-8" on="0"/>
        <pt x="274" y="5" on="0"/>
        <pt x="138" y="5" on="0"/>
        <pt x="70" y="-8" on="1"/>
        <pt x="78" y="25" on="0"/>
        <pt x="108" y="49" on="1"/>
        <pt x="107" y="55" on="0"/>
        <pt x="107" y="119" on="0"/>
        <pt x="136" y="324" on="1"/>
        <pt x="108" y="317" on="0"/>
        <pt x="88" y="309" on="1"/>
        <pt x="86" y="327" on="0"/>
        <pt x="86" y="338" on="1"/>
        <pt x="86" y="399" on="0"/>
        <pt x="148" y="414" on="1"/>
        <pt x="171" y="582" on="0"/>
        <pt x="173" y="682" on="1"/>
        <pt x="147" y="684" on="0"/>
        <pt x="126" y="706" on="0"/>
        <pt x="126" y="763" on="0"/>
        <pt x="134" y="785" on="1"/>
        <pt x="237" y="771" on="0"/>
        <pt x="479" y="771" on="0"/>
        <pt x="589" y="793" on="1"/>
        <pt x="583" y="755" on="0"/>
        <pt x="540" y="708" on="0"/>
        <pt x="446" y="688" on="0"/>
        <pt x="415" y="686" on="1"/>
        <pt x="359" y="681" on="0"/>
        <pt x="277" y="681" on="1"/>
        <pt x="276" y="645" on="0"/>
        <pt x="246" y="418" on="1"/>
        <pt x="308" y="416" on="0"/>
        <pt x="336" y="416" on="1"/>
        <pt x="424" y="416" on="0"/>
        <pt x="461" y="445" on="1"/>
        <pt x="463" y="429" on="0"/>
        <pt x="463" y="419" on="1"/>
        <pt x="463" y="340" on="0"/>
      </contour>
      <contour>
        <pt x="296" y="881" on="1"/>
        <pt x="321" y="937" on="0"/>
        <pt x="434" y="1060" on="0"/>
        <pt x="487" y="1081" on="1"/>
        <pt x="533" y="1051" on="0"/>
        <pt x="535" y="999" on="1"/>
        <pt x="477" y="981" on="0"/>
        <pt x="364" y="893" on="0"/>
        <pt x="328" y="848" on="1"/>
        <pt x="316" y="851" on="0"/>
        <pt x="297" y="870" on="0"/>
      </contour>
    </TTGlyph>
    <TTGlyph name="Ecircumflex" xMin="70" yMin="-8" xMax="589" yMax="1082">
      <contour>
        <pt x="400" y="340" on="1"/>
        <pt x="311" y="341" on="1"/>
        <pt x="262" y="341" on="0"/>
        <pt x="236" y="339" on="1"/>
        <pt x="220" y="197" on="0"/>
        <pt x="220" y="84" on="1"/>
        <pt x="451" y="84" on="0"/>
        <pt x="554" y="114" on="1"/>
        <pt x="547" y="56" on="0"/>
        <pt x="482" y="-8" on="0"/>
        <pt x="433" y="-8" on="1"/>
        <pt x="419" y="-8" on="0"/>
        <pt x="274" y="5" on="0"/>
        <pt x="138" y="5" on="0"/>
        <pt x="70" y="-8" on="1"/>
        <pt x="78" y="25" on="0"/>
        <pt x="108" y="49" on="1"/>
        <pt x="107" y="55" on="0"/>
        <pt x="107" y="119" on="0"/>
        <pt x="136" y="324" on="1"/>
        <pt x="108" y="317" on="0"/>
        <pt x="88" y="309" on="1"/>
        <pt x="86" y="327" on="0"/>
        <pt x="86" y="338" on="1"/>
        <pt x="86" y="399" on="0"/>
        <pt x="148" y="414" on="1"/>
        <pt x="171" y="582" on="0"/>
        <pt x="173" y="682" on="1"/>
        <pt x="147" y="684" on="0"/>
        <pt x="126" y="706" on="0"/>
        <pt x="126" y="763" on="0"/>
        <pt x="134" y="785" on="1"/>
        <pt x="237" y="771" on="0"/>
        <pt x="479" y="771" on="0"/>
        <pt x="589" y="793" on="1"/>
        <pt x="583" y="755" on="0"/>
        <pt x="540" y="708" on="0"/>
        <pt x="446" y="688" on="0"/>
        <pt x="415" y="686" on="1"/>
        <pt x="359" y="681" on="0"/>
        <pt x="277" y="681" on="1"/>
        <pt x="276" y="645" on="0"/>
        <pt x="246" y="418" on="1"/>
        <pt x="308" y="416" on="0"/>
        <pt x="336" y="416" on="1"/>
        <pt x="424" y="416" on="0"/>
        <pt x="461" y="445" on="1"/>
        <pt x="463" y="429" on="0"/>
        <pt x="463" y="419" on="1"/>
        <pt x="463" y="340" on="0"/>
      </contour>
      <contour>
        <pt x="533" y="881" on="1"/>
        <pt x="509" y="870" on="0"/>
        <pt x="441" y="870" on="0"/>
        <pt x="402" y="924" on="0"/>
        <pt x="387" y="1001" on="1"/>
        <pt x="336" y="908" on="0"/>
        <pt x="254" y="854" on="1"/>
        <pt x="216" y="884" on="0"/>
        <pt x="215" y="930" on="1"/>
        <pt x="284" y="975" on="0"/>
        <pt x="331" y="1019" on="0"/>
        <pt x="347" y="1035" on="0"/>
        <pt x="382" y="1078" on="0"/>
        <pt x="386" y="1082" on="1"/>
        <pt x="446" y="1082" on="0"/>
        <pt x="455" y="1021" on="1"/>
        <pt x="459" y="995" on="0"/>
        <pt x="497" y="915" on="0"/>
      </contour>
    </TTGlyph>
    <TTGlyph name="Edieresis" xMin="70" yMin="-8" xMax="589" yMax="1028">
      <contour>
        <pt x="400" y="340" on="1"/>
        <pt x="311" y="341" on="1"/>
        <pt x="262" y="341" on="0"/>
        <pt x="236" y="339" on="1"/>
        <pt x="220" y="197" on="0"/>
        <pt x="220" y="84" on="1"/>
        <pt x="451" y="84" on="0"/>
        <pt x="554" y="114" on="1"/>
        <pt x="547" y="56" on="0"/>
        <pt x="482" y="-8" on="0"/>
        <pt x="433" y="-8" on="1"/>
        <pt x="419" y="-8" on="0"/>
        <pt x="274" y="5" on="0"/>
        <pt x="138" y="5" on="0"/>
        <pt x="70" y="-8" on="1"/>
        <pt x="78" y="25" on="0"/>
        <pt x="108" y="49" on="1"/>
        <pt x="107" y="55" on="0"/>
        <pt x="107" y="119" on="0"/>
        <pt x="136" y="324" on="1"/>
        <pt x="108" y="317" on="0"/>
        <pt x="88" y="309" on="1"/>
        <pt x="86" y="327" on="0"/>
        <pt x="86" y="338" on="1"/>
        <pt x="86" y="399" on="0"/>
        <pt x="148" y="414" on="1"/>
        <pt x="171" y="582" on="0"/>
        <pt x="173" y="682" on="1"/>
        <pt x="147" y="684" on="0"/>
        <pt x="126" y="706" on="0"/>
        <pt x="126" y="763" on="0"/>
        <pt x="134" y="785" on="1"/>
        <pt x="237" y="771" on="0"/>
        <pt x="479" y="771" on="0"/>
        <pt x="589" y="793" on="1"/>
        <pt x="583" y="755" on="0"/>
        <pt x="540" y="708" on="0"/>
        <pt x="446" y="688" on="0"/>
        <pt x="415" y="686" on="1"/>
        <pt x="359" y="681" on="0"/>
        <pt x="277" y="681" on="1"/>
        <pt x="276" y="645" on="0"/>
        <pt x="246" y="418" on="1"/>
        <pt x="308" y="416" on="0"/>
        <pt x="336" y="416" on="1"/>
        <pt x="424" y="416" on="0"/>
        <pt x="461" y="445" on="1"/>
        <pt x="463" y="429" on="0"/>
        <pt x="463" y="419" on="1"/>
        <pt x="463" y="340" on="0"/>
      </contour>
      <contour>
        <pt x="294" y="911" on="1"/>
        <pt x="210" y="911" on="0"/>
        <pt x="210" y="968" on="1"/>
        <pt x="210" y="988" on="0"/>
        <pt x="225" y="1024" on="1"/>
        <pt x="247" y="1028" on="0"/>
        <pt x="263" y="1028" on="1"/>
        <pt x="347" y="1028" on="0"/>
        <pt x="347" y="971" on="1"/>
        <pt x="347" y="951" on="0"/>
        <pt x="332" y="915" on="1"/>
        <pt x="310" y="911" on="0"/>
      </contour>
      <contour>
        <pt x="504" y="911" on="1"/>
        <pt x="420" y="911" on="0"/>
        <pt x="420" y="968" on="1"/>
        <pt x="420" y="988" on="0"/>
        <pt x="435" y="1024" on="1"/>
        <pt x="457" y="1028" on="0"/>
        <pt x="473" y="1028" on="1"/>
        <pt x="557" y="1028" on="0"/>
        <pt x="557" y="971" on="1"/>
        <pt x="557" y="951" on="0"/>
        <pt x="542" y="915" on="1"/>
        <pt x="520" y="911" on="0"/>
      </contour>
    </TTGlyph>
    <TTGlyph name="Egrave" xMin="70" yMin="-8" xMax="589" yMax="1081">
      <contour>
        <pt x="400" y="340" on="1"/>
        <pt x="311" y="341" on="1"/>
        <pt x="262" y="341" on="0"/>
        <pt x="236" y="339" on="1"/>
        <pt x="220" y="197" on="0"/>
        <pt x="220" y="84" on="1"/>
        <pt x="451" y="84" on="0"/>
        <pt x="554" y="114" on="1"/>
        <pt x="547" y="56" on="0"/>
        <pt x="482" y="-8" on="0"/>
        <pt x="433" y="-8" on="1"/>
        <pt x="419" y="-8" on="0"/>
        <pt x="274" y="5" on="0"/>
        <pt x="138" y="5" on="0"/>
        <pt x="70" y="-8" on="1"/>
        <pt x="78" y="25" on="0"/>
        <pt x="108" y="49" on="1"/>
        <pt x="107" y="55" on="0"/>
        <pt x="107" y="119" on="0"/>
        <pt x="136" y="324" on="1"/>
        <pt x="108" y="317" on="0"/>
        <pt x="88" y="309" on="1"/>
        <pt x="86" y="327" on="0"/>
        <pt x="86" y="338" on="1"/>
        <pt x="86" y="399" on="0"/>
        <pt x="148" y="414" on="1"/>
        <pt x="171" y="582" on="0"/>
        <pt x="173" y="682" on="1"/>
        <pt x="147" y="684" on="0"/>
        <pt x="126" y="706" on="0"/>
        <pt x="126" y="763" on="0"/>
        <pt x="134" y="785" on="1"/>
        <pt x="237" y="771" on="0"/>
        <pt x="479" y="771" on="0"/>
        <pt x="589" y="793" on="1"/>
        <pt x="583" y="755" on="0"/>
        <pt x="540" y="708" on="0"/>
        <pt x="446" y="688" on="0"/>
        <pt x="415" y="686" on="1"/>
        <pt x="359" y="681" on="0"/>
        <pt x="277" y="681" on="1"/>
        <pt x="276" y="645" on="0"/>
        <pt x="246" y="418" on="1"/>
        <pt x="308" y="416" on="0"/>
        <pt x="336" y="416" on="1"/>
        <pt x="424" y="416" on="0"/>
        <pt x="461" y="445" on="1"/>
        <pt x="463" y="429" on="0"/>
        <pt x="463" y="419" on="1"/>
        <pt x="463" y="340" on="0"/>
      </contour>
      <contour>
        <pt x="496" y="881" on="1"/>
        <pt x="495" y="870" on="0"/>
        <pt x="476" y="851" on="0"/>
        <pt x="464" y="848" on="1"/>
        <pt x="428" y="893" on="0"/>
        <pt x="315" y="981" on="0"/>
        <pt x="257" y="999" on="1"/>
        <pt x="259" y="1051" on="0"/>
        <pt x="305" y="1081" on="1"/>
        <pt x="358" y="1060" on="0"/>
        <pt x="471" y="937" on="0"/>
      </contour>
    </TTGlyph>
    <TTGlyph name="Eth" xMin="32" yMin="-15" xMax="709" yMax="847">
      <contour>
        <pt x="413" y="802" on="1"/>
        <pt x="551" y="802" on="0"/>
        <pt x="709" y="584" on="0"/>
        <pt x="709" y="419" on="1"/>
        <pt x="709" y="251" on="0"/>
        <pt x="618" y="123" on="1"/>
        <pt x="574" y="60" on="0"/>
        <pt x="425" y="-15" on="0"/>
        <pt x="266" y="-15" on="0"/>
        <pt x="145" y="19" on="0"/>
        <pt x="118" y="36" on="1"/>
        <pt x="90" y="53" on="1"/>
        <pt x="93" y="77" on="0"/>
        <pt x="122" y="274" on="0"/>
        <pt x="130" y="344" on="1"/>
        <pt x="121" y="344" on="1"/>
        <pt x="67" y="344" on="0"/>
        <pt x="32" y="386" on="0"/>
        <pt x="32" y="428" on="1"/>
        <pt x="32" y="431" on="0"/>
        <pt x="33" y="443" on="0"/>
        <pt x="33" y="446" on="1"/>
        <pt x="68" y="438" on="0"/>
        <pt x="140" y="438" on="1"/>
        <pt x="156" y="600" on="0"/>
        <pt x="156" y="814" on="0"/>
        <pt x="142" y="847" on="1"/>
        <pt x="225" y="819" on="0"/>
        <pt x="246" y="759" on="1"/>
        <pt x="335" y="802" on="0"/>
      </contour>
      <contour>
        <pt x="206" y="70" on="1"/>
        <pt x="250" y="55" on="0"/>
        <pt x="376" y="55" on="0"/>
        <pt x="494" y="120" on="0"/>
        <pt x="530" y="174" on="1"/>
        <pt x="604" y="283" on="0"/>
        <pt x="604" y="557" on="0"/>
        <pt x="482" y="725" on="0"/>
        <pt x="379" y="725" on="1"/>
        <pt x="310" y="725" on="0"/>
        <pt x="259" y="702" on="1"/>
        <pt x="259" y="643" on="0"/>
        <pt x="238" y="441" on="1"/>
        <pt x="350" y="449" on="0"/>
        <pt x="376" y="449" on="1"/>
        <pt x="430" y="449" on="0"/>
        <pt x="465" y="407" on="0"/>
        <pt x="465" y="365" on="1"/>
        <pt x="465" y="362" on="0"/>
        <pt x="464" y="350" on="0"/>
        <pt x="464" y="347" on="1"/>
        <pt x="427" y="355" on="0"/>
        <pt x="296" y="355" on="0"/>
        <pt x="228" y="349" on="1"/>
        <pt x="206" y="146" on="0"/>
      </contour>
    </TTGlyph>
    <TTGlyph name="Euro" xMin="-23" yMin="-27" xMax="575" yMax="719">
      <contour>
        <pt x="-23" y="397" on="1"/>
        <pt x="11" y="396" on="1"/>
        <pt x="50" y="396" on="0"/>
        <pt x="92" y="402" on="1"/>
        <pt x="119" y="542" on="0"/>
        <pt x="299" y="719" on="0"/>
        <pt x="437" y="719" on="1"/>
        <pt x="508" y="719" on="0"/>
        <pt x="575" y="653" on="0"/>
        <pt x="575" y="566" on="0"/>
        <pt x="521" y="503" on="0"/>
        <pt x="475" y="503" on="1"/>
        <pt x="454" y="503" on="0"/>
        <pt x="434" y="510" on="1"/>
        <pt x="455" y="524" on="0"/>
        <pt x="484" y="573" on="0"/>
        <pt x="484" y="620" on="0"/>
        <pt x="454" y="651" on="0"/>
        <pt x="425" y="651" on="1"/>
        <pt x="348" y="651" on="0"/>
        <pt x="230" y="520" on="0"/>
        <pt x="204" y="420" on="1"/>
        <pt x="281" y="434" on="0"/>
        <pt x="362" y="434" on="0"/>
        <pt x="406" y="403" on="0"/>
        <pt x="416" y="365" on="1"/>
        <pt x="401" y="371" on="0"/>
        <pt x="304" y="371" on="0"/>
        <pt x="192" y="353" on="1"/>
        <pt x="188" y="326" on="0"/>
        <pt x="188" y="294" on="1"/>
        <pt x="188" y="270" on="1"/>
        <pt x="304" y="289" on="0"/>
        <pt x="378" y="289" on="0"/>
        <pt x="422" y="258" on="0"/>
        <pt x="432" y="220" on="1"/>
        <pt x="417" y="226" on="0"/>
        <pt x="316" y="226" on="0"/>
        <pt x="196" y="206" on="1"/>
        <pt x="213" y="127" on="0"/>
        <pt x="299" y="47" on="0"/>
        <pt x="358" y="47" on="1"/>
        <pt x="399" y="47" on="0"/>
        <pt x="487" y="113" on="0"/>
        <pt x="527" y="173" on="1"/>
        <pt x="559" y="165" on="0"/>
        <pt x="559" y="140" on="1"/>
        <pt x="475" y="-27" on="0"/>
        <pt x="316" y="-27" on="1"/>
        <pt x="235" y="-27" on="0"/>
        <pt x="112" y="83" on="0"/>
        <pt x="91" y="190" on="1"/>
        <pt x="79" y="188" on="0"/>
        <pt x="61" y="188" on="1"/>
        <pt x="1" y="188" on="0"/>
        <pt x="-7" y="252" on="1"/>
        <pt x="27" y="251" on="1"/>
        <pt x="54" y="251" on="0"/>
        <pt x="83" y="254" on="1"/>
        <pt x="82" y="266" on="0"/>
        <pt x="82" y="322" on="0"/>
        <pt x="83" y="336" on="1"/>
        <pt x="60" y="333" on="0"/>
        <pt x="45" y="333" on="1"/>
        <pt x="-15" y="333" on="0"/>
      </contour>
    </TTGlyph>
    <TTGlyph name="F" xMin="85" yMin="-17" xMax="568" yMax="793">
      <contour>
        <pt x="399" y="340" on="1"/>
        <pt x="310" y="341" on="1"/>
        <pt x="261" y="341" on="0"/>
        <pt x="235" y="339" on="1"/>
        <pt x="219" y="195" on="0"/>
        <pt x="219" y="20" on="0"/>
        <pt x="225" y="-15" on="1"/>
        <pt x="199" y="-17" on="0"/>
        <pt x="197" y="-17" on="1"/>
        <pt x="151" y="-17" on="0"/>
        <pt x="106" y="23" on="0"/>
        <pt x="106" y="119" on="0"/>
        <pt x="135" y="324" on="1"/>
        <pt x="107" y="317" on="0"/>
        <pt x="87" y="309" on="1"/>
        <pt x="85" y="327" on="0"/>
        <pt x="85" y="338" on="1"/>
        <pt x="85" y="399" on="0"/>
        <pt x="147" y="414" on="1"/>
        <pt x="170" y="582" on="0"/>
        <pt x="172" y="681" on="1"/>
        <pt x="133" y="681" on="0"/>
        <pt x="105" y="702" on="0"/>
        <pt x="105" y="763" on="0"/>
        <pt x="113" y="785" on="1"/>
        <pt x="216" y="771" on="0"/>
        <pt x="458" y="771" on="0"/>
        <pt x="568" y="793" on="1"/>
        <pt x="555" y="712" on="0"/>
        <pt x="455" y="696" on="1"/>
        <pt x="396" y="686" on="0"/>
        <pt x="276" y="682" on="1"/>
        <pt x="276" y="635" on="0"/>
        <pt x="245" y="418" on="1"/>
        <pt x="307" y="416" on="0"/>
        <pt x="335" y="416" on="1"/>
        <pt x="423" y="416" on="0"/>
        <pt x="460" y="445" on="1"/>
        <pt x="462" y="429" on="0"/>
        <pt x="462" y="419" on="1"/>
        <pt x="462" y="340" on="0"/>
      </contour>
    </TTGlyph>
    <TTGlyph name="G" xMin="55" yMin="-329" xMax="622" yMax="806">
      <contour>
        <pt x="480" y="314" on="1"/>
        <pt x="479" y="339" on="1"/>
        <pt x="477" y="364" on="1"/>
        <pt x="495" y="366" on="0"/>
        <pt x="514" y="366" on="1"/>
        <pt x="560" y="366" on="0"/>
        <pt x="596" y="327" on="0"/>
        <pt x="596" y="280" on="1"/>
        <pt x="596" y="-25" on="0"/>
        <pt x="493" y="-196" on="1"/>
        <pt x="457" y="-255" on="0"/>
        <pt x="342" y="-329" on="0"/>
        <pt x="269" y="-329" on="1"/>
        <pt x="170" y="-329" on="0"/>
        <pt x="70" y="-222" on="0"/>
        <pt x="70" y="-91" on="0"/>
        <pt x="129" y="-16" on="0"/>
        <pt x="173" y="-16" on="1"/>
        <pt x="201" y="-16" on="0"/>
        <pt x="225" y="-33" on="1"/>
        <pt x="182" y="-92" on="0"/>
        <pt x="182" y="-150" on="1"/>
        <pt x="182" y="-271" on="0"/>
        <pt x="376" y="-271" on="0"/>
        <pt x="476" y="-43" on="0"/>
        <pt x="485" y="161" on="1"/>
        <pt x="449" y="96" on="0"/>
        <pt x="341" y="29" on="0"/>
        <pt x="282" y="29" on="1"/>
        <pt x="188" y="29" on="0"/>
        <pt x="55" y="185" on="0"/>
        <pt x="55" y="324" on="1"/>
        <pt x="55" y="516" on="0"/>
        <pt x="148" y="656" on="1"/>
        <pt x="194" y="725" on="0"/>
        <pt x="339" y="806" on="0"/>
        <pt x="525" y="806" on="0"/>
        <pt x="622" y="705" on="0"/>
        <pt x="622" y="562" on="0"/>
        <pt x="539" y="481" on="0"/>
        <pt x="482" y="481" on="1"/>
        <pt x="399" y="481" on="0"/>
        <pt x="357" y="539" on="1"/>
        <pt x="384" y="532" on="0"/>
        <pt x="408" y="532" on="1"/>
        <pt x="465" y="532" on="0"/>
        <pt x="530" y="600" on="0"/>
        <pt x="530" y="689" on="0"/>
        <pt x="470" y="748" on="0"/>
        <pt x="415" y="748" on="1"/>
        <pt x="342" y="748" on="0"/>
        <pt x="223" y="614" on="0"/>
        <pt x="162" y="424" on="0"/>
        <pt x="162" y="217" on="0"/>
        <pt x="251" y="99" on="0"/>
        <pt x="381" y="99" on="0"/>
        <pt x="480" y="216" on="0"/>
      </contour>
    </TTGlyph>
    <TTGlyph name="H" xMin="90" yMin="-31" xMax="704" yMax="802">
      <contour>
        <pt x="480" y="354" on="1"/>
        <pt x="335" y="356" on="1"/>
        <pt x="289" y="356" on="0"/>
        <pt x="244" y="353" on="1"/>
        <pt x="219" y="174" on="0"/>
        <pt x="219" y="2" on="0"/>
        <pt x="233" y="-31" on="1"/>
        <pt x="171" y="-9" on="0"/>
        <pt x="120" y="66" on="0"/>
        <pt x="120" y="167" on="0"/>
        <pt x="141" y="326" on="0"/>
        <pt x="143" y="338" on="1"/>
        <pt x="109" y="330" on="0"/>
        <pt x="92" y="324" on="1"/>
        <pt x="90" y="342" on="0"/>
        <pt x="90" y="362" on="1"/>
        <pt x="90" y="419" on="0"/>
        <pt x="156" y="429" on="1"/>
        <pt x="178" y="599" on="0"/>
        <pt x="178" y="720" on="1"/>
        <pt x="178" y="750" on="0"/>
        <pt x="174" y="802" on="1"/>
        <pt x="250" y="798" on="0"/>
        <pt x="269" y="766" on="1"/>
        <pt x="279" y="748" on="0"/>
        <pt x="285" y="715" on="0"/>
        <pt x="285" y="635" on="0"/>
        <pt x="256" y="441" on="0"/>
        <pt x="255" y="432" on="1"/>
        <pt x="433" y="432" on="0"/>
        <pt x="575" y="435" on="1"/>
        <pt x="597" y="602" on="0"/>
        <pt x="597" y="720" on="1"/>
        <pt x="597" y="750" on="0"/>
        <pt x="593" y="802" on="1"/>
        <pt x="669" y="798" on="0"/>
        <pt x="688" y="766" on="1"/>
        <pt x="698" y="748" on="0"/>
        <pt x="704" y="715" on="0"/>
        <pt x="704" y="635" on="0"/>
        <pt x="638" y="183" on="0"/>
        <pt x="638" y="2" on="0"/>
        <pt x="652" y="-31" on="1"/>
        <pt x="590" y="-9" on="0"/>
        <pt x="539" y="66" on="0"/>
        <pt x="539" y="167" on="0"/>
        <pt x="560" y="322" on="1"/>
        <pt x="574" y="424" on="1"/>
        <pt x="559" y="354" on="0"/>
      </contour>
    </TTGlyph>
    <TTGlyph name="I" xMin="92" yMin="-31" xMax="257" yMax="802">
      <contour>
        <pt x="251" y="748" on="0"/>
        <pt x="257" y="715" on="0"/>
        <pt x="257" y="635" on="0"/>
        <pt x="191" y="183" on="0"/>
        <pt x="191" y="2" on="0"/>
        <pt x="205" y="-31" on="1"/>
        <pt x="143" y="-9" on="0"/>
        <pt x="92" y="66" on="0"/>
        <pt x="92" y="167" on="0"/>
        <pt x="113" y="322" on="1"/>
        <pt x="150" y="579" on="0"/>
        <pt x="150" y="720" on="1"/>
        <pt x="150" y="750" on="0"/>
        <pt x="146" y="802" on="1"/>
        <pt x="222" y="798" on="0"/>
        <pt x="241" y="766" on="1"/>
      </contour>
    </TTGlyph>
    <TTGlyph name="Iacute" xMin="92" yMin="-31" xMax="338" yMax="1081">
      <contour>
        <pt x="251" y="748" on="0"/>
        <pt x="257" y="715" on="0"/>
        <pt x="257" y="635" on="0"/>
        <pt x="191" y="183" on="0"/>
        <pt x="191" y="2" on="0"/>
        <pt x="205" y="-31" on="1"/>
        <pt x="143" y="-9" on="0"/>
        <pt x="92" y="66" on="0"/>
        <pt x="92" y="167" on="0"/>
        <pt x="113" y="322" on="1"/>
        <pt x="150" y="579" on="0"/>
        <pt x="150" y="720" on="1"/>
        <pt x="150" y="750" on="0"/>
        <pt x="146" y="802" on="1"/>
        <pt x="222" y="798" on="0"/>
        <pt x="241" y="766" on="1"/>
      </contour>
      <contour>
        <pt x="99" y="881" on="1"/>
        <pt x="124" y="937" on="0"/>
        <pt x="237" y="1060" on="0"/>
        <pt x="290" y="1081" on="1"/>
        <pt x="336" y="1051" on="0"/>
        <pt x="338" y="999" on="1"/>
        <pt x="280" y="981" on="0"/>
        <pt x="167" y="893" on="0"/>
        <pt x="131" y="848" on="1"/>
        <pt x="119" y="851" on="0"/>
        <pt x="100" y="870" on="0"/>
      </contour>
    </TTGlyph>
    <TTGlyph name="Icircumflex" xMin="49" yMin="-31" xMax="367" yMax="1082">
      <contour>
        <pt x="251" y="748" on="0"/>
        <pt x="257" y="715" on="0"/>
        <pt x="257" y="635" on="0"/>
        <pt x="191" y="183" on="0"/>
        <pt x="191" y="2" on="0"/>
        <pt x="205" y="-31" on="1"/>
        <pt x="143" y="-9" on="0"/>
        <pt x="92" y="66" on="0"/>
        <pt x="92" y="167" on="0"/>
        <pt x="113" y="322" on="1"/>
        <pt x="150" y="579" on="0"/>
        <pt x="150" y="720" on="1"/>
        <pt x="150" y="750" on="0"/>
        <pt x="146" y="802" on="1"/>
        <pt x="222" y="798" on="0"/>
        <pt x="241" y="766" on="1"/>
      </contour>
      <contour>
        <pt x="367" y="881" on="1"/>
        <pt x="343" y="870" on="0"/>
        <pt x="275" y="870" on="0"/>
        <pt x="236" y="924" on="0"/>
        <pt x="221" y="1001" on="1"/>
        <pt x="170" y="908" on="0"/>
        <pt x="88" y="854" on="1"/>
        <pt x="50" y="884" on="0"/>
        <pt x="49" y="930" on="1"/>
        <pt x="118" y="975" on="0"/>
        <pt x="165" y="1019" on="0"/>
        <pt x="181" y="1035" on="0"/>
        <pt x="216" y="1078" on="0"/>
        <pt x="220" y="1082" on="1"/>
        <pt x="280" y="1082" on="0"/>
        <pt x="289" y="1021" on="1"/>
        <pt x="293" y="995" on="0"/>
        <pt x="331" y="915" on="0"/>
      </contour>
    </TTGlyph>
    <TTGlyph name="Idieresis" xMin="50" yMin="-31" xMax="397" yMax="1028">
      <contour>
        <pt x="251" y="748" on="0"/>
        <pt x="257" y="715" on="0"/>
        <pt x="257" y="635" on="0"/>
        <pt x="191" y="183" on="0"/>
        <pt x="191" y="2" on="0"/>
        <pt x="205" y="-31" on="1"/>
        <pt x="143" y="-9" on="0"/>
        <pt x="92" y="66" on="0"/>
        <pt x="92" y="167" on="0"/>
        <pt x="113" y="322" on="1"/>
        <pt x="150" y="579" on="0"/>
        <pt x="150" y="720" on="1"/>
        <pt x="150" y="750" on="0"/>
        <pt x="146" y="802" on="1"/>
        <pt x="222" y="798" on="0"/>
        <pt x="241" y="766" on="1"/>
      </contour>
      <contour>
        <pt x="134" y="911" on="1"/>
        <pt x="50" y="911" on="0"/>
        <pt x="50" y="968" on="1"/>
        <pt x="50" y="988" on="0"/>
        <pt x="65" y="1024" on="1"/>
        <pt x="87" y="1028" on="0"/>
        <pt x="103" y="1028" on="1"/>
        <pt x="187" y="1028" on="0"/>
        <pt x="187" y="971" on="1"/>
        <pt x="187" y="951" on="0"/>
        <pt x="172" y="915" on="1"/>
        <pt x="150" y="911" on="0"/>
      </contour>
      <contour>
        <pt x="344" y="911" on="1"/>
        <pt x="260" y="911" on="0"/>
        <pt x="260" y="968" on="1"/>
        <pt x="260" y="988" on="0"/>
        <pt x="275" y="1024" on="1"/>
        <pt x="297" y="1028" on="0"/>
        <pt x="313" y="1028" on="1"/>
        <pt x="397" y="1028" on="0"/>
        <pt x="397" y="971" on="1"/>
        <pt x="397" y="951" on="0"/>
        <pt x="382" y="915" on="1"/>
        <pt x="360" y="911" on="0"/>
      </contour>
    </TTGlyph>
    <TTGlyph name="Igrave" xMin="91" yMin="-31" xMax="330" yMax="1081">
      <contour>
        <pt x="251" y="748" on="0"/>
        <pt x="257" y="715" on="0"/>
        <pt x="257" y="635" on="0"/>
        <pt x="191" y="183" on="0"/>
        <pt x="191" y="2" on="0"/>
        <pt x="205" y="-31" on="1"/>
        <pt x="143" y="-9" on="0"/>
        <pt x="92" y="66" on="0"/>
        <pt x="92" y="167" on="0"/>
        <pt x="113" y="322" on="1"/>
        <pt x="150" y="579" on="0"/>
        <pt x="150" y="720" on="1"/>
        <pt x="150" y="750" on="0"/>
        <pt x="146" y="802" on="1"/>
        <pt x="222" y="798" on="0"/>
        <pt x="241" y="766" on="1"/>
      </contour>
      <contour>
        <pt x="330" y="881" on="1"/>
        <pt x="329" y="870" on="0"/>
        <pt x="310" y="851" on="0"/>
        <pt x="298" y="848" on="1"/>
        <pt x="262" y="893" on="0"/>
        <pt x="149" y="981" on="0"/>
        <pt x="91" y="999" on="1"/>
        <pt x="93" y="1051" on="0"/>
        <pt x="139" y="1081" on="1"/>
        <pt x="192" y="1060" on="0"/>
        <pt x="305" y="937" on="0"/>
      </contour>
    </TTGlyph>
    <TTGlyph name="J" xMin="-43" yMin="-36" xMax="534" yMax="792">
      <contour>
        <pt x="59" y="71" on="0"/>
        <pt x="97" y="21" on="0"/>
        <pt x="160" y="21" on="0"/>
        <pt x="201" y="40" on="0"/>
        <pt x="229" y="81" on="0"/>
        <pt x="249" y="131" on="0"/>
        <pt x="261" y="208" on="0"/>
        <pt x="268" y="284" on="0"/>
        <pt x="273" y="391" on="0"/>
        <pt x="274" y="438" on="1"/>
        <pt x="279" y="572" on="0"/>
        <pt x="286" y="672" on="1"/>
        <pt x="242" y="670" on="0"/>
        <pt x="230" y="670" on="1"/>
        <pt x="173" y="670" on="0"/>
        <pt x="173" y="728" on="1"/>
        <pt x="173" y="752" on="0"/>
        <pt x="179" y="776" on="1"/>
        <pt x="248" y="760" on="0"/>
        <pt x="429" y="760" on="0"/>
        <pt x="534" y="792" on="1"/>
        <pt x="529" y="744" on="0"/>
        <pt x="464" y="691" on="0"/>
        <pt x="431" y="686" on="1"/>
        <pt x="412" y="682" on="0"/>
        <pt x="396" y="681" on="1"/>
        <pt x="375" y="472" on="0"/>
        <pt x="358" y="216" on="0"/>
        <pt x="316" y="69" on="0"/>
        <pt x="250" y="-6" on="0"/>
        <pt x="179" y="-36" on="0"/>
        <pt x="135" y="-36" on="1"/>
        <pt x="47" y="-36" on="0"/>
        <pt x="-43" y="63" on="0"/>
        <pt x="-43" y="132" on="1"/>
        <pt x="-43" y="180" on="0"/>
        <pt x="14" y="251" on="0"/>
        <pt x="65" y="251" on="1"/>
        <pt x="91" y="251" on="0"/>
        <pt x="114" y="235" on="1"/>
        <pt x="88" y="213" on="0"/>
        <pt x="59" y="143" on="0"/>
      </contour>
    </TTGlyph>
    <TTGlyph name="K" xMin="92" yMin="-33" xMax="641" yMax="802">
      <contour>
        <pt x="251" y="748" on="0"/>
        <pt x="257" y="715" on="0"/>
        <pt x="257" y="635" on="0"/>
        <pt x="232" y="464" on="1"/>
        <pt x="219" y="374" on="1"/>
        <pt x="526" y="625" on="0"/>
        <pt x="599" y="799" on="1"/>
        <pt x="622" y="753" on="0"/>
        <pt x="622" y="638" on="0"/>
        <pt x="504" y="514" on="0"/>
        <pt x="389" y="432" on="1"/>
        <pt x="445" y="257" on="0"/>
        <pt x="555" y="68" on="0"/>
        <pt x="641" y="-23" on="1"/>
        <pt x="621" y="-33" on="0"/>
        <pt x="555" y="-33" on="0"/>
        <pt x="478" y="15" on="0"/>
        <pt x="419" y="87" on="0"/>
        <pt x="389" y="144" on="1"/>
        <pt x="343" y="230" on="0"/>
        <pt x="294" y="365" on="1"/>
        <pt x="289" y="361" on="0"/>
        <pt x="226" y="318" on="0"/>
        <pt x="210" y="306" on="1"/>
        <pt x="191" y="161" on="0"/>
        <pt x="191" y="2" on="0"/>
        <pt x="205" y="-31" on="1"/>
        <pt x="143" y="-9" on="0"/>
        <pt x="92" y="66" on="0"/>
        <pt x="92" y="167" on="0"/>
        <pt x="113" y="322" on="1"/>
        <pt x="150" y="579" on="0"/>
        <pt x="150" y="720" on="1"/>
        <pt x="150" y="750" on="0"/>
        <pt x="146" y="802" on="1"/>
        <pt x="222" y="798" on="0"/>
        <pt x="241" y="766" on="1"/>
      </contour>
    </TTGlyph>
    <TTGlyph name="L" xMin="56" yMin="-8" xMax="540" yMax="802">
      <contour>
        <pt x="110" y="60" on="1"/>
        <pt x="101" y="84" on="0"/>
        <pt x="101" y="170" on="0"/>
        <pt x="159" y="592" on="0"/>
        <pt x="159" y="720" on="1"/>
        <pt x="159" y="750" on="0"/>
        <pt x="155" y="802" on="1"/>
        <pt x="231" y="798" on="0"/>
        <pt x="250" y="766" on="1"/>
        <pt x="260" y="748" on="0"/>
        <pt x="266" y="715" on="0"/>
        <pt x="266" y="644" on="0"/>
        <pt x="201" y="181" on="0"/>
        <pt x="200" y="83" on="1"/>
        <pt x="205" y="84" on="0"/>
        <pt x="218" y="84" on="1"/>
        <pt x="434" y="84" on="0"/>
        <pt x="540" y="114" on="1"/>
        <pt x="533" y="56" on="0"/>
        <pt x="468" y="-8" on="0"/>
        <pt x="419" y="-8" on="1"/>
        <pt x="405" y="-8" on="0"/>
        <pt x="260" y="5" on="0"/>
        <pt x="124" y="5" on="0"/>
        <pt x="56" y="-8" on="1"/>
        <pt x="69" y="36" on="0"/>
      </contour>
    </TTGlyph>
    <TTGlyph name="Lslash" xMin="-5" yMin="-8" xMax="540" yMax="802">
      <contour>
        <pt x="140" y="462" on="1"/>
        <pt x="159" y="622" on="0"/>
        <pt x="159" y="750" on="0"/>
        <pt x="155" y="802" on="1"/>
        <pt x="231" y="798" on="0"/>
        <pt x="250" y="766" on="1"/>
        <pt x="260" y="748" on="0"/>
        <pt x="266" y="715" on="0"/>
        <pt x="266" y="654" on="0"/>
        <pt x="249" y="522" on="1"/>
        <pt x="291" y="542" on="0"/>
        <pt x="340" y="542" on="0"/>
        <pt x="364" y="515" on="0"/>
        <pt x="375" y="488" on="1"/>
        <pt x="325" y="481" on="0"/>
        <pt x="236" y="430" on="1"/>
        <pt x="201" y="184" on="0"/>
        <pt x="200" y="83" on="1"/>
        <pt x="205" y="84" on="0"/>
        <pt x="218" y="84" on="1"/>
        <pt x="434" y="84" on="0"/>
        <pt x="540" y="114" on="1"/>
        <pt x="533" y="56" on="0"/>
        <pt x="468" y="-8" on="0"/>
        <pt x="419" y="-8" on="1"/>
        <pt x="405" y="-8" on="0"/>
        <pt x="260" y="5" on="0"/>
        <pt x="124" y="5" on="0"/>
        <pt x="56" y="-8" on="1"/>
        <pt x="69" y="36" on="0"/>
        <pt x="110" y="60" on="1"/>
        <pt x="101" y="84" on="0"/>
        <pt x="101" y="174" on="0"/>
        <pt x="128" y="369" on="1"/>
        <pt x="82" y="346" on="0"/>
        <pt x="30" y="346" on="0"/>
        <pt x="6" y="374" on="0"/>
        <pt x="-5" y="401" on="1"/>
        <pt x="49" y="408" on="0"/>
      </contour>
    </TTGlyph>
    <TTGlyph name="M" xMin="75" yMin="-31" xMax="842" yMax="803">
      <contour>
        <pt x="794" y="797" on="0"/>
        <pt x="842" y="738" on="0"/>
        <pt x="842" y="635" on="0"/>
        <pt x="776" y="183" on="0"/>
        <pt x="776" y="2" on="0"/>
        <pt x="790" y="-31" on="1"/>
        <pt x="724" y="-9" on="0"/>
        <pt x="673" y="65" on="0"/>
        <pt x="673" y="167" on="0"/>
        <pt x="718" y="495" on="0"/>
        <pt x="725" y="581" on="1"/>
        <pt x="684" y="502" on="0"/>
        <pt x="493" y="212" on="0"/>
        <pt x="478" y="188" on="1"/>
        <pt x="454" y="174" on="0"/>
        <pt x="428" y="174" on="1"/>
        <pt x="381" y="174" on="0"/>
        <pt x="375" y="191" on="1"/>
        <pt x="364" y="219" on="0"/>
        <pt x="317" y="342" on="0"/>
        <pt x="302" y="381" on="1"/>
        <pt x="258" y="491" on="0"/>
        <pt x="223" y="566" on="1"/>
        <pt x="222" y="559" on="0"/>
        <pt x="175" y="188" on="0"/>
        <pt x="175" y="78" on="1"/>
        <pt x="175" y="47" on="0"/>
        <pt x="179" y="-5" on="1"/>
        <pt x="75" y="-5" on="0"/>
        <pt x="75" y="58" on="1"/>
        <pt x="75" y="67" on="0"/>
        <pt x="152" y="592" on="0"/>
        <pt x="152" y="695" on="1"/>
        <pt x="152" y="700" on="1"/>
        <pt x="123" y="747" on="0"/>
        <pt x="91" y="777" on="1"/>
        <pt x="115" y="803" on="0"/>
        <pt x="150" y="803" on="1"/>
        <pt x="218" y="803" on="0"/>
        <pt x="301" y="650" on="0"/>
        <pt x="444" y="273" on="1"/>
        <pt x="447" y="267" on="0"/>
        <pt x="448" y="264" on="1"/>
        <pt x="457" y="278" on="0"/>
        <pt x="537" y="394" on="0"/>
        <pt x="578" y="457" on="0"/>
        <pt x="650" y="574" on="0"/>
        <pt x="670" y="616" on="1"/>
        <pt x="726" y="730" on="0"/>
        <pt x="738" y="802" on="1"/>
      </contour>
    </TTGlyph>
    <TTGlyph name="N" xMin="75" yMin="-21" xMax="746" yMax="802">
      <contour>
        <pt x="185" y="78" on="1"/>
        <pt x="185" y="47" on="0"/>
        <pt x="189" y="-5" on="1"/>
        <pt x="85" y="-5" on="0"/>
        <pt x="85" y="58" on="1"/>
        <pt x="85" y="68" on="0"/>
        <pt x="162" y="592" on="0"/>
        <pt x="162" y="694" on="1"/>
        <pt x="156" y="703" on="1"/>
        <pt x="138" y="730" on="0"/>
        <pt x="105" y="754" on="0"/>
        <pt x="77" y="771" on="0"/>
        <pt x="75" y="773" on="1"/>
        <pt x="116" y="802" on="0"/>
        <pt x="155" y="802" on="1"/>
        <pt x="225" y="802" on="0"/>
        <pt x="265" y="742" on="1"/>
        <pt x="322" y="655" on="0"/>
        <pt x="458" y="375" on="1"/>
        <pt x="546" y="194" on="0"/>
        <pt x="593" y="125" on="1"/>
        <pt x="595" y="187" on="0"/>
        <pt x="647" y="599" on="0"/>
        <pt x="647" y="720" on="1"/>
        <pt x="647" y="751" on="0"/>
        <pt x="643" y="801" on="1"/>
        <pt x="746" y="801" on="0"/>
        <pt x="746" y="740" on="1"/>
        <pt x="746" y="729" on="0"/>
        <pt x="670" y="193" on="0"/>
        <pt x="670" y="90" on="1"/>
        <pt x="670" y="53" on="0"/>
        <pt x="672" y="36" on="1"/>
        <pt x="680" y="29" on="0"/>
        <pt x="698" y="19" on="1"/>
        <pt x="646" y="-21" on="0"/>
        <pt x="558" y="-21" on="0"/>
        <pt x="524" y="38" on="1"/>
        <pt x="507" y="63" on="0"/>
        <pt x="459" y="154" on="1"/>
        <pt x="290" y="477" on="0"/>
        <pt x="234" y="575" on="1"/>
        <pt x="232" y="551" on="0"/>
        <pt x="185" y="189" on="0"/>
      </contour>
    </TTGlyph>
    <TTGlyph name="Ntilde" xMin="75" yMin="-21" xMax="746" yMax="1025">
      <contour>
        <pt x="185" y="78" on="1"/>
        <pt x="185" y="47" on="0"/>
        <pt x="189" y="-5" on="1"/>
        <pt x="85" y="-5" on="0"/>
        <pt x="85" y="58" on="1"/>
        <pt x="85" y="68" on="0"/>
        <pt x="162" y="592" on="0"/>
        <pt x="162" y="694" on="1"/>
        <pt x="156" y="703" on="1"/>
        <pt x="138" y="730" on="0"/>
        <pt x="105" y="754" on="0"/>
        <pt x="77" y="771" on="0"/>
        <pt x="75" y="773" on="1"/>
        <pt x="116" y="802" on="0"/>
        <pt x="155" y="802" on="1"/>
        <pt x="225" y="802" on="0"/>
        <pt x="265" y="742" on="1"/>
        <pt x="322" y="655" on="0"/>
        <pt x="458" y="375" on="1"/>
        <pt x="546" y="194" on="0"/>
        <pt x="593" y="125" on="1"/>
        <pt x="595" y="187" on="0"/>
        <pt x="647" y="599" on="0"/>
        <pt x="647" y="720" on="1"/>
        <pt x="647" y="751" on="0"/>
        <pt x="643" y="801" on="1"/>
        <pt x="746" y="801" on="0"/>
        <pt x="746" y="740" on="1"/>
        <pt x="746" y="729" on="0"/>
        <pt x="670" y="193" on="0"/>
        <pt x="670" y="90" on="1"/>
        <pt x="670" y="53" on="0"/>
        <pt x="672" y="36" on="1"/>
        <pt x="680" y="29" on="0"/>
        <pt x="698" y="19" on="1"/>
        <pt x="646" y="-21" on="0"/>
        <pt x="558" y="-21" on="0"/>
        <pt x="524" y="38" on="1"/>
        <pt x="507" y="63" on="0"/>
        <pt x="459" y="154" on="1"/>
        <pt x="290" y="477" on="0"/>
        <pt x="234" y="575" on="1"/>
        <pt x="232" y="551" on="0"/>
        <pt x="185" y="189" on="0"/>
      </contour>
      <contour>
        <pt x="624" y="954" on="0"/>
        <pt x="573" y="906" on="0"/>
        <pt x="514" y="906" on="0"/>
        <pt x="426" y="935" on="0"/>
        <pt x="409" y="935" on="1"/>
        <pt x="365" y="935" on="0"/>
        <pt x="341" y="901" on="1"/>
        <pt x="320" y="901" on="0"/>
        <pt x="315" y="918" on="1"/>
        <pt x="323" y="972" on="0"/>
        <pt x="374" y="1020" on="0"/>
        <pt x="433" y="1020" on="0"/>
        <pt x="521" y="991" on="0"/>
        <pt x="538" y="991" on="1"/>
        <pt x="582" y="991" on="0"/>
        <pt x="606" y="1025" on="1"/>
        <pt x="627" y="1025" on="0"/>
        <pt x="632" y="1008" on="1"/>
      </contour>
    </TTGlyph>
    <TTGlyph name="O" xMin="65" yMin="-25" xMax="737" yMax="827">
      <contour>
        <pt x="624" y="597" on="0"/>
        <pt x="534" y="731" on="0"/>
        <pt x="380" y="731" on="0"/>
        <pt x="250" y="609" on="0"/>
        <pt x="182" y="426" on="0"/>
        <pt x="182" y="330" on="1"/>
        <pt x="182" y="201" on="0"/>
        <pt x="277" y="35" on="0"/>
        <pt x="372" y="35" on="1"/>
        <pt x="449" y="35" on="0"/>
        <pt x="567" y="161" on="0"/>
        <pt x="624" y="347" on="0"/>
        <pt x="624" y="450" on="1"/>
      </contour>
      <contour>
        <pt x="567" y="35" on="0"/>
        <pt x="438" y="-25" on="0"/>
        <pt x="285" y="-25" on="0"/>
        <pt x="168" y="47" on="0"/>
        <pt x="134" y="107" on="1"/>
        <pt x="65" y="229" on="0"/>
        <pt x="65" y="543" on="0"/>
        <pt x="219" y="788" on="0"/>
        <pt x="342" y="827" on="1"/>
        <pt x="359" y="823" on="0"/>
        <pt x="361" y="811" on="1"/>
        <pt x="291" y="768" on="0"/>
        <pt x="202" y="652" on="0"/>
        <pt x="185" y="553" on="1"/>
        <pt x="227" y="670" on="0"/>
        <pt x="405" y="804" on="0"/>
        <pt x="600" y="804" on="0"/>
        <pt x="737" y="637" on="0"/>
        <pt x="737" y="479" on="1"/>
        <pt x="737" y="325" on="0"/>
        <pt x="682" y="200" on="1"/>
        <pt x="653" y="134" on="0"/>
      </contour>
    </TTGlyph>
    <TTGlyph name="OE" xMin="65" yMin="-25" xMax="1004" yMax="827">
      <contour>
        <pt x="830" y="-11" on="1"/>
        <pt x="681" y="0" on="1"/>
        <pt x="605" y="0" on="0"/>
        <pt x="420" y="-25" on="0"/>
        <pt x="298" y="-25" on="0"/>
        <pt x="199" y="23" on="0"/>
        <pt x="132" y="103" on="0"/>
        <pt x="109" y="156" on="1"/>
        <pt x="65" y="256" on="0"/>
        <pt x="65" y="379" on="1"/>
        <pt x="65" y="544" on="0"/>
        <pt x="217" y="788" on="0"/>
        <pt x="342" y="827" on="1"/>
        <pt x="359" y="824" on="0"/>
        <pt x="361" y="810" on="1"/>
        <pt x="294" y="770" on="0"/>
        <pt x="203" y="653" on="0"/>
        <pt x="185" y="553" on="1"/>
        <pt x="228" y="671" on="0"/>
        <pt x="399" y="799" on="0"/>
        <pt x="502" y="799" on="1"/>
        <pt x="527" y="799" on="0"/>
        <pt x="732" y="775" on="0"/>
        <pt x="908" y="775" on="0"/>
        <pt x="1004" y="794" on="1"/>
        <pt x="998" y="733" on="0"/>
        <pt x="869" y="676" on="0"/>
        <pt x="775" y="676" on="1"/>
        <pt x="739" y="676" on="0"/>
        <pt x="692" y="683" on="1"/>
        <pt x="690" y="650" on="0"/>
        <pt x="661" y="419" on="1"/>
        <pt x="723" y="417" on="0"/>
        <pt x="745" y="417" on="1"/>
        <pt x="835" y="417" on="0"/>
        <pt x="876" y="445" on="1"/>
        <pt x="878" y="423" on="0"/>
        <pt x="878" y="412" on="1"/>
        <pt x="878" y="368" on="0"/>
        <pt x="838" y="339" on="0"/>
        <pt x="801" y="339" on="1"/>
        <pt x="719" y="340" on="1"/>
        <pt x="675" y="340" on="0"/>
        <pt x="651" y="339" on="1"/>
        <pt x="636" y="194" on="0"/>
        <pt x="635" y="83" on="1"/>
        <pt x="860" y="83" on="0"/>
        <pt x="969" y="114" on="1"/>
        <pt x="961" y="42" on="0"/>
        <pt x="891" y="-11" on="0"/>
      </contour>
      <contour>
        <pt x="590" y="705" on="1"/>
        <pt x="542" y="731" on="0"/>
        <pt x="391" y="731" on="0"/>
        <pt x="255" y="609" on="0"/>
        <pt x="182" y="426" on="0"/>
        <pt x="182" y="330" on="1"/>
        <pt x="182" y="201" on="0"/>
        <pt x="282" y="35" on="0"/>
        <pt x="381" y="35" on="1"/>
        <pt x="422" y="35" on="0"/>
        <pt x="503" y="64" on="0"/>
        <pt x="522" y="83" on="1"/>
        <pt x="525" y="116" on="0"/>
        <pt x="585" y="598" on="0"/>
      </contour>
    </TTGlyph>
    <TTGlyph name="Oacute" xMin="65" yMin="-25" xMax="737" yMax="1081">
      <contour>
        <pt x="624" y="597" on="0"/>
        <pt x="534" y="731" on="0"/>
        <pt x="380" y="731" on="0"/>
        <pt x="250" y="609" on="0"/>
        <pt x="182" y="426" on="0"/>
        <pt x="182" y="330" on="1"/>
        <pt x="182" y="201" on="0"/>
        <pt x="277" y="35" on="0"/>
        <pt x="372" y="35" on="1"/>
        <pt x="449" y="35" on="0"/>
        <pt x="567" y="161" on="0"/>
        <pt x="624" y="347" on="0"/>
        <pt x="624" y="450" on="1"/>
      </contour>
      <contour>
        <pt x="567" y="35" on="0"/>
        <pt x="438" y="-25" on="0"/>
        <pt x="285" y="-25" on="0"/>
        <pt x="168" y="47" on="0"/>
        <pt x="134" y="107" on="1"/>
        <pt x="65" y="229" on="0"/>
        <pt x="65" y="543" on="0"/>
        <pt x="219" y="788" on="0"/>
        <pt x="342" y="827" on="1"/>
        <pt x="359" y="823" on="0"/>
        <pt x="361" y="811" on="1"/>
        <pt x="291" y="768" on="0"/>
        <pt x="202" y="652" on="0"/>
        <pt x="185" y="553" on="1"/>
        <pt x="227" y="670" on="0"/>
        <pt x="405" y="804" on="0"/>
        <pt x="600" y="804" on="0"/>
        <pt x="737" y="637" on="0"/>
        <pt x="737" y="479" on="1"/>
        <pt x="737" y="325" on="0"/>
        <pt x="682" y="200" on="1"/>
        <pt x="653" y="134" on="0"/>
      </contour>
      <contour>
        <pt x="391" y="881" on="1"/>
        <pt x="416" y="937" on="0"/>
        <pt x="529" y="1060" on="0"/>
        <pt x="582" y="1081" on="1"/>
        <pt x="628" y="1051" on="0"/>
        <pt x="630" y="999" on="1"/>
        <pt x="572" y="981" on="0"/>
        <pt x="459" y="893" on="0"/>
        <pt x="423" y="848" on="1"/>
        <pt x="411" y="851" on="0"/>
        <pt x="392" y="870" on="0"/>
      </contour>
    </TTGlyph>
    <TTGlyph name="Ocircumflex" xMin="65" yMin="-25" xMax="737" yMax="1082">
      <contour>
        <pt x="624" y="597" on="0"/>
        <pt x="534" y="731" on="0"/>
        <pt x="380" y="731" on="0"/>
        <pt x="250" y="609" on="0"/>
        <pt x="182" y="426" on="0"/>
        <pt x="182" y="330" on="1"/>
        <pt x="182" y="201" on="0"/>
        <pt x="277" y="35" on="0"/>
        <pt x="372" y="35" on="1"/>
        <pt x="449" y="35" on="0"/>
        <pt x="567" y="161" on="0"/>
        <pt x="624" y="347" on="0"/>
        <pt x="624" y="450" on="1"/>
      </contour>
      <contour>
        <pt x="567" y="35" on="0"/>
        <pt x="438" y="-25" on="0"/>
        <pt x="285" y="-25" on="0"/>
        <pt x="168" y="47" on="0"/>
        <pt x="134" y="107" on="1"/>
        <pt x="65" y="229" on="0"/>
        <pt x="65" y="543" on="0"/>
        <pt x="219" y="788" on="0"/>
        <pt x="342" y="827" on="1"/>
        <pt x="359" y="823" on="0"/>
        <pt x="361" y="811" on="1"/>
        <pt x="291" y="768" on="0"/>
        <pt x="202" y="652" on="0"/>
        <pt x="185" y="553" on="1"/>
        <pt x="227" y="670" on="0"/>
        <pt x="405" y="804" on="0"/>
        <pt x="600" y="804" on="0"/>
        <pt x="737" y="637" on="0"/>
        <pt x="737" y="479" on="1"/>
        <pt x="737" y="325" on="0"/>
        <pt x="682" y="200" on="1"/>
        <pt x="653" y="134" on="0"/>
      </contour>
      <contour>
        <pt x="679" y="881" on="1"/>
        <pt x="655" y="870" on="0"/>
        <pt x="587" y="870" on="0"/>
        <pt x="548" y="924" on="0"/>
        <pt x="533" y="1001" on="1"/>
        <pt x="482" y="908" on="0"/>
        <pt x="400" y="854" on="1"/>
        <pt x="362" y="884" on="0"/>
        <pt x="361" y="930" on="1"/>
        <pt x="430" y="975" on="0"/>
        <pt x="477" y="1019" on="0"/>
        <pt x="493" y="1035" on="0"/>
        <pt x="528" y="1078" on="0"/>
        <pt x="532" y="1082" on="1"/>
        <pt x="592" y="1082" on="0"/>
        <pt x="601" y="1021" on="1"/>
        <pt x="605" y="995" on="0"/>
        <pt x="643" y="915" on="0"/>
      </contour>
    </TTGlyph>
    <TTGlyph name="Odieresis" xMin="65" yMin="-25" xMax="737" yMax="1028">
      <contour>
        <pt x="624" y="597" on="0"/>
        <pt x="534" y="731" on="0"/>
        <pt x="380" y="731" on="0"/>
        <pt x="250" y="609" on="0"/>
        <pt x="182" y="426" on="0"/>
        <pt x="182" y="330" on="1"/>
        <pt x="182" y="201" on="0"/>
        <pt x="277" y="35" on="0"/>
        <pt x="372" y="35" on="1"/>
        <pt x="449" y="35" on="0"/>
        <pt x="567" y="161" on="0"/>
        <pt x="624" y="347" on="0"/>
        <pt x="624" y="450" on="1"/>
      </contour>
      <contour>
        <pt x="567" y="35" on="0"/>
        <pt x="438" y="-25" on="0"/>
        <pt x="285" y="-25" on="0"/>
        <pt x="168" y="47" on="0"/>
        <pt x="134" y="107" on="1"/>
        <pt x="65" y="229" on="0"/>
        <pt x="65" y="543" on="0"/>
        <pt x="219" y="788" on="0"/>
        <pt x="342" y="827" on="1"/>
        <pt x="359" y="823" on="0"/>
        <pt x="361" y="811" on="1"/>
        <pt x="291" y="768" on="0"/>
        <pt x="202" y="652" on="0"/>
        <pt x="185" y="553" on="1"/>
        <pt x="227" y="670" on="0"/>
        <pt x="405" y="804" on="0"/>
        <pt x="600" y="804" on="0"/>
        <pt x="737" y="637" on="0"/>
        <pt x="737" y="479" on="1"/>
        <pt x="737" y="325" on="0"/>
        <pt x="682" y="200" on="1"/>
        <pt x="653" y="134" on="0"/>
      </contour>
      <contour>
        <pt x="426" y="911" on="1"/>
        <pt x="342" y="911" on="0"/>
        <pt x="342" y="968" on="1"/>
        <pt x="342" y="988" on="0"/>
        <pt x="357" y="1024" on="1"/>
        <pt x="379" y="1028" on="0"/>
        <pt x="395" y="1028" on="1"/>
        <pt x="479" y="1028" on="0"/>
        <pt x="479" y="971" on="1"/>
        <pt x="479" y="951" on="0"/>
        <pt x="464" y="915" on="1"/>
        <pt x="442" y="911" on="0"/>
      </contour>
      <contour>
        <pt x="636" y="911" on="1"/>
        <pt x="552" y="911" on="0"/>
        <pt x="552" y="968" on="1"/>
        <pt x="552" y="988" on="0"/>
        <pt x="567" y="1024" on="1"/>
        <pt x="589" y="1028" on="0"/>
        <pt x="605" y="1028" on="1"/>
        <pt x="689" y="1028" on="0"/>
        <pt x="689" y="971" on="1"/>
        <pt x="689" y="951" on="0"/>
        <pt x="674" y="915" on="1"/>
        <pt x="652" y="911" on="0"/>
      </contour>
    </TTGlyph>
    <TTGlyph name="Ograve" xMin="65" yMin="-25" xMax="737" yMax="1081">
      <contour>
        <pt x="624" y="597" on="0"/>
        <pt x="534" y="731" on="0"/>
        <pt x="380" y="731" on="0"/>
        <pt x="250" y="609" on="0"/>
        <pt x="182" y="426" on="0"/>
        <pt x="182" y="330" on="1"/>
        <pt x="182" y="201" on="0"/>
        <pt x="277" y="35" on="0"/>
        <pt x="372" y="35" on="1"/>
        <pt x="449" y="35" on="0"/>
        <pt x="567" y="161" on="0"/>
        <pt x="624" y="347" on="0"/>
        <pt x="624" y="450" on="1"/>
      </contour>
      <contour>
        <pt x="567" y="35" on="0"/>
        <pt x="438" y="-25" on="0"/>
        <pt x="285" y="-25" on="0"/>
        <pt x="168" y="47" on="0"/>
        <pt x="134" y="107" on="1"/>
        <pt x="65" y="229" on="0"/>
        <pt x="65" y="543" on="0"/>
        <pt x="219" y="788" on="0"/>
        <pt x="342" y="827" on="1"/>
        <pt x="359" y="823" on="0"/>
        <pt x="361" y="811" on="1"/>
        <pt x="291" y="768" on="0"/>
        <pt x="202" y="652" on="0"/>
        <pt x="185" y="553" on="1"/>
        <pt x="227" y="670" on="0"/>
        <pt x="405" y="804" on="0"/>
        <pt x="600" y="804" on="0"/>
        <pt x="737" y="637" on="0"/>
        <pt x="737" y="479" on="1"/>
        <pt x="737" y="325" on="0"/>
        <pt x="682" y="200" on="1"/>
        <pt x="653" y="134" on="0"/>
      </contour>
      <contour>
        <pt x="581" y="881" on="1"/>
        <pt x="580" y="870" on="0"/>
        <pt x="561" y="851" on="0"/>
        <pt x="549" y="848" on="1"/>
        <pt x="513" y="893" on="0"/>
        <pt x="400" y="981" on="0"/>
        <pt x="342" y="999" on="1"/>
        <pt x="344" y="1051" on="0"/>
        <pt x="390" y="1081" on="1"/>
        <pt x="443" y="1060" on="0"/>
        <pt x="556" y="937" on="0"/>
      </contour>
    </TTGlyph>
    <TTGlyph name="Omega" xMin="50" yMin="-11" xMax="725" yMax="720">
      <contour>
        <pt x="51" y="-11" on="1"/>
        <pt x="50" y="11" on="1"/>
        <pt x="50" y="59" on="0"/>
        <pt x="72" y="106" on="0"/>
        <pt x="133" y="106" on="0"/>
        <pt x="208" y="94" on="0"/>
        <pt x="261" y="94" on="0"/>
        <pt x="284" y="98" on="1"/>
        <pt x="286" y="139" on="1"/>
        <pt x="223" y="151" on="0"/>
        <pt x="169" y="209" on="1"/>
        <pt x="142" y="238" on="0"/>
        <pt x="109" y="331" on="0"/>
        <pt x="109" y="388" on="1"/>
        <pt x="109" y="515" on="0"/>
        <pt x="252" y="686" on="0"/>
        <pt x="380" y="720" on="1"/>
        <pt x="410" y="720" on="0"/>
        <pt x="412" y="684" on="1"/>
        <pt x="468" y="700" on="0"/>
        <pt x="518" y="700" on="1"/>
        <pt x="604" y="700" on="0"/>
        <pt x="725" y="567" on="0"/>
        <pt x="725" y="331" on="0"/>
        <pt x="584" y="162" on="0"/>
        <pt x="466" y="138" on="1"/>
        <pt x="465" y="98" on="1"/>
        <pt x="486" y="94" on="0"/>
        <pt x="538" y="94" on="0"/>
        <pt x="611" y="106" on="0"/>
        <pt x="669" y="106" on="0"/>
        <pt x="691" y="59" on="0"/>
        <pt x="691" y="11" on="1"/>
        <pt x="691" y="8" on="0"/>
        <pt x="690" y="-7" on="0"/>
        <pt x="690" y="-11" on="1"/>
        <pt x="649" y="0" on="0"/>
        <pt x="620" y="0" on="1"/>
        <pt x="497" y="0" on="1"/>
        <pt x="454" y="0" on="0"/>
        <pt x="427" y="13" on="0"/>
        <pt x="420" y="39" on="0"/>
        <pt x="420" y="96" on="0"/>
        <pt x="429" y="179" on="1"/>
        <pt x="499" y="186" on="0"/>
        <pt x="609" y="337" on="0"/>
        <pt x="609" y="540" on="0"/>
        <pt x="527" y="641" on="0"/>
        <pt x="452" y="641" on="1"/>
        <pt x="355" y="641" on="0"/>
        <pt x="220" y="494" on="0"/>
        <pt x="220" y="377" on="1"/>
        <pt x="220" y="298" on="0"/>
        <pt x="279" y="200" on="0"/>
        <pt x="332" y="184" on="1"/>
        <pt x="326" y="92" on="0"/>
        <pt x="312" y="40" on="1"/>
        <pt x="304" y="8" on="0"/>
        <pt x="268" y="2" on="1"/>
        <pt x="256" y="0" on="0"/>
        <pt x="227" y="0" on="1"/>
        <pt x="121" y="0" on="1"/>
        <pt x="92" y="0" on="0"/>
      </contour>
    </TTGlyph>
    <TTGlyph name="Oslash" xMin="65" yMin="-120" xMax="737" yMax="930">
      <contour>
        <pt x="498" y="804" on="1"/>
        <pt x="516" y="803" on="1"/>
        <pt x="544" y="881" on="0"/>
        <pt x="553" y="930" on="1"/>
        <pt x="558" y="926" on="0"/>
        <pt x="575" y="911" on="0"/>
        <pt x="602" y="858" on="0"/>
        <pt x="602" y="818" on="0"/>
        <pt x="593" y="782" on="1"/>
        <pt x="659" y="750" on="0"/>
        <pt x="737" y="596" on="0"/>
        <pt x="737" y="479" on="1"/>
        <pt x="737" y="325" on="0"/>
        <pt x="682" y="200" on="1"/>
        <pt x="653" y="134" on="0"/>
        <pt x="567" y="35" on="0"/>
        <pt x="438" y="-25" on="0"/>
        <pt x="359" y="-25" on="1"/>
        <pt x="327" y="-25" on="0"/>
        <pt x="295" y="-17" on="1"/>
        <pt x="280" y="-71" on="0"/>
        <pt x="273" y="-120" on="1"/>
        <pt x="265" y="-120" on="0"/>
        <pt x="229" y="-104" on="0"/>
        <pt x="207" y="-86" on="0"/>
        <pt x="189" y="-48" on="0"/>
        <pt x="189" y="-8" on="0"/>
        <pt x="200" y="30" on="1"/>
        <pt x="133" y="84" on="0"/>
        <pt x="65" y="274" on="0"/>
        <pt x="65" y="379" on="1"/>
        <pt x="65" y="543" on="0"/>
        <pt x="219" y="788" on="0"/>
        <pt x="342" y="827" on="1"/>
        <pt x="359" y="823" on="0"/>
        <pt x="361" y="811" on="1"/>
        <pt x="291" y="768" on="0"/>
        <pt x="202" y="652" on="0"/>
        <pt x="185" y="553" on="1"/>
        <pt x="227" y="670" on="0"/>
        <pt x="405" y="804" on="0"/>
      </contour>
      <contour>
        <pt x="624" y="450" on="1"/>
        <pt x="624" y="617" on="0"/>
        <pt x="561" y="687" on="1"/>
        <pt x="552" y="662" on="0"/>
        <pt x="352" y="164" on="0"/>
        <pt x="314" y="44" on="1"/>
        <pt x="341" y="35" on="0"/>
        <pt x="372" y="35" on="1"/>
        <pt x="449" y="35" on="0"/>
        <pt x="567" y="161" on="0"/>
        <pt x="624" y="347" on="0"/>
      </contour>
      <contour>
        <pt x="458" y="731" on="1"/>
        <pt x="380" y="731" on="0"/>
        <pt x="250" y="609" on="0"/>
        <pt x="182" y="426" on="0"/>
        <pt x="182" y="330" on="1"/>
        <pt x="182" y="193" on="0"/>
        <pt x="231" y="115" on="1"/>
        <pt x="261" y="192" on="0"/>
        <pt x="450" y="627" on="0"/>
        <pt x="489" y="728" on="1"/>
        <pt x="474" y="731" on="0"/>
      </contour>
    </TTGlyph>
    <TTGlyph name="Otilde" xMin="65" yMin="-25" xMax="737" yMax="1025">
      <contour>
        <pt x="624" y="597" on="0"/>
        <pt x="534" y="731" on="0"/>
        <pt x="380" y="731" on="0"/>
        <pt x="250" y="609" on="0"/>
        <pt x="182" y="426" on="0"/>
        <pt x="182" y="330" on="1"/>
        <pt x="182" y="201" on="0"/>
        <pt x="277" y="35" on="0"/>
        <pt x="372" y="35" on="1"/>
        <pt x="449" y="35" on="0"/>
        <pt x="567" y="161" on="0"/>
        <pt x="624" y="347" on="0"/>
        <pt x="624" y="450" on="1"/>
      </contour>
      <contour>
        <pt x="567" y="35" on="0"/>
        <pt x="438" y="-25" on="0"/>
        <pt x="285" y="-25" on="0"/>
        <pt x="168" y="47" on="0"/>
        <pt x="134" y="107" on="1"/>
        <pt x="65" y="229" on="0"/>
        <pt x="65" y="543" on="0"/>
        <pt x="219" y="788" on="0"/>
        <pt x="342" y="827" on="1"/>
        <pt x="359" y="823" on="0"/>
        <pt x="361" y="811" on="1"/>
        <pt x="291" y="768" on="0"/>
        <pt x="202" y="652" on="0"/>
        <pt x="185" y="553" on="1"/>
        <pt x="227" y="670" on="0"/>
        <pt x="405" y="804" on="0"/>
        <pt x="600" y="804" on="0"/>
        <pt x="737" y="637" on="0"/>
        <pt x="737" y="479" on="1"/>
        <pt x="737" y="325" on="0"/>
        <pt x="682" y="200" on="1"/>
        <pt x="653" y="134" on="0"/>
      </contour>
      <contour>
        <pt x="669" y="954" on="0"/>
        <pt x="618" y="906" on="0"/>
        <pt x="559" y="906" on="0"/>
        <pt x="471" y="935" on="0"/>
        <pt x="454" y="935" on="1"/>
        <pt x="410" y="935" on="0"/>
        <pt x="386" y="901" on="1"/>
        <pt x="365" y="901" on="0"/>
        <pt x="360" y="918" on="1"/>
        <pt x="368" y="972" on="0"/>
        <pt x="419" y="1020" on="0"/>
        <pt x="478" y="1020" on="0"/>
        <pt x="566" y="991" on="0"/>
        <pt x="583" y="991" on="1"/>
        <pt x="627" y="991" on="0"/>
        <pt x="651" y="1025" on="1"/>
        <pt x="672" y="1025" on="0"/>
        <pt x="677" y="1008" on="1"/>
      </contour>
    </TTGlyph>
    <TTGlyph name="P" xMin="97" yMin="-17" xMax="621" yMax="826">
      <contour>
        <pt x="262" y="695" on="1"/>
        <pt x="263" y="683" on="1"/>
        <pt x="263" y="645" on="0"/>
        <pt x="206" y="224" on="0"/>
        <pt x="206" y="83" on="1"/>
        <pt x="206" y="20" on="0"/>
        <pt x="212" y="-15" on="1"/>
        <pt x="188" y="-17" on="0"/>
        <pt x="186" y="-17" on="1"/>
        <pt x="141" y="-17" on="0"/>
        <pt x="97" y="24" on="0"/>
        <pt x="97" y="117" on="0"/>
        <pt x="164" y="592" on="0"/>
        <pt x="164" y="795" on="0"/>
        <pt x="150" y="826" on="1"/>
        <pt x="182" y="822" on="0"/>
        <pt x="237" y="781" on="0"/>
        <pt x="251" y="747" on="1"/>
        <pt x="327" y="788" on="0"/>
        <pt x="514" y="788" on="0"/>
        <pt x="621" y="673" on="0"/>
        <pt x="621" y="589" on="1"/>
        <pt x="621" y="482" on="0"/>
        <pt x="465" y="311" on="0"/>
        <pt x="333" y="311" on="1"/>
        <pt x="303" y="311" on="0"/>
        <pt x="278" y="315" on="1"/>
        <pt x="275" y="347" on="1"/>
        <pt x="342" y="347" on="0"/>
        <pt x="442" y="387" on="0"/>
        <pt x="468" y="420" on="1"/>
        <pt x="519" y="484" on="0"/>
        <pt x="519" y="570" on="1"/>
        <pt x="519" y="632" on="0"/>
        <pt x="440" y="715" on="0"/>
        <pt x="365" y="715" on="1"/>
        <pt x="320" y="715" on="0"/>
      </contour>
    </TTGlyph>
    <TTGlyph name="Q" xMin="78" yMin="-312" xMax="774" yMax="800">
      <contour>
        <pt x="634" y="566" on="0"/>
        <pt x="538" y="732" on="0"/>
        <pt x="442" y="732" on="1"/>
        <pt x="371" y="732" on="0"/>
        <pt x="249" y="614" on="0"/>
        <pt x="182" y="434" on="0"/>
        <pt x="182" y="341" on="1"/>
        <pt x="182" y="143" on="0"/>
        <pt x="285" y="143" on="1"/>
        <pt x="379" y="143" on="0"/>
        <pt x="379" y="259" on="1"/>
        <pt x="379" y="295" on="0"/>
        <pt x="354" y="354" on="0"/>
        <pt x="342" y="366" on="1"/>
        <pt x="329" y="377" on="1"/>
        <pt x="354" y="389" on="0"/>
        <pt x="423" y="389" on="0"/>
        <pt x="488" y="335" on="0"/>
        <pt x="488" y="279" on="1"/>
        <pt x="488" y="183" on="0"/>
        <pt x="371" y="79" on="0"/>
        <pt x="208" y="79" on="0"/>
        <pt x="82" y="215" on="0"/>
        <pt x="82" y="346" on="1"/>
        <pt x="82" y="473" on="0"/>
        <pt x="142" y="588" on="1"/>
        <pt x="173" y="648" on="0"/>
        <pt x="264" y="742" on="0"/>
        <pt x="404" y="800" on="0"/>
        <pt x="487" y="800" on="1"/>
        <pt x="592" y="800" on="0"/>
        <pt x="737" y="632" on="0"/>
        <pt x="737" y="475" on="1"/>
        <pt x="737" y="333" on="0"/>
        <pt x="680" y="213" on="1"/>
        <pt x="649" y="146" on="0"/>
        <pt x="552" y="36" on="0"/>
        <pt x="396" y="-54" on="0"/>
        <pt x="297" y="-77" on="1"/>
        <pt x="315" y="-83" on="0"/>
        <pt x="429" y="-126" on="0"/>
        <pt x="477" y="-144" on="0"/>
        <pt x="579" y="-177" on="0"/>
        <pt x="612" y="-185" on="1"/>
        <pt x="700" y="-206" on="0"/>
        <pt x="774" y="-210" on="1"/>
        <pt x="753" y="-259" on="0"/>
        <pt x="688" y="-312" on="0"/>
        <pt x="613" y="-312" on="0"/>
        <pt x="313" y="-163" on="0"/>
        <pt x="257" y="-144" on="1"/>
        <pt x="148" y="-106" on="0"/>
        <pt x="78" y="-104" on="1"/>
        <pt x="119" y="-46" on="0"/>
        <pt x="187" y="-46" on="1"/>
        <pt x="288" y="-35" on="0"/>
        <pt x="448" y="39" on="0"/>
        <pt x="546" y="138" on="0"/>
        <pt x="578" y="200" on="1"/>
        <pt x="634" y="310" on="0"/>
      </contour>
    </TTGlyph>
    <TTGlyph name="R" xMin="92" yMin="-48" xMax="658" yMax="826">
      <contour>
        <pt x="136" y="-17" on="0"/>
        <pt x="92" y="24" on="0"/>
        <pt x="92" y="117" on="0"/>
        <pt x="159" y="592" on="0"/>
        <pt x="159" y="795" on="0"/>
        <pt x="145" y="826" on="1"/>
        <pt x="225" y="818" on="0"/>
        <pt x="249" y="747" on="1"/>
        <pt x="323" y="787" on="0"/>
        <pt x="499" y="787" on="0"/>
        <pt x="609" y="674" on="0"/>
        <pt x="609" y="525" on="0"/>
        <pt x="520" y="398" on="0"/>
        <pt x="429" y="368" on="1"/>
        <pt x="443" y="325" on="1"/>
        <pt x="479" y="216" on="0"/>
        <pt x="615" y="1" on="0"/>
        <pt x="658" y="-38" on="1"/>
        <pt x="637" y="-48" on="0"/>
        <pt x="558" y="-48" on="0"/>
        <pt x="473" y="22" on="0"/>
        <pt x="438" y="86" on="1"/>
        <pt x="378" y="198" on="0"/>
        <pt x="330" y="348" on="1"/>
        <pt x="294" y="346" on="0"/>
        <pt x="275" y="346" on="1"/>
        <pt x="272" y="382" on="1"/>
        <pt x="384" y="386" on="0"/>
        <pt x="507" y="508" on="0"/>
        <pt x="507" y="591" on="1"/>
        <pt x="507" y="644" on="0"/>
        <pt x="436" y="714" on="0"/>
        <pt x="316" y="714" on="0"/>
        <pt x="258" y="693" on="1"/>
        <pt x="258" y="654" on="0"/>
        <pt x="201" y="226" on="0"/>
        <pt x="201" y="83" on="1"/>
        <pt x="201" y="20" on="0"/>
        <pt x="207" y="-15" on="1"/>
        <pt x="183" y="-17" on="0"/>
        <pt x="181" y="-17" on="1"/>
      </contour>
    </TTGlyph>
    <TTGlyph name="S" xMin="43" yMin="-25" xMax="565" yMax="812">
      <contour>
        <pt x="272" y="496" on="1"/>
        <pt x="302" y="469" on="0"/>
        <pt x="375" y="416" on="0"/>
        <pt x="448" y="362" on="0"/>
        <pt x="478" y="334" on="1"/>
        <pt x="546" y="271" on="0"/>
        <pt x="546" y="195" on="1"/>
        <pt x="546" y="101" on="0"/>
        <pt x="403" y="-25" on="0"/>
        <pt x="169" y="-25" on="0"/>
        <pt x="43" y="81" on="0"/>
        <pt x="43" y="154" on="1"/>
        <pt x="43" y="208" on="0"/>
        <pt x="107" y="275" on="0"/>
        <pt x="158" y="275" on="1"/>
        <pt x="172" y="275" on="0"/>
        <pt x="185" y="271" on="1"/>
        <pt x="154" y="224" on="0"/>
        <pt x="154" y="117" on="0"/>
        <pt x="228" y="41" on="0"/>
        <pt x="302" y="41" on="1"/>
        <pt x="355" y="41" on="0"/>
        <pt x="438" y="106" on="0"/>
        <pt x="438" y="164" on="1"/>
        <pt x="438" y="202" on="0"/>
        <pt x="388" y="275" on="0"/>
        <pt x="314" y="331" on="0"/>
        <pt x="226" y="400" on="0"/>
        <pt x="152" y="464" on="0"/>
        <pt x="102" y="556" on="0"/>
        <pt x="102" y="606" on="1"/>
        <pt x="102" y="701" on="0"/>
        <pt x="231" y="812" on="0"/>
        <pt x="353" y="812" on="1"/>
        <pt x="452" y="812" on="0"/>
        <pt x="565" y="707" on="0"/>
        <pt x="565" y="594" on="0"/>
        <pt x="504" y="522" on="0"/>
        <pt x="451" y="522" on="1"/>
        <pt x="433" y="522" on="0"/>
        <pt x="416" y="526" on="1"/>
        <pt x="465" y="578" on="0"/>
        <pt x="465" y="694" on="0"/>
        <pt x="393" y="753" on="0"/>
        <pt x="282" y="753" on="0"/>
        <pt x="204" y="689" on="0"/>
        <pt x="204" y="559" on="0"/>
      </contour>
    </TTGlyph>
    <TTGlyph name="Scaron" xMin="43" yMin="-25" xMax="565" yMax="1082">
      <contour>
        <pt x="272" y="496" on="1"/>
        <pt x="302" y="469" on="0"/>
        <pt x="375" y="416" on="0"/>
        <pt x="448" y="362" on="0"/>
        <pt x="478" y="334" on="1"/>
        <pt x="546" y="271" on="0"/>
        <pt x="546" y="195" on="1"/>
        <pt x="546" y="101" on="0"/>
        <pt x="403" y="-25" on="0"/>
        <pt x="169" y="-25" on="0"/>
        <pt x="43" y="81" on="0"/>
        <pt x="43" y="154" on="1"/>
        <pt x="43" y="208" on="0"/>
        <pt x="107" y="275" on="0"/>
        <pt x="158" y="275" on="1"/>
        <pt x="172" y="275" on="0"/>
        <pt x="185" y="271" on="1"/>
        <pt x="154" y="224" on="0"/>
        <pt x="154" y="117" on="0"/>
        <pt x="228" y="41" on="0"/>
        <pt x="302" y="41" on="1"/>
        <pt x="355" y="41" on="0"/>
        <pt x="438" y="106" on="0"/>
        <pt x="438" y="164" on="1"/>
        <pt x="438" y="202" on="0"/>
        <pt x="388" y="275" on="0"/>
        <pt x="314" y="331" on="0"/>
        <pt x="226" y="400" on="0"/>
        <pt x="152" y="464" on="0"/>
        <pt x="102" y="556" on="0"/>
        <pt x="102" y="606" on="1"/>
        <pt x="102" y="701" on="0"/>
        <pt x="231" y="812" on="0"/>
        <pt x="353" y="812" on="1"/>
        <pt x="452" y="812" on="0"/>
        <pt x="565" y="707" on="0"/>
        <pt x="565" y="594" on="0"/>
        <pt x="504" y="522" on="0"/>
        <pt x="451" y="522" on="1"/>
        <pt x="433" y="522" on="0"/>
        <pt x="416" y="526" on="1"/>
        <pt x="465" y="578" on="0"/>
        <pt x="465" y="694" on="0"/>
        <pt x="393" y="753" on="0"/>
        <pt x="282" y="753" on="0"/>
        <pt x="204" y="689" on="0"/>
        <pt x="204" y="559" on="0"/>
      </contour>
      <contour>
        <pt x="239" y="1055" on="1"/>
        <pt x="263" y="1066" on="0"/>
        <pt x="331" y="1066" on="0"/>
        <pt x="370" y="1012" on="0"/>
        <pt x="385" y="935" on="1"/>
        <pt x="436" y="1028" on="0"/>
        <pt x="518" y="1082" on="1"/>
        <pt x="556" y="1052" on="0"/>
        <pt x="557" y="1006" on="1"/>
        <pt x="488" y="961" on="0"/>
        <pt x="441" y="917" on="0"/>
        <pt x="425" y="901" on="0"/>
        <pt x="390" y="858" on="0"/>
        <pt x="386" y="854" on="1"/>
        <pt x="326" y="854" on="0"/>
        <pt x="317" y="915" on="1"/>
        <pt x="313" y="941" on="0"/>
        <pt x="275" y="1021" on="0"/>
      </contour>
    </TTGlyph>
    <TTGlyph name="T" xMin="49" yMin="-31" xMax="574" yMax="785">
      <contour>
        <pt x="49" y="729" on="1"/>
        <pt x="49" y="751" on="0"/>
        <pt x="56" y="772" on="1"/>
        <pt x="161" y="759" on="0"/>
        <pt x="431" y="759" on="0"/>
        <pt x="574" y="785" on="1"/>
        <pt x="560" y="692" on="0"/>
        <pt x="458" y="684" on="1"/>
        <pt x="405" y="679" on="0"/>
        <pt x="351" y="676" on="1"/>
        <pt x="350" y="637" on="0"/>
        <pt x="285" y="175" on="0"/>
        <pt x="285" y="2" on="0"/>
        <pt x="299" y="-31" on="1"/>
        <pt x="237" y="-9" on="0"/>
        <pt x="186" y="66" on="0"/>
        <pt x="186" y="171" on="0"/>
        <pt x="239" y="554" on="0"/>
        <pt x="243" y="671" on="1"/>
        <pt x="156" y="668" on="0"/>
        <pt x="93" y="668" on="1"/>
        <pt x="49" y="668" on="0"/>
      </contour>
    </TTGlyph>
    <TTGlyph name="Thorn" xMin="97" yMin="-17" xMax="612" yMax="826">
      <contour>
        <pt x="141" y="-17" on="0"/>
        <pt x="97" y="24" on="0"/>
        <pt x="97" y="117" on="0"/>
        <pt x="164" y="592" on="0"/>
        <pt x="164" y="795" on="0"/>
        <pt x="150" y="826" on="1"/>
        <pt x="197" y="820" on="0"/>
        <pt x="263" y="744" on="0"/>
        <pt x="263" y="683" on="1"/>
        <pt x="263" y="657" on="0"/>
        <pt x="258" y="610" on="1"/>
        <pt x="330" y="643" on="0"/>
        <pt x="405" y="643" on="1"/>
        <pt x="505" y="643" on="0"/>
        <pt x="612" y="528" on="0"/>
        <pt x="612" y="444" on="1"/>
        <pt x="612" y="337" on="0"/>
        <pt x="456" y="166" on="0"/>
        <pt x="324" y="166" on="1"/>
        <pt x="294" y="166" on="0"/>
        <pt x="269" y="170" on="1"/>
        <pt x="266" y="202" on="1"/>
        <pt x="333" y="202" on="0"/>
        <pt x="433" y="242" on="0"/>
        <pt x="460" y="276" on="1"/>
        <pt x="510" y="339" on="0"/>
        <pt x="510" y="425" on="1"/>
        <pt x="510" y="487" on="0"/>
        <pt x="431" y="570" on="0"/>
        <pt x="356" y="570" on="1"/>
        <pt x="308" y="570" on="0"/>
        <pt x="250" y="549" on="1"/>
        <pt x="249" y="539" on="0"/>
        <pt x="234" y="431" on="0"/>
        <pt x="228" y="387" on="0"/>
        <pt x="216" y="284" on="0"/>
        <pt x="214" y="250" on="1"/>
        <pt x="206" y="150" on="0"/>
        <pt x="206" y="20" on="0"/>
        <pt x="212" y="-15" on="1"/>
        <pt x="188" y="-17" on="0"/>
        <pt x="186" y="-17" on="1"/>
      </contour>
    </TTGlyph>
    <TTGlyph name="U" xMin="87" yMin="-31" xMax="668" yMax="802">
      <contour>
        <pt x="662" y="748" on="0"/>
        <pt x="668" y="715" on="0"/>
        <pt x="668" y="635" on="0"/>
        <pt x="602" y="183" on="0"/>
        <pt x="602" y="2" on="0"/>
        <pt x="616" y="-31" on="1"/>
        <pt x="554" y="-9" on="0"/>
        <pt x="503" y="66" on="0"/>
        <pt x="503" y="129" on="1"/>
        <pt x="503" y="160" on="0"/>
        <pt x="505" y="179" on="1"/>
        <pt x="420" y="-20" on="0"/>
        <pt x="254" y="-20" on="1"/>
        <pt x="171" y="-20" on="0"/>
        <pt x="87" y="95" on="0"/>
        <pt x="87" y="220" on="1"/>
        <pt x="87" y="291" on="0"/>
        <pt x="132" y="661" on="0"/>
        <pt x="132" y="772" on="0"/>
        <pt x="121" y="802" on="1"/>
        <pt x="181" y="780" on="0"/>
        <pt x="233" y="710" on="0"/>
        <pt x="233" y="587" on="0"/>
        <pt x="190" y="314" on="0"/>
        <pt x="190" y="138" on="0"/>
        <pt x="246" y="62" on="0"/>
        <pt x="298" y="62" on="1"/>
        <pt x="352" y="62" on="0"/>
        <pt x="404" y="108" on="1"/>
        <pt x="470" y="167" on="0"/>
        <pt x="510" y="300" on="1"/>
        <pt x="533" y="376" on="0"/>
        <pt x="545" y="474" on="1"/>
        <pt x="545" y="477" on="0"/>
        <pt x="550" y="477" on="0"/>
        <pt x="571" y="451" on="0"/>
        <pt x="573" y="451" on="1"/>
        <pt x="564" y="388" on="1"/>
        <pt x="541" y="263" on="0"/>
        <pt x="505" y="179" on="1"/>
        <pt x="509" y="219" on="0"/>
        <pt x="524" y="322" on="1"/>
        <pt x="561" y="579" on="0"/>
        <pt x="561" y="720" on="1"/>
        <pt x="561" y="750" on="0"/>
        <pt x="557" y="802" on="1"/>
        <pt x="633" y="798" on="0"/>
        <pt x="652" y="766" on="1"/>
      </contour>
      <contour>
        <pt x="574" y="455" on="1"/>
        <pt x="573" y="451" on="1"/>
        <pt x="574" y="451" on="0"/>
      </contour>
    </TTGlyph>
    <TTGlyph name="Uacute" xMin="87" yMin="-31" xMax="668" yMax="1081">
      <contour>
        <pt x="662" y="748" on="0"/>
        <pt x="668" y="715" on="0"/>
        <pt x="668" y="635" on="0"/>
        <pt x="602" y="183" on="0"/>
        <pt x="602" y="2" on="0"/>
        <pt x="616" y="-31" on="1"/>
        <pt x="554" y="-9" on="0"/>
        <pt x="503" y="66" on="0"/>
        <pt x="503" y="129" on="1"/>
        <pt x="503" y="160" on="0"/>
        <pt x="505" y="179" on="1"/>
        <pt x="420" y="-20" on="0"/>
        <pt x="254" y="-20" on="1"/>
        <pt x="171" y="-20" on="0"/>
        <pt x="87" y="95" on="0"/>
        <pt x="87" y="220" on="1"/>
        <pt x="87" y="291" on="0"/>
        <pt x="132" y="661" on="0"/>
        <pt x="132" y="772" on="0"/>
        <pt x="121" y="802" on="1"/>
        <pt x="181" y="780" on="0"/>
        <pt x="233" y="710" on="0"/>
        <pt x="233" y="587" on="0"/>
        <pt x="190" y="314" on="0"/>
        <pt x="190" y="138" on="0"/>
        <pt x="246" y="62" on="0"/>
        <pt x="298" y="62" on="1"/>
        <pt x="352" y="62" on="0"/>
        <pt x="404" y="108" on="1"/>
        <pt x="470" y="167" on="0"/>
        <pt x="510" y="300" on="1"/>
        <pt x="533" y="376" on="0"/>
        <pt x="545" y="474" on="1"/>
        <pt x="545" y="477" on="0"/>
        <pt x="550" y="477" on="0"/>
        <pt x="571" y="451" on="0"/>
        <pt x="573" y="451" on="1"/>
        <pt x="564" y="388" on="1"/>
        <pt x="541" y="263" on="0"/>
        <pt x="505" y="179" on="1"/>
        <pt x="509" y="219" on="0"/>
        <pt x="524" y="322" on="1"/>
        <pt x="561" y="579" on="0"/>
        <pt x="561" y="720" on="1"/>
        <pt x="561" y="750" on="0"/>
        <pt x="557" y="802" on="1"/>
        <pt x="633" y="798" on="0"/>
        <pt x="652" y="766" on="1"/>
      </contour>
      <contour>
        <pt x="574" y="455" on="1"/>
        <pt x="573" y="451" on="1"/>
        <pt x="574" y="451" on="0"/>
      </contour>
      <contour>
        <pt x="307" y="881" on="1"/>
        <pt x="332" y="937" on="0"/>
        <pt x="445" y="1060" on="0"/>
        <pt x="498" y="1081" on="1"/>
        <pt x="544" y="1051" on="0"/>
        <pt x="546" y="999" on="1"/>
        <pt x="488" y="981" on="0"/>
        <pt x="375" y="893" on="0"/>
        <pt x="339" y="848" on="1"/>
        <pt x="327" y="851" on="0"/>
        <pt x="308" y="870" on="0"/>
      </contour>
    </TTGlyph>
    <TTGlyph name="Ucircumflex" xMin="87" yMin="-31" xMax="668" yMax="1082">
      <contour>
        <pt x="662" y="748" on="0"/>
        <pt x="668" y="715" on="0"/>
        <pt x="668" y="635" on="0"/>
        <pt x="602" y="183" on="0"/>
        <pt x="602" y="2" on="0"/>
        <pt x="616" y="-31" on="1"/>
        <pt x="554" y="-9" on="0"/>
        <pt x="503" y="66" on="0"/>
        <pt x="503" y="129" on="1"/>
        <pt x="503" y="160" on="0"/>
        <pt x="505" y="179" on="1"/>
        <pt x="420" y="-20" on="0"/>
        <pt x="254" y="-20" on="1"/>
        <pt x="171" y="-20" on="0"/>
        <pt x="87" y="95" on="0"/>
        <pt x="87" y="220" on="1"/>
        <pt x="87" y="291" on="0"/>
        <pt x="132" y="661" on="0"/>
        <pt x="132" y="772" on="0"/>
        <pt x="121" y="802" on="1"/>
        <pt x="181" y="780" on="0"/>
        <pt x="233" y="710" on="0"/>
        <pt x="233" y="587" on="0"/>
        <pt x="190" y="314" on="0"/>
        <pt x="190" y="138" on="0"/>
        <pt x="246" y="62" on="0"/>
        <pt x="298" y="62" on="1"/>
        <pt x="352" y="62" on="0"/>
        <pt x="404" y="108" on="1"/>
        <pt x="470" y="167" on="0"/>
        <pt x="510" y="300" on="1"/>
        <pt x="533" y="376" on="0"/>
        <pt x="545" y="474" on="1"/>
        <pt x="545" y="477" on="0"/>
        <pt x="550" y="477" on="0"/>
        <pt x="571" y="451" on="0"/>
        <pt x="573" y="451" on="1"/>
        <pt x="564" y="388" on="1"/>
        <pt x="541" y="263" on="0"/>
        <pt x="505" y="179" on="1"/>
        <pt x="509" y="219" on="0"/>
        <pt x="524" y="322" on="1"/>
        <pt x="561" y="579" on="0"/>
        <pt x="561" y="720" on="1"/>
        <pt x="561" y="750" on="0"/>
        <pt x="557" y="802" on="1"/>
        <pt x="633" y="798" on="0"/>
        <pt x="652" y="766" on="1"/>
      </contour>
      <contour>
        <pt x="574" y="455" on="1"/>
        <pt x="573" y="451" on="1"/>
        <pt x="574" y="451" on="0"/>
      </contour>
      <contour>
        <pt x="575" y="881" on="1"/>
        <pt x="551" y="870" on="0"/>
        <pt x="483" y="870" on="0"/>
        <pt x="444" y="924" on="0"/>
        <pt x="429" y="1001" on="1"/>
        <pt x="378" y="908" on="0"/>
        <pt x="296" y="854" on="1"/>
        <pt x="258" y="884" on="0"/>
        <pt x="257" y="930" on="1"/>
        <pt x="326" y="975" on="0"/>
        <pt x="373" y="1019" on="0"/>
        <pt x="389" y="1035" on="0"/>
        <pt x="424" y="1078" on="0"/>
        <pt x="428" y="1082" on="1"/>
        <pt x="488" y="1082" on="0"/>
        <pt x="497" y="1021" on="1"/>
        <pt x="501" y="995" on="0"/>
        <pt x="539" y="915" on="0"/>
      </contour>
    </TTGlyph>
    <TTGlyph name="Udieresis" xMin="87" yMin="-31" xMax="668" yMax="1028">
      <contour>
        <pt x="662" y="748" on="0"/>
        <pt x="668" y="715" on="0"/>
        <pt x="668" y="635" on="0"/>
        <pt x="602" y="183" on="0"/>
        <pt x="602" y="2" on="0"/>
        <pt x="616" y="-31" on="1"/>
        <pt x="554" y="-9" on="0"/>
        <pt x="503" y="66" on="0"/>
        <pt x="503" y="129" on="1"/>
        <pt x="503" y="160" on="0"/>
        <pt x="505" y="179" on="1"/>
        <pt x="420" y="-20" on="0"/>
        <pt x="254" y="-20" on="1"/>
        <pt x="171" y="-20" on="0"/>
        <pt x="87" y="95" on="0"/>
        <pt x="87" y="220" on="1"/>
        <pt x="87" y="291" on="0"/>
        <pt x="132" y="661" on="0"/>
        <pt x="132" y="772" on="0"/>
        <pt x="121" y="802" on="1"/>
        <pt x="181" y="780" on="0"/>
        <pt x="233" y="710" on="0"/>
        <pt x="233" y="587" on="0"/>
        <pt x="190" y="314" on="0"/>
        <pt x="190" y="138" on="0"/>
        <pt x="246" y="62" on="0"/>
        <pt x="298" y="62" on="1"/>
        <pt x="352" y="62" on="0"/>
        <pt x="404" y="108" on="1"/>
        <pt x="470" y="167" on="0"/>
        <pt x="510" y="300" on="1"/>
        <pt x="533" y="376" on="0"/>
        <pt x="545" y="474" on="1"/>
        <pt x="545" y="477" on="0"/>
        <pt x="550" y="477" on="0"/>
        <pt x="571" y="451" on="0"/>
        <pt x="573" y="451" on="1"/>
        <pt x="564" y="388" on="1"/>
        <pt x="541" y="263" on="0"/>
        <pt x="505" y="179" on="1"/>
        <pt x="509" y="219" on="0"/>
        <pt x="524" y="322" on="1"/>
        <pt x="561" y="579" on="0"/>
        <pt x="561" y="720" on="1"/>
        <pt x="561" y="750" on="0"/>
        <pt x="557" y="802" on="1"/>
        <pt x="633" y="798" on="0"/>
        <pt x="652" y="766" on="1"/>
      </contour>
      <contour>
        <pt x="574" y="455" on="1"/>
        <pt x="573" y="451" on="1"/>
        <pt x="574" y="451" on="0"/>
      </contour>
      <contour>
        <pt x="337" y="911" on="1"/>
        <pt x="253" y="911" on="0"/>
        <pt x="253" y="968" on="1"/>
        <pt x="253" y="988" on="0"/>
        <pt x="268" y="1024" on="1"/>
        <pt x="290" y="1028" on="0"/>
        <pt x="306" y="1028" on="1"/>
        <pt x="390" y="1028" on="0"/>
        <pt x="390" y="971" on="1"/>
        <pt x="390" y="951" on="0"/>
        <pt x="375" y="915" on="1"/>
        <pt x="353" y="911" on="0"/>
      </contour>
      <contour>
        <pt x="547" y="911" on="1"/>
        <pt x="463" y="911" on="0"/>
        <pt x="463" y="968" on="1"/>
        <pt x="463" y="988" on="0"/>
        <pt x="478" y="1024" on="1"/>
        <pt x="500" y="1028" on="0"/>
        <pt x="516" y="1028" on="1"/>
        <pt x="600" y="1028" on="0"/>
        <pt x="600" y="971" on="1"/>
        <pt x="600" y="951" on="0"/>
        <pt x="585" y="915" on="1"/>
        <pt x="563" y="911" on="0"/>
      </contour>
    </TTGlyph>
    <TTGlyph name="Ugrave" xMin="87" yMin="-31" xMax="668" yMax="1081">
      <contour>
        <pt x="662" y="748" on="0"/>
        <pt x="668" y="715" on="0"/>
        <pt x="668" y="635" on="0"/>
        <pt x="602" y="183" on="0"/>
        <pt x="602" y="2" on="0"/>
        <pt x="616" y="-31" on="1"/>
        <pt x="554" y="-9" on="0"/>
        <pt x="503" y="66" on="0"/>
        <pt x="503" y="129" on="1"/>
        <pt x="503" y="160" on="0"/>
        <pt x="505" y="179" on="1"/>
        <pt x="420" y="-20" on="0"/>
        <pt x="254" y="-20" on="1"/>
        <pt x="171" y="-20" on="0"/>
        <pt x="87" y="95" on="0"/>
        <pt x="87" y="220" on="1"/>
        <pt x="87" y="291" on="0"/>
        <pt x="132" y="661" on="0"/>
        <pt x="132" y="772" on="0"/>
        <pt x="121" y="802" on="1"/>
        <pt x="181" y="780" on="0"/>
        <pt x="233" y="710" on="0"/>
        <pt x="233" y="587" on="0"/>
        <pt x="190" y="314" on="0"/>
        <pt x="190" y="138" on="0"/>
        <pt x="246" y="62" on="0"/>
        <pt x="298" y="62" on="1"/>
        <pt x="352" y="62" on="0"/>
        <pt x="404" y="108" on="1"/>
        <pt x="470" y="167" on="0"/>
        <pt x="510" y="300" on="1"/>
        <pt x="533" y="376" on="0"/>
        <pt x="545" y="474" on="1"/>
        <pt x="545" y="477" on="0"/>
        <pt x="550" y="477" on="0"/>
        <pt x="571" y="451" on="0"/>
        <pt x="573" y="451" on="1"/>
        <pt x="564" y="388" on="1"/>
        <pt x="541" y="263" on="0"/>
        <pt x="505" y="179" on="1"/>
        <pt x="509" y="219" on="0"/>
        <pt x="524" y="322" on="1"/>
        <pt x="561" y="579" on="0"/>
        <pt x="561" y="720" on="1"/>
        <pt x="561" y="750" on="0"/>
        <pt x="557" y="802" on="1"/>
        <pt x="633" y="798" on="0"/>
        <pt x="652" y="766" on="1"/>
      </contour>
      <contour>
        <pt x="574" y="455" on="1"/>
        <pt x="573" y="451" on="1"/>
        <pt x="574" y="451" on="0"/>
      </contour>
      <contour>
        <pt x="499" y="881" on="1"/>
        <pt x="498" y="870" on="0"/>
        <pt x="479" y="851" on="0"/>
        <pt x="467" y="848" on="1"/>
        <pt x="431" y="893" on="0"/>
        <pt x="318" y="981" on="0"/>
        <pt x="260" y="999" on="1"/>
        <pt x="262" y="1051" on="0"/>
        <pt x="308" y="1081" on="1"/>
        <pt x="361" y="1060" on="0"/>
        <pt x="474" y="937" on="0"/>
      </contour>
    </TTGlyph>
    <TTGlyph name="V" xMin="31" yMin="-14" xMax="629" yMax="807">
      <contour>
        <pt x="321" y="-3" on="0"/>
        <pt x="272" y="-14" on="0"/>
        <pt x="231" y="-14" on="0"/>
        <pt x="228" y="1" on="1"/>
        <pt x="210" y="63" on="0"/>
        <pt x="138" y="424" on="0"/>
        <pt x="65" y="718" on="0"/>
        <pt x="31" y="766" on="1"/>
        <pt x="73" y="792" on="0"/>
        <pt x="101" y="792" on="1"/>
        <pt x="153" y="792" on="0"/>
        <pt x="194" y="674" on="0"/>
        <pt x="241" y="411" on="1"/>
        <pt x="244" y="387" on="0"/>
        <pt x="297" y="134" on="0"/>
        <pt x="303" y="101" on="1"/>
        <pt x="369" y="247" on="0"/>
        <pt x="531" y="734" on="0"/>
        <pt x="531" y="807" on="1"/>
        <pt x="629" y="789" on="0"/>
        <pt x="629" y="733" on="1"/>
        <pt x="629" y="692" on="0"/>
        <pt x="516" y="427" on="0"/>
        <pt x="357" y="82" on="0"/>
        <pt x="327" y="0" on="1"/>
      </contour>
    </TTGlyph>
    <TTGlyph name="W" xMin="49" yMin="-14" xMax="957" yMax="807">
      <contour>
        <pt x="650" y="-3" on="0"/>
        <pt x="602" y="-14" on="0"/>
        <pt x="560" y="-14" on="0"/>
        <pt x="560" y="1" on="1"/>
        <pt x="546" y="60" on="0"/>
        <pt x="499" y="367" on="0"/>
        <pt x="489" y="424" on="1"/>
        <pt x="461" y="360" on="0"/>
        <pt x="417" y="262" on="1"/>
        <pt x="319" y="45" on="0"/>
        <pt x="302" y="0" on="1"/>
        <pt x="297" y="-3" on="0"/>
        <pt x="249" y="-14" on="0"/>
        <pt x="207" y="-14" on="0"/>
        <pt x="207" y="1" on="1"/>
        <pt x="192" y="64" on="0"/>
        <pt x="138" y="424" on="0"/>
        <pt x="80" y="718" on="0"/>
        <pt x="49" y="766" on="1"/>
        <pt x="91" y="792" on="0"/>
        <pt x="119" y="792" on="1"/>
        <pt x="173" y="792" on="0"/>
        <pt x="209" y="665" on="0"/>
        <pt x="243" y="384" on="1"/>
        <pt x="245" y="369" on="0"/>
        <pt x="279" y="139" on="0"/>
        <pt x="284" y="101" on="1"/>
        <pt x="390" y="379" on="0"/>
        <pt x="458" y="594" on="1"/>
        <pt x="430" y="721" on="0"/>
        <pt x="402" y="766" on="1"/>
        <pt x="444" y="792" on="0"/>
        <pt x="472" y="792" on="1"/>
        <pt x="526" y="792" on="0"/>
        <pt x="562" y="665" on="0"/>
        <pt x="596" y="384" on="1"/>
        <pt x="598" y="369" on="0"/>
        <pt x="632" y="139" on="0"/>
        <pt x="637" y="101" on="1"/>
        <pt x="857" y="686" on="0"/>
        <pt x="864" y="807" on="1"/>
        <pt x="907" y="797" on="0"/>
        <pt x="957" y="760" on="0"/>
        <pt x="957" y="737" on="1"/>
        <pt x="957" y="672" on="0"/>
        <pt x="752" y="220" on="1"/>
        <pt x="671" y="43" on="0"/>
        <pt x="655" y="0" on="1"/>
      </contour>
    </TTGlyph>
    <TTGlyph name="X" xMin="30" yMin="-33" xMax="640" yMax="809">
      <contour>
        <pt x="581" y="-33" on="1"/>
        <pt x="491" y="-33" on="0"/>
        <pt x="420" y="73" on="1"/>
        <pt x="359" y="163" on="0"/>
        <pt x="297" y="317" on="1"/>
        <pt x="143" y="146" on="0"/>
        <pt x="84" y="-31" on="1"/>
        <pt x="30" y="23" on="0"/>
        <pt x="30" y="138" on="0"/>
        <pt x="150" y="286" on="0"/>
        <pt x="266" y="396" on="1"/>
        <pt x="263" y="405" on="0"/>
        <pt x="236" y="472" on="0"/>
        <pt x="228" y="493" on="0"/>
        <pt x="204" y="553" on="0"/>
        <pt x="193" y="578" on="0"/>
        <pt x="171" y="631" on="0"/>
        <pt x="157" y="658" on="0"/>
        <pt x="136" y="701" on="0"/>
        <pt x="128" y="716" on="1"/>
        <pt x="110" y="748" on="0"/>
        <pt x="90" y="776" on="1"/>
        <pt x="130" y="803" on="0"/>
        <pt x="189" y="803" on="0"/>
        <pt x="236" y="757" on="0"/>
        <pt x="256" y="716" on="1"/>
        <pt x="286" y="656" on="0"/>
        <pt x="345" y="489" on="0"/>
        <pt x="350" y="476" on="1"/>
        <pt x="461" y="583" on="0"/>
        <pt x="586" y="742" on="0"/>
        <pt x="590" y="809" on="1"/>
        <pt x="615" y="792" on="0"/>
        <pt x="640" y="738" on="0"/>
        <pt x="640" y="689" on="0"/>
        <pt x="615" y="634" on="0"/>
        <pt x="556" y="568" on="0"/>
        <pt x="505" y="518" on="0"/>
        <pt x="407" y="428" on="0"/>
        <pt x="378" y="400" on="1"/>
        <pt x="490" y="110" on="0"/>
        <pt x="620" y="-28" on="1"/>
        <pt x="604" y="-33" on="0"/>
      </contour>
    </TTGlyph>
    <TTGlyph name="Y" xMin="23" yMin="-31" xMax="565" yMax="833">
      <contour>
        <pt x="312" y="283" on="1"/>
        <pt x="296" y="148" on="0"/>
        <pt x="296" y="2" on="0"/>
        <pt x="310" y="-31" on="1"/>
        <pt x="243" y="-17" on="0"/>
        <pt x="193" y="61" on="0"/>
        <pt x="193" y="129" on="1"/>
        <pt x="193" y="165" on="0"/>
        <pt x="206" y="286" on="1"/>
        <pt x="103" y="658" on="0"/>
        <pt x="23" y="777" on="1"/>
        <pt x="52" y="803" on="0"/>
        <pt x="113" y="803" on="0"/>
        <pt x="149" y="786" on="0"/>
        <pt x="183" y="745" on="0"/>
        <pt x="198" y="697" on="1"/>
        <pt x="227" y="604" on="0"/>
        <pt x="266" y="404" on="1"/>
        <pt x="278" y="335" on="1"/>
        <pt x="374" y="487" on="0"/>
        <pt x="495" y="758" on="0"/>
        <pt x="505" y="833" on="1"/>
        <pt x="565" y="791" on="0"/>
        <pt x="565" y="648" on="0"/>
      </contour>
    </TTGlyph>
    <TTGlyph name="Yacute" xMin="23" yMin="-31" xMax="565" yMax="1081">
      <contour>
        <pt x="312" y="283" on="1"/>
        <pt x="296" y="148" on="0"/>
        <pt x="296" y="2" on="0"/>
        <pt x="310" y="-31" on="1"/>
        <pt x="243" y="-17" on="0"/>
        <pt x="193" y="61" on="0"/>
        <pt x="193" y="129" on="1"/>
        <pt x="193" y="165" on="0"/>
        <pt x="206" y="286" on="1"/>
        <pt x="103" y="658" on="0"/>
        <pt x="23" y="777" on="1"/>
        <pt x="52" y="803" on="0"/>
        <pt x="113" y="803" on="0"/>
        <pt x="149" y="786" on="0"/>
        <pt x="183" y="745" on="0"/>
        <pt x="198" y="697" on="1"/>
        <pt x="227" y="604" on="0"/>
        <pt x="266" y="404" on="1"/>
        <pt x="278" y="335" on="1"/>
        <pt x="374" y="487" on="0"/>
        <pt x="495" y="758" on="0"/>
        <pt x="505" y="833" on="1"/>
        <pt x="565" y="791" on="0"/>
        <pt x="565" y="648" on="0"/>
      </contour>
      <contour>
        <pt x="258" y="881" on="1"/>
        <pt x="283" y="937" on="0"/>
        <pt x="396" y="1060" on="0"/>
        <pt x="449" y="1081" on="1"/>
        <pt x="495" y="1051" on="0"/>
        <pt x="497" y="999" on="1"/>
        <pt x="439" y="981" on="0"/>
        <pt x="326" y="893" on="0"/>
        <pt x="290" y="848" on="1"/>
        <pt x="278" y="851" on="0"/>
        <pt x="259" y="870" on="0"/>
      </contour>
    </TTGlyph>
    <TTGlyph name="Ydieresis" xMin="23" yMin="-31" xMax="565" yMax="1028">
      <contour>
        <pt x="312" y="283" on="1"/>
        <pt x="296" y="148" on="0"/>
        <pt x="296" y="2" on="0"/>
        <pt x="310" y="-31" on="1"/>
        <pt x="243" y="-17" on="0"/>
        <pt x="193" y="61" on="0"/>
        <pt x="193" y="129" on="1"/>
        <pt x="193" y="165" on="0"/>
        <pt x="206" y="286" on="1"/>
        <pt x="103" y="658" on="0"/>
        <pt x="23" y="777" on="1"/>
        <pt x="52" y="803" on="0"/>
        <pt x="113" y="803" on="0"/>
        <pt x="149" y="786" on="0"/>
        <pt x="183" y="745" on="0"/>
        <pt x="198" y="697" on="1"/>
        <pt x="227" y="604" on="0"/>
        <pt x="266" y="404" on="1"/>
        <pt x="278" y="335" on="1"/>
        <pt x="374" y="487" on="0"/>
        <pt x="495" y="758" on="0"/>
        <pt x="505" y="833" on="1"/>
        <pt x="565" y="791" on="0"/>
        <pt x="565" y="648" on="0"/>
      </contour>
      <contour>
        <pt x="246" y="911" on="1"/>
        <pt x="162" y="911" on="0"/>
        <pt x="162" y="968" on="1"/>
        <pt x="162" y="988" on="0"/>
        <pt x="177" y="1024" on="1"/>
        <pt x="199" y="1028" on="0"/>
        <pt x="215" y="1028" on="1"/>
        <pt x="299" y="1028" on="0"/>
        <pt x="299" y="971" on="1"/>
        <pt x="299" y="951" on="0"/>
        <pt x="284" y="915" on="1"/>
        <pt x="262" y="911" on="0"/>
      </contour>
      <contour>
        <pt x="456" y="911" on="1"/>
        <pt x="372" y="911" on="0"/>
        <pt x="372" y="968" on="1"/>
        <pt x="372" y="988" on="0"/>
        <pt x="387" y="1024" on="1"/>
        <pt x="409" y="1028" on="0"/>
        <pt x="425" y="1028" on="1"/>
        <pt x="509" y="1028" on="0"/>
        <pt x="509" y="971" on="1"/>
        <pt x="509" y="951" on="0"/>
        <pt x="494" y="915" on="1"/>
        <pt x="472" y="911" on="0"/>
      </contour>
    </TTGlyph>
    <TTGlyph name="Z" xMin="-40" yMin="-5" xMax="553" yMax="838">
      <contour>
        <pt x="83" y="726" on="1"/>
        <pt x="83" y="755" on="0"/>
        <pt x="91" y="777" on="1"/>
        <pt x="217" y="763" on="0"/>
        <pt x="431" y="763" on="0"/>
        <pt x="484" y="767" on="1"/>
        <pt x="498" y="800" on="0"/>
        <pt x="507" y="838" on="1"/>
        <pt x="553" y="778" on="0"/>
        <pt x="553" y="706" on="1"/>
        <pt x="553" y="663" on="0"/>
        <pt x="467" y="521" on="0"/>
        <pt x="410" y="452" on="1"/>
        <pt x="215" y="211" on="0"/>
        <pt x="137" y="89" on="1"/>
        <pt x="165" y="87" on="0"/>
        <pt x="181" y="87" on="1"/>
        <pt x="397" y="87" on="0"/>
        <pt x="505" y="117" on="1"/>
        <pt x="497" y="59" on="0"/>
        <pt x="432" y="-5" on="0"/>
        <pt x="383" y="-5" on="1"/>
        <pt x="357" y="-5" on="0"/>
        <pt x="198" y="12" on="0"/>
        <pt x="30" y="12" on="0"/>
        <pt x="-40" y="-3" on="1"/>
        <pt x="-24" y="45" on="0"/>
        <pt x="20" y="68" on="1"/>
        <pt x="318" y="429" on="0"/>
        <pt x="452" y="698" on="1"/>
        <pt x="201" y="654" on="0"/>
        <pt x="129" y="654" on="1"/>
        <pt x="83" y="654" on="0"/>
      </contour>
    </TTGlyph>
    <TTGlyph name="Zcaron" xMin="-40" yMin="-5" xMax="553" yMax="1082">
      <contour>
        <pt x="83" y="726" on="1"/>
        <pt x="83" y="755" on="0"/>
        <pt x="91" y="777" on="1"/>
        <pt x="217" y="763" on="0"/>
        <pt x="431" y="763" on="0"/>
        <pt x="484" y="767" on="1"/>
        <pt x="498" y="800" on="0"/>
        <pt x="507" y="838" on="1"/>
        <pt x="553" y="778" on="0"/>
        <pt x="553" y="706" on="1"/>
        <pt x="553" y="663" on="0"/>
        <pt x="467" y="521" on="0"/>
        <pt x="410" y="452" on="1"/>
        <pt x="215" y="211" on="0"/>
        <pt x="137" y="89" on="1"/>
        <pt x="165" y="87" on="0"/>
        <pt x="181" y="87" on="1"/>
        <pt x="397" y="87" on="0"/>
        <pt x="505" y="117" on="1"/>
        <pt x="497" y="59" on="0"/>
        <pt x="432" y="-5" on="0"/>
        <pt x="383" y="-5" on="1"/>
        <pt x="357" y="-5" on="0"/>
        <pt x="198" y="12" on="0"/>
        <pt x="30" y="12" on="0"/>
        <pt x="-40" y="-3" on="1"/>
        <pt x="-24" y="45" on="0"/>
        <pt x="20" y="68" on="1"/>
        <pt x="318" y="429" on="0"/>
        <pt x="452" y="698" on="1"/>
        <pt x="201" y="654" on="0"/>
        <pt x="129" y="654" on="1"/>
        <pt x="83" y="654" on="0"/>
      </contour>
      <contour>
        <pt x="211" y="1055" on="1"/>
        <pt x="235" y="1066" on="0"/>
        <pt x="303" y="1066" on="0"/>
        <pt x="342" y="1012" on="0"/>
        <pt x="357" y="935" on="1"/>
        <pt x="408" y="1028" on="0"/>
        <pt x="490" y="1082" on="1"/>
        <pt x="528" y="1052" on="0"/>
        <pt x="529" y="1006" on="1"/>
        <pt x="460" y="961" on="0"/>
        <pt x="413" y="917" on="0"/>
        <pt x="397" y="901" on="0"/>
        <pt x="362" y="858" on="0"/>
        <pt x="358" y="854" on="1"/>
        <pt x="298" y="854" on="0"/>
        <pt x="289" y="915" on="1"/>
        <pt x="285" y="941" on="0"/>
        <pt x="247" y="1021" on="0"/>
      </contour>
    </TTGlyph>
    <TTGlyph name="a" xMin="53" yMin="-33" xMax="560" yMax="570">
      <contour>
        <pt x="192" y="341" on="0"/>
        <pt x="161" y="236" on="0"/>
        <pt x="161" y="140" on="0"/>
        <pt x="204" y="73" on="0"/>
        <pt x="244" y="73" on="1"/>
        <pt x="300" y="73" on="0"/>
        <pt x="398" y="196" on="0"/>
        <pt x="451" y="371" on="0"/>
        <pt x="451" y="520" on="0"/>
        <pt x="445" y="568" on="1"/>
        <pt x="469" y="570" on="0"/>
        <pt x="475" y="570" on="1"/>
        <pt x="560" y="570" on="0"/>
        <pt x="560" y="483" on="1"/>
        <pt x="560" y="464" on="0"/>
        <pt x="512" y="193" on="0"/>
        <pt x="512" y="30" on="0"/>
        <pt x="543" y="-33" on="1"/>
        <pt x="480" y="-20" on="0"/>
        <pt x="423" y="65" on="0"/>
        <pt x="423" y="145" on="1"/>
        <pt x="423" y="159" on="0"/>
        <pt x="427" y="199" on="1"/>
        <pt x="400" y="104" on="0"/>
        <pt x="264" y="-12" on="0"/>
        <pt x="133" y="-12" on="0"/>
        <pt x="53" y="87" on="0"/>
        <pt x="53" y="262" on="0"/>
        <pt x="118" y="429" on="0"/>
        <pt x="249" y="551" on="0"/>
        <pt x="330" y="551" on="1"/>
        <pt x="365" y="551" on="0"/>
        <pt x="407" y="537" on="1"/>
        <pt x="348" y="522" on="0"/>
        <pt x="250" y="442" on="0"/>
      </contour>
    </TTGlyph>
    <TTGlyph name="aacute" xMin="53" yMin="-33" xMax="560" yMax="852">
      <contour>
        <pt x="290" y="652" on="1"/>
        <pt x="315" y="708" on="0"/>
        <pt x="428" y="831" on="0"/>
        <pt x="481" y="852" on="1"/>
        <pt x="527" y="822" on="0"/>
        <pt x="529" y="770" on="1"/>
        <pt x="471" y="752" on="0"/>
        <pt x="358" y="664" on="0"/>
        <pt x="322" y="619" on="1"/>
        <pt x="310" y="622" on="0"/>
        <pt x="291" y="641" on="0"/>
      </contour>
      <contour>
        <pt x="192" y="341" on="0"/>
        <pt x="161" y="236" on="0"/>
        <pt x="161" y="140" on="0"/>
        <pt x="204" y="73" on="0"/>
        <pt x="244" y="73" on="1"/>
        <pt x="300" y="73" on="0"/>
        <pt x="398" y="196" on="0"/>
        <pt x="451" y="371" on="0"/>
        <pt x="451" y="520" on="0"/>
        <pt x="445" y="568" on="1"/>
        <pt x="469" y="570" on="0"/>
        <pt x="475" y="570" on="1"/>
        <pt x="560" y="570" on="0"/>
        <pt x="560" y="483" on="1"/>
        <pt x="560" y="464" on="0"/>
        <pt x="512" y="193" on="0"/>
        <pt x="512" y="30" on="0"/>
        <pt x="543" y="-33" on="1"/>
        <pt x="480" y="-20" on="0"/>
        <pt x="423" y="65" on="0"/>
        <pt x="423" y="145" on="1"/>
        <pt x="423" y="159" on="0"/>
        <pt x="427" y="199" on="1"/>
        <pt x="400" y="104" on="0"/>
        <pt x="264" y="-12" on="0"/>
        <pt x="133" y="-12" on="0"/>
        <pt x="53" y="87" on="0"/>
        <pt x="53" y="262" on="0"/>
        <pt x="118" y="429" on="0"/>
        <pt x="249" y="551" on="0"/>
        <pt x="330" y="551" on="1"/>
        <pt x="365" y="551" on="0"/>
        <pt x="407" y="537" on="1"/>
        <pt x="348" y="522" on="0"/>
        <pt x="250" y="442" on="0"/>
      </contour>
    </TTGlyph>
    <TTGlyph name="acircumflex" xMin="53" yMin="-33" xMax="565" yMax="853">
      <contour>
        <pt x="565" y="652" on="1"/>
        <pt x="541" y="641" on="0"/>
        <pt x="473" y="641" on="0"/>
        <pt x="434" y="695" on="0"/>
        <pt x="419" y="772" on="1"/>
        <pt x="368" y="679" on="0"/>
        <pt x="286" y="625" on="1"/>
        <pt x="248" y="655" on="0"/>
        <pt x="247" y="701" on="1"/>
        <pt x="316" y="746" on="0"/>
        <pt x="363" y="790" on="0"/>
        <pt x="379" y="806" on="0"/>
        <pt x="414" y="849" on="0"/>
        <pt x="418" y="853" on="1"/>
        <pt x="478" y="853" on="0"/>
        <pt x="487" y="792" on="1"/>
        <pt x="491" y="766" on="0"/>
        <pt x="529" y="686" on="0"/>
      </contour>
      <contour>
        <pt x="192" y="341" on="0"/>
        <pt x="161" y="236" on="0"/>
        <pt x="161" y="140" on="0"/>
        <pt x="204" y="73" on="0"/>
        <pt x="244" y="73" on="1"/>
        <pt x="300" y="73" on="0"/>
        <pt x="398" y="196" on="0"/>
        <pt x="451" y="371" on="0"/>
        <pt x="451" y="520" on="0"/>
        <pt x="445" y="568" on="1"/>
        <pt x="469" y="570" on="0"/>
        <pt x="475" y="570" on="1"/>
        <pt x="560" y="570" on="0"/>
        <pt x="560" y="483" on="1"/>
        <pt x="560" y="464" on="0"/>
        <pt x="512" y="193" on="0"/>
        <pt x="512" y="30" on="0"/>
        <pt x="543" y="-33" on="1"/>
        <pt x="480" y="-20" on="0"/>
        <pt x="423" y="65" on="0"/>
        <pt x="423" y="145" on="1"/>
        <pt x="423" y="159" on="0"/>
        <pt x="427" y="199" on="1"/>
        <pt x="400" y="104" on="0"/>
        <pt x="264" y="-12" on="0"/>
        <pt x="133" y="-12" on="0"/>
        <pt x="53" y="87" on="0"/>
        <pt x="53" y="262" on="0"/>
        <pt x="118" y="429" on="0"/>
        <pt x="249" y="551" on="0"/>
        <pt x="330" y="551" on="1"/>
        <pt x="365" y="551" on="0"/>
        <pt x="407" y="537" on="1"/>
        <pt x="348" y="522" on="0"/>
        <pt x="250" y="442" on="0"/>
      </contour>
    </TTGlyph>
    <TTGlyph name="acute" xMin="98" yMin="619" xMax="337" yMax="852">
      <contour>
        <pt x="98" y="652" on="1"/>
        <pt x="123" y="708" on="0"/>
        <pt x="236" y="831" on="0"/>
        <pt x="289" y="852" on="1"/>
        <pt x="335" y="822" on="0"/>
        <pt x="337" y="770" on="1"/>
        <pt x="279" y="752" on="0"/>
        <pt x="166" y="664" on="0"/>
        <pt x="130" y="619" on="1"/>
        <pt x="118" y="622" on="0"/>
        <pt x="99" y="641" on="0"/>
      </contour>
    </TTGlyph>
    <TTGlyph name="adieresis" xMin="53" yMin="-33" xMax="598" yMax="799">
      <contour>
        <pt x="335" y="682" on="1"/>
        <pt x="251" y="682" on="0"/>
        <pt x="251" y="739" on="1"/>
        <pt x="251" y="759" on="0"/>
        <pt x="266" y="795" on="1"/>
        <pt x="288" y="799" on="0"/>
        <pt x="304" y="799" on="1"/>
        <pt x="388" y="799" on="0"/>
        <pt x="388" y="742" on="1"/>
        <pt x="388" y="722" on="0"/>
        <pt x="373" y="686" on="1"/>
        <pt x="351" y="682" on="0"/>
      </contour>
      <contour>
        <pt x="545" y="682" on="1"/>
        <pt x="461" y="682" on="0"/>
        <pt x="461" y="739" on="1"/>
        <pt x="461" y="759" on="0"/>
        <pt x="476" y="795" on="1"/>
        <pt x="498" y="799" on="0"/>
        <pt x="514" y="799" on="1"/>
        <pt x="598" y="799" on="0"/>
        <pt x="598" y="742" on="1"/>
        <pt x="598" y="722" on="0"/>
        <pt x="583" y="686" on="1"/>
        <pt x="561" y="682" on="0"/>
      </contour>
      <contour>
        <pt x="192" y="341" on="0"/>
        <pt x="161" y="236" on="0"/>
        <pt x="161" y="140" on="0"/>
        <pt x="204" y="73" on="0"/>
        <pt x="244" y="73" on="1"/>
        <pt x="300" y="73" on="0"/>
        <pt x="398" y="196" on="0"/>
        <pt x="451" y="371" on="0"/>
        <pt x="451" y="520" on="0"/>
        <pt x="445" y="568" on="1"/>
        <pt x="469" y="570" on="0"/>
        <pt x="475" y="570" on="1"/>
        <pt x="560" y="570" on="0"/>
        <pt x="560" y="483" on="1"/>
        <pt x="560" y="464" on="0"/>
        <pt x="512" y="193" on="0"/>
        <pt x="512" y="30" on="0"/>
        <pt x="543" y="-33" on="1"/>
        <pt x="480" y="-20" on="0"/>
        <pt x="423" y="65" on="0"/>
        <pt x="423" y="145" on="1"/>
        <pt x="423" y="159" on="0"/>
        <pt x="427" y="199" on="1"/>
        <pt x="400" y="104" on="0"/>
        <pt x="264" y="-12" on="0"/>
        <pt x="133" y="-12" on="0"/>
        <pt x="53" y="87" on="0"/>
        <pt x="53" y="262" on="0"/>
        <pt x="118" y="429" on="0"/>
        <pt x="249" y="551" on="0"/>
        <pt x="330" y="551" on="1"/>
        <pt x="365" y="551" on="0"/>
        <pt x="407" y="537" on="1"/>
        <pt x="348" y="522" on="0"/>
        <pt x="250" y="442" on="0"/>
      </contour>
    </TTGlyph>
    <TTGlyph name="ae" xMin="53" yMin="-15" xMax="848" yMax="577">
      <contour>
        <pt x="244" y="73" on="1"/>
        <pt x="321" y="73" on="0"/>
        <pt x="451" y="314" on="0"/>
        <pt x="451" y="454" on="1"/>
        <pt x="451" y="520" on="0"/>
        <pt x="445" y="568" on="1"/>
        <pt x="469" y="570" on="0"/>
        <pt x="501" y="570" on="0"/>
        <pt x="509" y="542" on="0"/>
        <pt x="509" y="497" on="1"/>
        <pt x="586" y="577" on="0"/>
        <pt x="698" y="577" on="1"/>
        <pt x="848" y="577" on="0"/>
        <pt x="848" y="432" on="1"/>
        <pt x="848" y="345" on="0"/>
        <pt x="713" y="246" on="0"/>
        <pt x="624" y="246" on="1"/>
        <pt x="565" y="246" on="0"/>
        <pt x="518" y="257" on="1"/>
        <pt x="517" y="247" on="0"/>
        <pt x="517" y="226" on="1"/>
        <pt x="517" y="49" on="0"/>
        <pt x="622" y="49" on="1"/>
        <pt x="721" y="49" on="0"/>
        <pt x="783" y="147" on="1"/>
        <pt x="820" y="142" on="0"/>
        <pt x="820" y="120" on="1"/>
        <pt x="774" y="45" on="0"/>
        <pt x="664" y="-15" on="0"/>
        <pt x="528" y="-15" on="0"/>
        <pt x="427" y="75" on="0"/>
        <pt x="414" y="164" on="1"/>
        <pt x="382" y="84" on="0"/>
        <pt x="256" y="-12" on="0"/>
        <pt x="133" y="-12" on="0"/>
        <pt x="53" y="87" on="0"/>
        <pt x="53" y="262" on="0"/>
        <pt x="118" y="429" on="0"/>
        <pt x="249" y="551" on="0"/>
        <pt x="330" y="551" on="1"/>
        <pt x="365" y="551" on="0"/>
        <pt x="407" y="537" on="1"/>
        <pt x="348" y="522" on="0"/>
        <pt x="250" y="442" on="0"/>
        <pt x="221" y="392" on="1"/>
        <pt x="161" y="287" on="0"/>
        <pt x="161" y="189" on="1"/>
        <pt x="161" y="140" on="0"/>
        <pt x="204" y="73" on="0"/>
      </contour>
      <contour>
        <pt x="679" y="525" on="1"/>
        <pt x="619" y="525" on="0"/>
        <pt x="536" y="387" on="0"/>
        <pt x="522" y="294" on="1"/>
        <pt x="550" y="294" on="1"/>
        <pt x="603" y="294" on="0"/>
        <pt x="681" y="324" on="0"/>
        <pt x="702" y="348" on="1"/>
        <pt x="742" y="394" on="0"/>
        <pt x="742" y="452" on="1"/>
        <pt x="742" y="485" on="0"/>
        <pt x="711" y="525" on="0"/>
      </contour>
    </TTGlyph>
    <TTGlyph name="agrave" xMin="53" yMin="-33" xMax="560" yMax="852">
      <contour>
        <pt x="493" y="652" on="1"/>
        <pt x="492" y="641" on="0"/>
        <pt x="473" y="622" on="0"/>
        <pt x="461" y="619" on="1"/>
        <pt x="425" y="664" on="0"/>
        <pt x="312" y="752" on="0"/>
        <pt x="254" y="770" on="1"/>
        <pt x="256" y="822" on="0"/>
        <pt x="302" y="852" on="1"/>
        <pt x="355" y="831" on="0"/>
        <pt x="468" y="708" on="0"/>
      </contour>
      <contour>
        <pt x="192" y="341" on="0"/>
        <pt x="161" y="236" on="0"/>
        <pt x="161" y="140" on="0"/>
        <pt x="204" y="73" on="0"/>
        <pt x="244" y="73" on="1"/>
        <pt x="300" y="73" on="0"/>
        <pt x="398" y="196" on="0"/>
        <pt x="451" y="371" on="0"/>
        <pt x="451" y="520" on="0"/>
        <pt x="445" y="568" on="1"/>
        <pt x="469" y="570" on="0"/>
        <pt x="475" y="570" on="1"/>
        <pt x="560" y="570" on="0"/>
        <pt x="560" y="483" on="1"/>
        <pt x="560" y="464" on="0"/>
        <pt x="512" y="193" on="0"/>
        <pt x="512" y="30" on="0"/>
        <pt x="543" y="-33" on="1"/>
        <pt x="480" y="-20" on="0"/>
        <pt x="423" y="65" on="0"/>
        <pt x="423" y="145" on="1"/>
        <pt x="423" y="159" on="0"/>
        <pt x="427" y="199" on="1"/>
        <pt x="400" y="104" on="0"/>
        <pt x="264" y="-12" on="0"/>
        <pt x="133" y="-12" on="0"/>
        <pt x="53" y="87" on="0"/>
        <pt x="53" y="262" on="0"/>
        <pt x="118" y="429" on="0"/>
        <pt x="249" y="551" on="0"/>
        <pt x="330" y="551" on="1"/>
        <pt x="365" y="551" on="0"/>
        <pt x="407" y="537" on="1"/>
        <pt x="348" y="522" on="0"/>
        <pt x="250" y="442" on="0"/>
      </contour>
    </TTGlyph>
    <TTGlyph name="ampersand" xMin="24" yMin="-230" xMax="667" yMax="781">
      <contour>
        <pt x="201" y="590" on="1"/>
        <pt x="201" y="506" on="0"/>
        <pt x="325" y="422" on="0"/>
        <pt x="558" y="422" on="0"/>
        <pt x="667" y="468" on="1"/>
        <pt x="667" y="406" on="0"/>
        <pt x="650" y="382" on="1"/>
        <pt x="631" y="356" on="0"/>
        <pt x="592" y="356" on="1"/>
        <pt x="526" y="356" on="1"/>
        <pt x="522" y="329" on="0"/>
        <pt x="498" y="172" on="0"/>
        <pt x="492" y="125" on="1"/>
        <pt x="473" y="-9" on="0"/>
        <pt x="473" y="-174" on="0"/>
        <pt x="497" y="-230" on="1"/>
        <pt x="435" y="-208" on="0"/>
        <pt x="391" y="-116" on="0"/>
        <pt x="391" y="13" on="0"/>
        <pt x="396" y="63" on="1"/>
        <pt x="366" y="14" on="0"/>
        <pt x="268" y="-33" on="0"/>
        <pt x="219" y="-33" on="1"/>
        <pt x="140" y="-33" on="0"/>
        <pt x="24" y="73" on="0"/>
        <pt x="24" y="168" on="1"/>
        <pt x="24" y="247" on="0"/>
        <pt x="156" y="378" on="0"/>
        <pt x="264" y="395" on="1"/>
        <pt x="181" y="422" on="0"/>
        <pt x="100" y="528" on="0"/>
        <pt x="100" y="587" on="1"/>
        <pt x="100" y="664" on="0"/>
        <pt x="222" y="781" on="0"/>
        <pt x="405" y="781" on="0"/>
        <pt x="503" y="701" on="0"/>
        <pt x="503" y="637" on="1"/>
        <pt x="503" y="591" on="0"/>
        <pt x="439" y="516" on="0"/>
        <pt x="387" y="516" on="1"/>
        <pt x="366" y="516" on="0"/>
        <pt x="345" y="521" on="1"/>
        <pt x="400" y="582" on="0"/>
        <pt x="400" y="638" on="1"/>
        <pt x="400" y="675" on="0"/>
        <pt x="351" y="715" on="0"/>
        <pt x="318" y="715" on="1"/>
        <pt x="266" y="715" on="0"/>
        <pt x="201" y="639" on="0"/>
      </contour>
      <contour>
        <pt x="258" y="40" on="1"/>
        <pt x="355" y="40" on="0"/>
        <pt x="392" y="132" on="1"/>
        <pt x="411" y="178" on="0"/>
        <pt x="421" y="248" on="1"/>
        <pt x="436" y="357" on="1"/>
        <pt x="131" y="354" on="0"/>
        <pt x="131" y="173" on="1"/>
        <pt x="131" y="108" on="0"/>
        <pt x="201" y="40" on="0"/>
      </contour>
    </TTGlyph>
    <TTGlyph name="apple" xMin="100" yMin="-114" xMax="823" yMax="608">
      <contour>
        <pt x="589" y="-89" on="1"/>
        <pt x="566" y="-88" on="1"/>
        <pt x="552" y="-88" on="0"/>
        <pt x="517" y="-112" on="0"/>
        <pt x="508" y="-112" on="1"/>
        <pt x="462" y="-102" on="1"/>
        <pt x="454" y="-102" on="0"/>
        <pt x="423" y="-114" on="0"/>
        <pt x="406" y="-114" on="0"/>
        <pt x="374" y="-89" on="0"/>
        <pt x="361" y="-89" on="1"/>
        <pt x="337" y="-91" on="1"/>
        <pt x="322" y="-91" on="0"/>
        <pt x="304" y="-74" on="1"/>
        <pt x="286" y="-55" on="1"/>
        <pt x="274" y="-49" on="0"/>
        <pt x="248" y="-47" on="0"/>
        <pt x="230" y="-36" on="0"/>
        <pt x="216" y="-1" on="0"/>
        <pt x="205" y="8" on="0"/>
        <pt x="177" y="19" on="0"/>
        <pt x="171" y="28" on="1"/>
        <pt x="166" y="37" on="0"/>
        <pt x="162" y="66" on="0"/>
        <pt x="154" y="79" on="0"/>
        <pt x="144" y="86" on="1"/>
        <pt x="122" y="104" on="0"/>
        <pt x="122" y="124" on="1"/>
        <pt x="125" y="149" on="1"/>
        <pt x="125" y="158" on="0"/>
        <pt x="100" y="193" on="0"/>
        <pt x="100" y="211" on="0"/>
        <pt x="112" y="240" on="0"/>
        <pt x="112" y="257" on="0"/>
        <pt x="100" y="283" on="0"/>
        <pt x="100" y="301" on="0"/>
        <pt x="125" y="342" on="0"/>
        <pt x="125" y="351" on="1"/>
        <pt x="124" y="376" on="1"/>
        <pt x="124" y="391" on="0"/>
        <pt x="157" y="420" on="0"/>
        <pt x="162" y="430" on="0"/>
        <pt x="166" y="462" on="0"/>
        <pt x="174" y="474" on="0"/>
        <pt x="205" y="486" on="0"/>
        <pt x="215" y="496" on="0"/>
        <pt x="229" y="527" on="0"/>
        <pt x="242" y="538" on="0"/>
        <pt x="280" y="546" on="0"/>
        <pt x="291" y="552" on="0"/>
        <pt x="321" y="586" on="0"/>
        <pt x="335" y="587" on="1"/>
        <pt x="361" y="585" on="1"/>
        <pt x="374" y="585" on="0"/>
        <pt x="405" y="608" on="0"/>
        <pt x="416" y="608" on="1"/>
        <pt x="460" y="596" on="1"/>
        <pt x="505" y="608" on="1"/>
        <pt x="518" y="608" on="0"/>
        <pt x="550" y="583" on="0"/>
        <pt x="562" y="583" on="1"/>
        <pt x="590" y="586" on="1"/>
        <pt x="606" y="586" on="0"/>
        <pt x="632" y="553" on="0"/>
        <pt x="645" y="546" on="0"/>
        <pt x="675" y="540" on="0"/>
        <pt x="690" y="530" on="0"/>
        <pt x="700" y="502" on="0"/>
        <pt x="711" y="492" on="0"/>
        <pt x="751" y="471" on="0"/>
        <pt x="760" y="455" on="0"/>
        <pt x="761" y="423" on="0"/>
        <pt x="766" y="414" on="0"/>
        <pt x="800" y="385" on="0"/>
        <pt x="800" y="369" on="1"/>
        <pt x="799" y="344" on="1"/>
        <pt x="799" y="331" on="0"/>
        <pt x="823" y="294" on="0"/>
        <pt x="823" y="276" on="0"/>
        <pt x="812" y="250" on="0"/>
        <pt x="812" y="236" on="0"/>
        <pt x="823" y="207" on="0"/>
        <pt x="822" y="191" on="0"/>
        <pt x="798" y="166" on="0"/>
        <pt x="798" y="152" on="1"/>
        <pt x="800" y="120" on="1"/>
        <pt x="800" y="104" on="0"/>
        <pt x="768" y="78" on="0"/>
        <pt x="763" y="68" on="0"/>
        <pt x="754" y="30" on="0"/>
        <pt x="743" y="17" on="0"/>
        <pt x="718" y="6" on="0"/>
        <pt x="708" y="-4" on="0"/>
        <pt x="690" y="-37" on="0"/>
        <pt x="676" y="-47" on="0"/>
        <pt x="641" y="-56" on="0"/>
        <pt x="631" y="-62" on="0"/>
        <pt x="604" y="-89" on="0"/>
      </contour>
      <contour>
        <pt x="462" y="-6" on="1"/>
        <pt x="495" y="-13" on="1"/>
        <pt x="501" y="-13" on="0"/>
        <pt x="512" y="-6" on="1"/>
        <pt x="527" y="4" on="0"/>
        <pt x="539" y="4" on="1"/>
        <pt x="554" y="3" on="1"/>
        <pt x="566" y="3" on="0"/>
        <pt x="584" y="23" on="0"/>
        <pt x="591" y="27" on="0"/>
        <pt x="617" y="34" on="0"/>
        <pt x="628" y="42" on="0"/>
        <pt x="641" y="65" on="0"/>
        <pt x="648" y="72" on="0"/>
        <pt x="666" y="80" on="0"/>
        <pt x="674" y="89" on="0"/>
        <pt x="680" y="117" on="0"/>
        <pt x="685" y="125" on="0"/>
        <pt x="707" y="143" on="0"/>
        <pt x="707" y="157" on="1"/>
        <pt x="706" y="177" on="1"/>
        <pt x="706" y="188" on="0"/>
        <pt x="723" y="207" on="0"/>
        <pt x="724" y="213" on="1"/>
        <pt x="716" y="245" on="1"/>
        <pt x="724" y="273" on="1"/>
        <pt x="724" y="281" on="0"/>
        <pt x="706" y="309" on="0"/>
        <pt x="706" y="318" on="1"/>
        <pt x="707" y="335" on="1"/>
        <pt x="707" y="347" on="0"/>
        <pt x="683" y="367" on="0"/>
        <pt x="679" y="375" on="0"/>
        <pt x="678" y="398" on="0"/>
        <pt x="672" y="409" on="0"/>
        <pt x="643" y="424" on="0"/>
        <pt x="635" y="432" on="0"/>
        <pt x="627" y="452" on="0"/>
        <pt x="617" y="460" on="0"/>
        <pt x="595" y="464" on="0"/>
        <pt x="585" y="469" on="0"/>
        <pt x="567" y="493" on="0"/>
        <pt x="555" y="493" on="1"/>
        <pt x="535" y="491" on="1"/>
        <pt x="526" y="491" on="0"/>
        <pt x="504" y="509" on="0"/>
        <pt x="494" y="509" on="1"/>
        <pt x="461" y="500" on="1"/>
        <pt x="429" y="509" on="1"/>
        <pt x="421" y="509" on="0"/>
        <pt x="397" y="492" on="0"/>
        <pt x="387" y="492" on="1"/>
        <pt x="370" y="493" on="1"/>
        <pt x="359" y="493" on="0"/>
        <pt x="338" y="468" on="0"/>
        <pt x="329" y="463" on="0"/>
        <pt x="303" y="458" on="0"/>
        <pt x="293" y="450" on="0"/>
        <pt x="283" y="428" on="0"/>
        <pt x="275" y="420" on="0"/>
        <pt x="254" y="412" on="0"/>
        <pt x="250" y="407" on="1"/>
        <pt x="248" y="403" on="0"/>
        <pt x="244" y="380" on="0"/>
        <pt x="240" y="372" on="0"/>
        <pt x="216" y="351" on="0"/>
        <pt x="216" y="340" on="1"/>
        <pt x="217" y="324" on="1"/>
        <pt x="217" y="316" on="0"/>
        <pt x="200" y="286" on="0"/>
        <pt x="200" y="278" on="1"/>
        <pt x="208" y="248" on="1"/>
        <pt x="200" y="215" on="1"/>
        <pt x="200" y="207" on="0"/>
        <pt x="217" y="182" on="0"/>
        <pt x="217" y="174" on="1"/>
        <pt x="215" y="158" on="1"/>
        <pt x="215" y="147" on="0"/>
        <pt x="240" y="124" on="0"/>
        <pt x="244" y="116" on="0"/>
        <pt x="247" y="95" on="0"/>
        <pt x="255" y="82" on="0"/>
        <pt x="275" y="74" on="0"/>
        <pt x="283" y="67" on="0"/>
        <pt x="294" y="41" on="0"/>
        <pt x="306" y="33" on="0"/>
        <pt x="325" y="33" on="0"/>
        <pt x="337" y="27" on="0"/>
        <pt x="360" y="2" on="0"/>
        <pt x="371" y="2" on="1"/>
        <pt x="386" y="3" on="1"/>
        <pt x="396" y="3" on="0"/>
        <pt x="420" y="-14" on="0"/>
        <pt x="426" y="-15" on="1"/>
      </contour>
      <contour>
        <pt x="392" y="417" on="0"/>
        <pt x="532" y="417" on="0"/>
        <pt x="632" y="318" on="0"/>
        <pt x="632" y="176" on="0"/>
        <pt x="532" y="77" on="0"/>
        <pt x="392" y="77" on="0"/>
        <pt x="292" y="176" on="0"/>
        <pt x="292" y="318" on="0"/>
      </contour>
      <contour>
        <pt x="505" y="292" on="1"/>
        <pt x="557" y="292" on="1"/>
        <pt x="557" y="360" on="1"/>
        <pt x="366" y="360" on="1"/>
        <pt x="366" y="292" on="1"/>
        <pt x="420" y="292" on="1"/>
        <pt x="420" y="117" on="1"/>
        <pt x="505" y="117" on="1"/>
      </contour>
    </TTGlyph>
    <TTGlyph name="approxequal" xMin="59" yMin="140" xMax="561" yMax="536">
      <contour>
        <pt x="415" y="388" on="1"/>
        <pt x="373" y="388" on="0"/>
        <pt x="221" y="423" on="0"/>
        <pt x="193" y="423" on="1"/>
        <pt x="96" y="423" on="0"/>
        <pt x="59" y="378" on="1"/>
        <pt x="59" y="526" on="0"/>
        <pt x="205" y="526" on="1"/>
        <pt x="247" y="526" on="0"/>
        <pt x="399" y="491" on="0"/>
        <pt x="427" y="491" on="1"/>
        <pt x="524" y="491" on="0"/>
        <pt x="561" y="536" on="1"/>
        <pt x="561" y="388" on="0"/>
      </contour>
      <contour>
        <pt x="415" y="150" on="1"/>
        <pt x="373" y="150" on="0"/>
        <pt x="221" y="185" on="0"/>
        <pt x="193" y="185" on="1"/>
        <pt x="96" y="185" on="0"/>
        <pt x="59" y="140" on="1"/>
        <pt x="59" y="288" on="0"/>
        <pt x="205" y="288" on="1"/>
        <pt x="247" y="288" on="0"/>
        <pt x="399" y="253" on="0"/>
        <pt x="427" y="253" on="1"/>
        <pt x="524" y="253" on="0"/>
        <pt x="561" y="298" on="1"/>
        <pt x="561" y="150" on="0"/>
      </contour>
    </TTGlyph>
    <TTGlyph name="aring" xMin="53" yMin="-33" xMax="560" yMax="855">
      <contour>
        <pt x="459" y="750" on="1"/>
        <pt x="459" y="791" on="0"/>
        <pt x="411" y="791" on="1"/>
        <pt x="388" y="791" on="0"/>
        <pt x="366" y="786" on="1"/>
        <pt x="354" y="752" on="0"/>
        <pt x="354" y="729" on="1"/>
        <pt x="354" y="688" on="0"/>
        <pt x="402" y="688" on="1"/>
        <pt x="425" y="688" on="0"/>
        <pt x="447" y="693" on="1"/>
        <pt x="459" y="727" on="0"/>
      </contour>
      <contour>
        <pt x="440" y="624" on="0"/>
        <pt x="350" y="624" on="0"/>
        <pt x="288" y="667" on="0"/>
        <pt x="288" y="760" on="0"/>
        <pt x="316" y="838" on="1"/>
        <pt x="373" y="855" on="0"/>
        <pt x="463" y="855" on="0"/>
        <pt x="525" y="812" on="0"/>
        <pt x="525" y="719" on="0"/>
        <pt x="497" y="641" on="1"/>
      </contour>
      <contour>
        <pt x="192" y="341" on="0"/>
        <pt x="161" y="236" on="0"/>
        <pt x="161" y="140" on="0"/>
        <pt x="204" y="73" on="0"/>
        <pt x="244" y="73" on="1"/>
        <pt x="300" y="73" on="0"/>
        <pt x="398" y="196" on="0"/>
        <pt x="451" y="371" on="0"/>
        <pt x="451" y="520" on="0"/>
        <pt x="445" y="568" on="1"/>
        <pt x="469" y="570" on="0"/>
        <pt x="475" y="570" on="1"/>
        <pt x="560" y="570" on="0"/>
        <pt x="560" y="483" on="1"/>
        <pt x="560" y="464" on="0"/>
        <pt x="512" y="193" on="0"/>
        <pt x="512" y="30" on="0"/>
        <pt x="543" y="-33" on="1"/>
        <pt x="480" y="-20" on="0"/>
        <pt x="423" y="65" on="0"/>
        <pt x="423" y="145" on="1"/>
        <pt x="423" y="159" on="0"/>
        <pt x="427" y="199" on="1"/>
        <pt x="400" y="104" on="0"/>
        <pt x="264" y="-12" on="0"/>
        <pt x="133" y="-12" on="0"/>
        <pt x="53" y="87" on="0"/>
        <pt x="53" y="262" on="0"/>
        <pt x="118" y="429" on="0"/>
        <pt x="249" y="551" on="0"/>
        <pt x="330" y="551" on="1"/>
        <pt x="365" y="551" on="0"/>
        <pt x="407" y="537" on="1"/>
        <pt x="348" y="522" on="0"/>
        <pt x="250" y="442" on="0"/>
      </contour>
    </TTGlyph>
    <TTGlyph name="asciicircum" xMin="81" yMin="327" xMax="559" yMax="776">
      <contour>
        <pt x="311" y="759" on="1"/>
        <pt x="342" y="776" on="0"/>
        <pt x="414" y="776" on="0"/>
        <pt x="418" y="758" on="1"/>
        <pt x="449" y="613" on="0"/>
        <pt x="508" y="442" on="0"/>
        <pt x="559" y="352" on="1"/>
        <pt x="540" y="327" on="0"/>
        <pt x="439" y="327" on="0"/>
        <pt x="375" y="490" on="0"/>
        <pt x="342" y="708" on="1"/>
        <pt x="216" y="511" on="0"/>
        <pt x="139" y="328" on="1"/>
        <pt x="81" y="351" on="0"/>
        <pt x="81" y="404" on="1"/>
        <pt x="81" y="442" on="0"/>
        <pt x="198" y="615" on="0"/>
      </contour>
    </TTGlyph>
    <TTGlyph name="asciitilde" xMin="59" yMin="284" xMax="561" yMax="442">
      <contour>
        <pt x="414" y="294" on="1"/>
        <pt x="373" y="294" on="0"/>
        <pt x="221" y="320" on="0"/>
        <pt x="193" y="320" on="1"/>
        <pt x="101" y="320" on="0"/>
        <pt x="59" y="284" on="1"/>
        <pt x="59" y="374" on="0"/>
        <pt x="93" y="402" on="1"/>
        <pt x="128" y="432" on="0"/>
        <pt x="205" y="432" on="1"/>
        <pt x="247" y="432" on="0"/>
        <pt x="399" y="406" on="0"/>
        <pt x="427" y="406" on="1"/>
        <pt x="519" y="406" on="0"/>
        <pt x="561" y="442" on="1"/>
        <pt x="561" y="352" on="0"/>
        <pt x="527" y="324" on="1"/>
        <pt x="492" y="294" on="0"/>
      </contour>
    </TTGlyph>
    <TTGlyph name="asterisk" xMin="92" yMin="515" xMax="470" yMax="895">
      <contour>
        <pt x="318" y="673" on="1"/>
        <pt x="324" y="614" on="1"/>
        <pt x="324" y="515" on="0"/>
        <pt x="271" y="515" on="1"/>
        <pt x="239" y="515" on="0"/>
        <pt x="195" y="556" on="1"/>
        <pt x="212" y="574" on="0"/>
        <pt x="251" y="646" on="0"/>
        <pt x="260" y="671" on="1"/>
        <pt x="183" y="637" on="0"/>
        <pt x="149" y="637" on="1"/>
        <pt x="92" y="637" on="0"/>
        <pt x="92" y="691" on="1"/>
        <pt x="92" y="719" on="0"/>
        <pt x="110" y="754" on="1"/>
        <pt x="175" y="726" on="0"/>
        <pt x="241" y="726" on="1"/>
        <pt x="218" y="750" on="0"/>
        <pt x="173" y="823" on="0"/>
        <pt x="173" y="847" on="1"/>
        <pt x="173" y="895" on="0"/>
        <pt x="245" y="895" on="1"/>
        <pt x="257" y="895" on="0"/>
        <pt x="277" y="893" on="1"/>
        <pt x="273" y="866" on="0"/>
        <pt x="273" y="854" on="1"/>
        <pt x="273" y="797" on="0"/>
        <pt x="288" y="760" on="1"/>
        <pt x="308" y="796" on="0"/>
        <pt x="373" y="870" on="0"/>
        <pt x="412" y="870" on="0"/>
        <pt x="450" y="821" on="0"/>
        <pt x="458" y="782" on="1"/>
        <pt x="427" y="776" on="0"/>
        <pt x="352" y="742" on="0"/>
        <pt x="332" y="727" on="1"/>
        <pt x="398" y="709" on="0"/>
        <pt x="470" y="663" on="0"/>
        <pt x="470" y="627" on="0"/>
        <pt x="442" y="588" on="0"/>
        <pt x="416" y="573" on="1"/>
        <pt x="406" y="583" on="0"/>
        <pt x="383" y="608" on="1"/>
        <pt x="338" y="657" on="0"/>
      </contour>
    </TTGlyph>
    <TTGlyph name="at" xMin="65" yMin="-169" xMax="962" yMax="720">
      <contour>
        <pt x="418" y="-75" on="1"/>
        <pt x="498" y="-75" on="0"/>
        <pt x="565" y="-22" on="1"/>
        <pt x="572" y="-46" on="0"/>
        <pt x="572" y="-65" on="1"/>
        <pt x="572" y="-114" on="0"/>
        <pt x="480" y="-169" on="0"/>
        <pt x="347" y="-169" on="0"/>
        <pt x="227" y="-120" on="0"/>
        <pt x="126" y="-28" on="0"/>
        <pt x="65" y="124" on="0"/>
        <pt x="65" y="311" on="0"/>
        <pt x="138" y="489" on="0"/>
        <pt x="270" y="633" on="0"/>
        <pt x="478" y="720" on="0"/>
        <pt x="602" y="720" on="1"/>
        <pt x="738" y="720" on="0"/>
        <pt x="844" y="643" on="1"/>
        <pt x="897" y="604" on="0"/>
        <pt x="962" y="462" on="0"/>
        <pt x="962" y="284" on="0"/>
        <pt x="909" y="139" on="0"/>
        <pt x="829" y="50" on="0"/>
        <pt x="740" y="0" on="0"/>
        <pt x="701" y="0" on="1"/>
        <pt x="641" y="0" on="0"/>
        <pt x="588" y="90" on="0"/>
        <pt x="588" y="184" on="1"/>
        <pt x="588" y="217" on="0"/>
        <pt x="589" y="236" on="1"/>
        <pt x="582" y="236" on="1"/>
        <pt x="552" y="163" on="0"/>
        <pt x="460" y="89" on="0"/>
        <pt x="368" y="89" on="0"/>
        <pt x="310" y="168" on="0"/>
        <pt x="310" y="311" on="0"/>
        <pt x="356" y="436" on="0"/>
        <pt x="459" y="527" on="0"/>
        <pt x="527" y="527" on="1"/>
        <pt x="564" y="527" on="0"/>
        <pt x="598" y="509" on="1"/>
        <pt x="594" y="535" on="1"/>
        <pt x="631" y="535" on="1"/>
        <pt x="664" y="535" on="0"/>
        <pt x="694" y="505" on="0"/>
        <pt x="694" y="441" on="0"/>
        <pt x="659" y="241" on="0"/>
        <pt x="659" y="167" on="1"/>
        <pt x="659" y="67" on="0"/>
        <pt x="720" y="67" on="1"/>
        <pt x="767" y="67" on="0"/>
        <pt x="858" y="226" on="0"/>
        <pt x="858" y="365" on="1"/>
        <pt x="858" y="445" on="0"/>
        <pt x="813" y="564" on="0"/>
        <pt x="774" y="598" on="1"/>
        <pt x="698" y="663" on="0"/>
        <pt x="490" y="663" on="0"/>
        <pt x="323" y="586" on="0"/>
        <pt x="272" y="522" on="1"/>
        <pt x="167" y="392" on="0"/>
        <pt x="167" y="68" on="0"/>
        <pt x="313" y="-75" on="0"/>
      </contour>
      <contour>
        <pt x="406" y="245" on="1"/>
        <pt x="406" y="210" on="0"/>
        <pt x="438" y="166" on="0"/>
        <pt x="468" y="166" on="1"/>
        <pt x="519" y="166" on="0"/>
        <pt x="603" y="339" on="0"/>
        <pt x="603" y="440" on="1"/>
        <pt x="603" y="467" on="0"/>
        <pt x="599" y="491" on="1"/>
        <pt x="517" y="483" on="0"/>
        <pt x="406" y="347" on="0"/>
      </contour>
    </TTGlyph>
    <TTGlyph name="atilde" xMin="53" yMin="-33" xMax="571" yMax="796">
      <contour>
        <pt x="563" y="725" on="0"/>
        <pt x="512" y="677" on="0"/>
        <pt x="453" y="677" on="0"/>
        <pt x="365" y="706" on="0"/>
        <pt x="348" y="706" on="1"/>
        <pt x="304" y="706" on="0"/>
        <pt x="280" y="672" on="1"/>
        <pt x="259" y="672" on="0"/>
        <pt x="254" y="689" on="1"/>
        <pt x="262" y="743" on="0"/>
        <pt x="313" y="791" on="0"/>
        <pt x="372" y="791" on="0"/>
        <pt x="460" y="762" on="0"/>
        <pt x="477" y="762" on="1"/>
        <pt x="521" y="762" on="0"/>
        <pt x="545" y="796" on="1"/>
        <pt x="566" y="796" on="0"/>
        <pt x="571" y="779" on="1"/>
      </contour>
      <contour>
        <pt x="192" y="341" on="0"/>
        <pt x="161" y="236" on="0"/>
        <pt x="161" y="140" on="0"/>
        <pt x="204" y="73" on="0"/>
        <pt x="244" y="73" on="1"/>
        <pt x="300" y="73" on="0"/>
        <pt x="398" y="196" on="0"/>
        <pt x="451" y="371" on="0"/>
        <pt x="451" y="520" on="0"/>
        <pt x="445" y="568" on="1"/>
        <pt x="469" y="570" on="0"/>
        <pt x="475" y="570" on="1"/>
        <pt x="560" y="570" on="0"/>
        <pt x="560" y="483" on="1"/>
        <pt x="560" y="464" on="0"/>
        <pt x="512" y="193" on="0"/>
        <pt x="512" y="30" on="0"/>
        <pt x="543" y="-33" on="1"/>
        <pt x="480" y="-20" on="0"/>
        <pt x="423" y="65" on="0"/>
        <pt x="423" y="145" on="1"/>
        <pt x="423" y="159" on="0"/>
        <pt x="427" y="199" on="1"/>
        <pt x="400" y="104" on="0"/>
        <pt x="264" y="-12" on="0"/>
        <pt x="133" y="-12" on="0"/>
        <pt x="53" y="87" on="0"/>
        <pt x="53" y="262" on="0"/>
        <pt x="118" y="429" on="0"/>
        <pt x="249" y="551" on="0"/>
        <pt x="330" y="551" on="1"/>
        <pt x="365" y="551" on="0"/>
        <pt x="407" y="537" on="1"/>
        <pt x="348" y="522" on="0"/>
        <pt x="250" y="442" on="0"/>
      </contour>
    </TTGlyph>
    <TTGlyph name="b" xMin="101" yMin="-18" xMax="570" yMax="957">
      <contour>
        <pt x="258" y="764" on="1"/>
        <pt x="258" y="719" on="0"/>
        <pt x="219" y="435" on="0"/>
        <pt x="212" y="357" on="1"/>
        <pt x="241" y="462" on="0"/>
        <pt x="350" y="577" on="0"/>
        <pt x="478" y="577" on="0"/>
        <pt x="570" y="455" on="0"/>
        <pt x="570" y="360" on="1"/>
        <pt x="570" y="211" on="0"/>
        <pt x="423" y="7" on="0"/>
        <pt x="316" y="7" on="1"/>
        <pt x="287" y="7" on="0"/>
        <pt x="257" y="16" on="1"/>
        <pt x="321" y="32" on="0"/>
        <pt x="418" y="149" on="0"/>
        <pt x="462" y="286" on="0"/>
        <pt x="462" y="404" on="0"/>
        <pt x="420" y="483" on="0"/>
        <pt x="332" y="483" on="0"/>
        <pt x="249" y="379" on="0"/>
        <pt x="196" y="209" on="0"/>
        <pt x="196" y="48" on="0"/>
        <pt x="215" y="-18" on="1"/>
        <pt x="162" y="-1" on="0"/>
        <pt x="101" y="109" on="0"/>
        <pt x="101" y="260" on="0"/>
        <pt x="168" y="690" on="0"/>
        <pt x="168" y="888" on="0"/>
        <pt x="159" y="957" on="1"/>
        <pt x="258" y="921" on="0"/>
      </contour>
    </TTGlyph>
    <TTGlyph name="backslash" xMin="0" yMin="-182" xMax="413" yMax="868">
      <contour>
        <pt x="247" y="344" on="0"/>
        <pt x="413" y="-41" on="0"/>
        <pt x="413" y="-124" on="0"/>
        <pt x="371" y="-172" on="0"/>
        <pt x="350" y="-177" on="1"/>
        <pt x="329" y="-182" on="1"/>
        <pt x="315" y="-80" on="0"/>
        <pt x="150" y="355" on="0"/>
        <pt x="0" y="727" on="0"/>
        <pt x="0" y="765" on="1"/>
        <pt x="0" y="813" on="0"/>
        <pt x="32" y="852" on="1"/>
        <pt x="39" y="860" on="0"/>
        <pt x="49" y="868" on="1"/>
        <pt x="64" y="779" on="0"/>
      </contour>
    </TTGlyph>
    <TTGlyph name="bar" xMin="171" yMin="-186" xMax="285" yMax="867">
      <contour>
        <pt x="171" y="-122" on="1"/>
        <pt x="171" y="-65" on="0"/>
        <pt x="186" y="276" on="0"/>
        <pt x="186" y="383" on="1"/>
        <pt x="186" y="751" on="0"/>
        <pt x="172" y="867" on="1"/>
        <pt x="285" y="867" on="0"/>
        <pt x="285" y="803" on="1"/>
        <pt x="285" y="747" on="0"/>
        <pt x="270" y="491" on="0"/>
        <pt x="270" y="383" on="1"/>
        <pt x="270" y="-78" on="0"/>
        <pt x="284" y="-186" on="1"/>
        <pt x="171" y="-186" on="0"/>
      </contour>
    </TTGlyph>
    <TTGlyph name="braceleft" xMin="60" yMin="-139" xMax="387" yMax="783">
      <contour>
        <pt x="189" y="324" on="0"/>
        <pt x="237" y="230" on="0"/>
        <pt x="237" y="139" on="0"/>
        <pt x="224" y="28" on="0"/>
        <pt x="224" y="-31" on="0"/>
        <pt x="253" y="-69" on="0"/>
        <pt x="314" y="-69" on="0"/>
        <pt x="335" y="-65" on="1"/>
        <pt x="335" y="-108" on="0"/>
        <pt x="305" y="-139" on="0"/>
        <pt x="262" y="-139" on="1"/>
        <pt x="180" y="-139" on="0"/>
        <pt x="114" y="-74" on="0"/>
        <pt x="114" y="-10" on="1"/>
        <pt x="114" y="13" on="0"/>
        <pt x="128" y="132" on="0"/>
        <pt x="128" y="168" on="1"/>
        <pt x="128" y="309" on="0"/>
        <pt x="60" y="312" on="1"/>
        <pt x="62" y="348" on="1"/>
        <pt x="116" y="357" on="0"/>
        <pt x="136" y="418" on="1"/>
        <pt x="153" y="471" on="0"/>
        <pt x="153" y="548" on="1"/>
        <pt x="153" y="595" on="1"/>
        <pt x="153" y="695" on="0"/>
        <pt x="227" y="783" on="0"/>
        <pt x="321" y="783" on="1"/>
        <pt x="357" y="783" on="0"/>
        <pt x="387" y="747" on="0"/>
        <pt x="387" y="709" on="1"/>
        <pt x="363" y="712" on="0"/>
        <pt x="345" y="712" on="1"/>
        <pt x="297" y="712" on="0"/>
        <pt x="267" y="666" on="0"/>
        <pt x="267" y="610" on="1"/>
        <pt x="267" y="503" on="0"/>
        <pt x="215" y="348" on="0"/>
        <pt x="159" y="330" on="1"/>
      </contour>
    </TTGlyph>
    <TTGlyph name="braceright" xMin="-15" yMin="-139" xMax="312" yMax="783">
      <contour>
        <pt x="183" y="320" on="0"/>
        <pt x="135" y="414" on="0"/>
        <pt x="135" y="505" on="0"/>
        <pt x="148" y="616" on="0"/>
        <pt x="148" y="675" on="0"/>
        <pt x="119" y="713" on="0"/>
        <pt x="58" y="713" on="0"/>
        <pt x="37" y="709" on="1"/>
        <pt x="37" y="752" on="0"/>
        <pt x="67" y="783" on="0"/>
        <pt x="110" y="783" on="1"/>
        <pt x="192" y="783" on="0"/>
        <pt x="263" y="717" on="0"/>
        <pt x="263" y="654" on="1"/>
        <pt x="263" y="631" on="0"/>
        <pt x="244" y="512" on="0"/>
        <pt x="244" y="476" on="1"/>
        <pt x="244" y="335" on="0"/>
        <pt x="312" y="332" on="1"/>
        <pt x="310" y="296" on="1"/>
        <pt x="256" y="287" on="0"/>
        <pt x="236" y="226" on="1"/>
        <pt x="219" y="173" on="0"/>
        <pt x="219" y="96" on="1"/>
        <pt x="219" y="49" on="1"/>
        <pt x="219" y="-51" on="0"/>
        <pt x="145" y="-139" on="0"/>
        <pt x="51" y="-139" on="1"/>
        <pt x="15" y="-139" on="0"/>
        <pt x="-15" y="-103" on="0"/>
        <pt x="-15" y="-65" on="1"/>
        <pt x="9" y="-68" on="0"/>
        <pt x="27" y="-68" on="1"/>
        <pt x="75" y="-68" on="0"/>
        <pt x="105" y="-22" on="0"/>
        <pt x="105" y="34" on="1"/>
        <pt x="105" y="141" on="0"/>
        <pt x="157" y="296" on="0"/>
        <pt x="213" y="314" on="1"/>
      </contour>
    </TTGlyph>
    <TTGlyph name="bracketleft" xMin="132" yMin="-139" xMax="422" yMax="783">
      <contour>
        <pt x="312" y="783" on="1"/>
        <pt x="382" y="783" on="1"/>
        <pt x="418" y="783" on="0"/>
        <pt x="422" y="709" on="1"/>
        <pt x="364" y="714" on="0"/>
        <pt x="301" y="715" on="1"/>
        <pt x="267" y="484" on="0"/>
        <pt x="255" y="321" on="1"/>
        <pt x="246" y="173" on="0"/>
        <pt x="246" y="-61" on="1"/>
        <pt x="246" y="-71" on="1"/>
        <pt x="301" y="-70" on="0"/>
        <pt x="355" y="-65" on="1"/>
        <pt x="351" y="-139" on="0"/>
        <pt x="315" y="-139" on="1"/>
        <pt x="247" y="-139" on="1"/>
        <pt x="132" y="-139" on="0"/>
        <pt x="132" y="-74" on="1"/>
        <pt x="132" y="-54" on="0"/>
        <pt x="137" y="-4" on="1"/>
        <pt x="160" y="228" on="0"/>
        <pt x="171" y="394" on="0"/>
        <pt x="189" y="713" on="1"/>
        <pt x="191" y="750" on="0"/>
        <pt x="248" y="783" on="0"/>
      </contour>
    </TTGlyph>
    <TTGlyph name="bracketright" xMin="-43" yMin="-139" xMax="247" yMax="783">
      <contour>
        <pt x="67" y="-139" on="1"/>
        <pt x="-3" y="-139" on="1"/>
        <pt x="-39" y="-139" on="0"/>
        <pt x="-43" y="-65" on="1"/>
        <pt x="15" y="-70" on="0"/>
        <pt x="78" y="-71" on="1"/>
        <pt x="112" y="160" on="0"/>
        <pt x="124" y="323" on="1"/>
        <pt x="133" y="471" on="0"/>
        <pt x="133" y="705" on="1"/>
        <pt x="133" y="715" on="1"/>
        <pt x="78" y="714" on="0"/>
        <pt x="24" y="709" on="1"/>
        <pt x="28" y="783" on="0"/>
        <pt x="64" y="783" on="1"/>
        <pt x="132" y="783" on="1"/>
        <pt x="247" y="783" on="0"/>
        <pt x="247" y="718" on="1"/>
        <pt x="247" y="698" on="0"/>
        <pt x="242" y="648" on="1"/>
        <pt x="219" y="416" on="0"/>
        <pt x="208" y="250" on="0"/>
        <pt x="190" y="-69" on="1"/>
        <pt x="188" y="-106" on="0"/>
        <pt x="131" y="-139" on="0"/>
      </contour>
    </TTGlyph>
    <TTGlyph name="breve" xMin="42" yMin="644" xMax="313" yMax="817">
      <contour>
        <pt x="42" y="788" on="1"/>
        <pt x="58" y="802" on="0"/>
        <pt x="87" y="802" on="0"/>
        <pt x="94" y="789" on="1"/>
        <pt x="94" y="758" on="0"/>
        <pt x="132" y="719" on="0"/>
        <pt x="195" y="719" on="0"/>
        <pt x="256" y="774" on="0"/>
        <pt x="259" y="817" on="1"/>
        <pt x="280" y="817" on="0"/>
        <pt x="313" y="775" on="0"/>
        <pt x="313" y="751" on="1"/>
        <pt x="299" y="698" on="0"/>
        <pt x="221" y="644" on="0"/>
        <pt x="116" y="644" on="0"/>
        <pt x="42" y="713" on="0"/>
      </contour>
    </TTGlyph>
    <TTGlyph name="brokenbar" xMin="171" yMin="-186" xMax="285" yMax="867">
      <contour>
        <pt x="274" y="450" on="1"/>
        <pt x="226" y="450" on="0"/>
        <pt x="186" y="498" on="0"/>
        <pt x="186" y="547" on="1"/>
        <pt x="186" y="751" on="0"/>
        <pt x="172" y="867" on="1"/>
        <pt x="232" y="867" on="0"/>
        <pt x="285" y="836" on="0"/>
        <pt x="285" y="768" on="0"/>
        <pt x="274" y="508" on="0"/>
      </contour>
      <contour>
        <pt x="182" y="231" on="1"/>
        <pt x="230" y="231" on="0"/>
        <pt x="270" y="183" on="0"/>
        <pt x="270" y="134" on="1"/>
        <pt x="270" y="-70" on="0"/>
        <pt x="284" y="-186" on="1"/>
        <pt x="224" y="-186" on="0"/>
        <pt x="171" y="-155" on="0"/>
        <pt x="171" y="-87" on="0"/>
        <pt x="182" y="173" on="0"/>
      </contour>
    </TTGlyph>
    <TTGlyph name="bullet" xMin="82" yMin="236" xMax="254" yMax="400">
      <contour>
        <pt x="160" y="236" on="1"/>
        <pt x="82" y="236" on="0"/>
        <pt x="82" y="301" on="1"/>
        <pt x="82" y="324" on="0"/>
        <pt x="104" y="388" on="1"/>
        <pt x="140" y="400" on="0"/>
        <pt x="176" y="400" on="1"/>
        <pt x="254" y="400" on="0"/>
        <pt x="254" y="335" on="1"/>
        <pt x="254" y="312" on="0"/>
        <pt x="232" y="248" on="1"/>
        <pt x="194" y="236" on="0"/>
      </contour>
    </TTGlyph>
    <TTGlyph name="c" xMin="65" yMin="-15" xMax="500" yMax="577">
      <contour>
        <pt x="212" y="432" on="0"/>
        <pt x="173" y="297" on="0"/>
        <pt x="173" y="143" on="0"/>
        <pt x="225" y="49" on="0"/>
        <pt x="312" y="49" on="0"/>
        <pt x="396" y="101" on="0"/>
        <pt x="425" y="147" on="1"/>
        <pt x="462" y="142" on="0"/>
        <pt x="462" y="120" on="1"/>
        <pt x="435" y="70" on="0"/>
        <pt x="354" y="6" on="0"/>
        <pt x="284" y="-15" on="0"/>
        <pt x="248" y="-15" on="1"/>
        <pt x="171" y="-15" on="0"/>
        <pt x="65" y="106" on="0"/>
        <pt x="65" y="221" on="1"/>
        <pt x="65" y="367" on="0"/>
        <pt x="223" y="577" on="0"/>
        <pt x="354" y="577" on="1"/>
        <pt x="426" y="577" on="0"/>
        <pt x="500" y="502" on="0"/>
        <pt x="500" y="403" on="0"/>
        <pt x="445" y="333" on="0"/>
        <pt x="402" y="333" on="1"/>
        <pt x="375" y="333" on="0"/>
        <pt x="356" y="342" on="1"/>
        <pt x="372" y="360" on="0"/>
        <pt x="395" y="425" on="0"/>
        <pt x="395" y="456" on="1"/>
        <pt x="395" y="525" on="0"/>
        <pt x="338" y="525" on="1"/>
        <pt x="290" y="525" on="0"/>
      </contour>
    </TTGlyph>
    <TTGlyph name="caron" xMin="117" yMin="625" xMax="435" yMax="853">
      <contour>
        <pt x="117" y="826" on="1"/>
        <pt x="141" y="837" on="0"/>
        <pt x="209" y="837" on="0"/>
        <pt x="248" y="783" on="0"/>
        <pt x="263" y="706" on="1"/>
        <pt x="314" y="799" on="0"/>
        <pt x="396" y="853" on="1"/>
        <pt x="434" y="823" on="0"/>
        <pt x="435" y="777" on="1"/>
        <pt x="366" y="732" on="0"/>
        <pt x="319" y="688" on="0"/>
        <pt x="303" y="672" on="0"/>
        <pt x="268" y="629" on="0"/>
        <pt x="264" y="625" on="1"/>
        <pt x="204" y="625" on="0"/>
        <pt x="195" y="686" on="1"/>
        <pt x="191" y="712" on="0"/>
        <pt x="153" y="792" on="0"/>
      </contour>
    </TTGlyph>
    <TTGlyph name="ccedilla" xMin="65" yMin="-313" xMax="500" yMax="577">
      <contour>
        <pt x="212" y="432" on="0"/>
        <pt x="173" y="297" on="0"/>
        <pt x="173" y="143" on="0"/>
        <pt x="225" y="49" on="0"/>
        <pt x="312" y="49" on="0"/>
        <pt x="396" y="101" on="0"/>
        <pt x="425" y="147" on="1"/>
        <pt x="462" y="142" on="0"/>
        <pt x="462" y="120" on="1"/>
        <pt x="435" y="70" on="0"/>
        <pt x="354" y="6" on="0"/>
        <pt x="284" y="-15" on="0"/>
        <pt x="248" y="-15" on="1"/>
        <pt x="171" y="-15" on="0"/>
        <pt x="65" y="106" on="0"/>
        <pt x="65" y="221" on="1"/>
        <pt x="65" y="367" on="0"/>
        <pt x="223" y="577" on="0"/>
        <pt x="354" y="577" on="1"/>
        <pt x="426" y="577" on="0"/>
        <pt x="500" y="502" on="0"/>
        <pt x="500" y="403" on="0"/>
        <pt x="445" y="333" on="0"/>
        <pt x="402" y="333" on="1"/>
        <pt x="375" y="333" on="0"/>
        <pt x="356" y="342" on="1"/>
        <pt x="372" y="360" on="0"/>
        <pt x="395" y="425" on="0"/>
        <pt x="395" y="456" on="1"/>
        <pt x="395" y="525" on="0"/>
        <pt x="338" y="525" on="1"/>
        <pt x="290" y="525" on="0"/>
      </contour>
      <contour>
        <pt x="240" y="-44" on="0"/>
        <pt x="299" y="-105" on="0"/>
        <pt x="299" y="-206" on="0"/>
        <pt x="230" y="-295" on="0"/>
        <pt x="171" y="-313" on="1"/>
        <pt x="132" y="-296" on="0"/>
        <pt x="132" y="-243" on="1"/>
        <pt x="175" y="-234" on="0"/>
        <pt x="225" y="-181" on="0"/>
        <pt x="225" y="-146" on="1"/>
        <pt x="225" y="-91" on="0"/>
        <pt x="171" y="-67" on="1"/>
        <pt x="171" y="-54" on="0"/>
        <pt x="177" y="-40" on="1"/>
      </contour>
    </TTGlyph>
    <TTGlyph name="cedilla" xMin="65" yMin="-313" xMax="232" yMax="-40">
      <contour>
        <pt x="173" y="-44" on="0"/>
        <pt x="232" y="-105" on="0"/>
        <pt x="232" y="-206" on="0"/>
        <pt x="163" y="-295" on="0"/>
        <pt x="104" y="-313" on="1"/>
        <pt x="65" y="-296" on="0"/>
        <pt x="65" y="-243" on="1"/>
        <pt x="108" y="-234" on="0"/>
        <pt x="158" y="-181" on="0"/>
        <pt x="158" y="-146" on="1"/>
        <pt x="158" y="-91" on="0"/>
        <pt x="104" y="-67" on="1"/>
        <pt x="104" y="-54" on="0"/>
        <pt x="110" y="-40" on="1"/>
      </contour>
    </TTGlyph>
    <TTGlyph name="cent" xMin="104" yMin="-98" xMax="535" yMax="832">
      <contour>
        <pt x="307" y="607" on="0"/>
        <pt x="212" y="423" on="0"/>
        <pt x="212" y="326" on="1"/>
        <pt x="212" y="141" on="0"/>
        <pt x="316" y="141" on="1"/>
        <pt x="405" y="141" on="0"/>
        <pt x="470" y="239" on="1"/>
        <pt x="506" y="231" on="0"/>
        <pt x="506" y="207" on="1"/>
        <pt x="447" y="105" on="0"/>
        <pt x="342" y="79" on="1"/>
        <pt x="322" y="-28" on="0"/>
        <pt x="322" y="-98" on="1"/>
        <pt x="305" y="-98" on="0"/>
        <pt x="284" y="-90" on="1"/>
        <pt x="241" y="-75" on="0"/>
        <pt x="241" y="-21" on="1"/>
        <pt x="241" y="12" on="0"/>
        <pt x="255" y="73" on="1"/>
        <pt x="188" y="83" on="0"/>
        <pt x="104" y="202" on="0"/>
        <pt x="104" y="308" on="1"/>
        <pt x="104" y="444" on="0"/>
        <pt x="240" y="647" on="0"/>
        <pt x="358" y="661" on="1"/>
        <pt x="384" y="775" on="0"/>
        <pt x="389" y="832" on="1"/>
        <pt x="408" y="832" on="0"/>
        <pt x="443" y="788" on="0"/>
        <pt x="443" y="721" on="0"/>
        <pt x="430" y="661" on="1"/>
        <pt x="484" y="651" on="0"/>
        <pt x="535" y="581" on="0"/>
        <pt x="535" y="492" on="0"/>
        <pt x="487" y="425" on="0"/>
        <pt x="450" y="425" on="1"/>
        <pt x="430" y="425" on="0"/>
        <pt x="401" y="433" on="1"/>
        <pt x="417" y="450" on="0"/>
        <pt x="444" y="512" on="0"/>
        <pt x="444" y="570" on="0"/>
        <pt x="414" y="607" on="0"/>
        <pt x="382" y="607" on="1"/>
      </contour>
    </TTGlyph>
    <TTGlyph name="circumflex" xMin="107" yMin="625" xMax="425" yMax="853">
      <contour>
        <pt x="425" y="652" on="1"/>
        <pt x="401" y="641" on="0"/>
        <pt x="333" y="641" on="0"/>
        <pt x="294" y="695" on="0"/>
        <pt x="279" y="772" on="1"/>
        <pt x="228" y="679" on="0"/>
        <pt x="146" y="625" on="1"/>
        <pt x="108" y="655" on="0"/>
        <pt x="107" y="701" on="1"/>
        <pt x="176" y="746" on="0"/>
        <pt x="223" y="790" on="0"/>
        <pt x="239" y="806" on="0"/>
        <pt x="274" y="849" on="0"/>
        <pt x="278" y="853" on="1"/>
        <pt x="338" y="853" on="0"/>
        <pt x="347" y="792" on="1"/>
        <pt x="351" y="766" on="0"/>
        <pt x="389" y="686" on="0"/>
      </contour>
    </TTGlyph>
    <TTGlyph name="colon" xMin="70" yMin="-11" xMax="247" yMax="554">
      <contour>
        <pt x="135" y="-11" on="1"/>
        <pt x="70" y="-11" on="0"/>
        <pt x="70" y="43" on="1"/>
        <pt x="70" y="60" on="0"/>
        <pt x="88" y="116" on="1"/>
        <pt x="118" y="126" on="0"/>
        <pt x="148" y="126" on="1"/>
        <pt x="213" y="126" on="0"/>
        <pt x="213" y="72" on="1"/>
        <pt x="213" y="55" on="0"/>
        <pt x="195" y="-1" on="1"/>
        <pt x="165" y="-11" on="0"/>
      </contour>
      <contour>
        <pt x="169" y="417" on="1"/>
        <pt x="104" y="417" on="0"/>
        <pt x="104" y="471" on="1"/>
        <pt x="104" y="488" on="0"/>
        <pt x="122" y="544" on="1"/>
        <pt x="152" y="554" on="0"/>
        <pt x="182" y="554" on="1"/>
        <pt x="247" y="554" on="0"/>
        <pt x="247" y="500" on="1"/>
        <pt x="247" y="483" on="0"/>
        <pt x="229" y="427" on="1"/>
        <pt x="199" y="417" on="0"/>
      </contour>
    </TTGlyph>
    <TTGlyph name="comma" xMin="-4" yMin="-132" xMax="184" yMax="146">
      <contour>
        <pt x="120" y="146" on="1"/>
        <pt x="184" y="146" on="0"/>
        <pt x="184" y="24" on="0"/>
        <pt x="100" y="-88" on="0"/>
        <pt x="20" y="-132" on="1"/>
        <pt x="-4" y="-102" on="1"/>
        <pt x="70" y="-31" on="0"/>
        <pt x="70" y="60" on="1"/>
        <pt x="70" y="93" on="0"/>
        <pt x="55" y="135" on="1"/>
        <pt x="88" y="146" on="0"/>
      </contour>
    </TTGlyph>
    <TTGlyph name="copyright" xMin="100" yMin="273" xMax="703" yMax="861">
      <contour>
        <pt x="380" y="378" on="1"/>
        <pt x="323" y="378" on="0"/>
        <pt x="246" y="462" on="0"/>
        <pt x="246" y="633" on="0"/>
        <pt x="344" y="758" on="0"/>
        <pt x="432" y="758" on="1"/>
        <pt x="483" y="758" on="0"/>
        <pt x="535" y="707" on="0"/>
        <pt x="535" y="637" on="0"/>
        <pt x="495" y="592" on="0"/>
        <pt x="462" y="592" on="1"/>
        <pt x="452" y="592" on="0"/>
        <pt x="428" y="599" on="1"/>
        <pt x="439" y="611" on="0"/>
        <pt x="455" y="658" on="0"/>
        <pt x="455" y="677" on="1"/>
        <pt x="455" y="715" on="0"/>
        <pt x="426" y="715" on="1"/>
        <pt x="385" y="715" on="0"/>
        <pt x="334" y="608" on="0"/>
        <pt x="334" y="487" on="0"/>
        <pt x="374" y="431" on="0"/>
        <pt x="405" y="431" on="1"/>
        <pt x="452" y="431" on="0"/>
        <pt x="489" y="485" on="1"/>
        <pt x="521" y="485" on="0"/>
        <pt x="521" y="465" on="1"/>
        <pt x="473" y="378" on="0"/>
      </contour>
      <contour>
        <pt x="438" y="861" on="1"/>
        <pt x="540" y="861" on="0"/>
        <pt x="618" y="800" on="1"/>
        <pt x="657" y="768" on="0"/>
        <pt x="703" y="655" on="0"/>
        <pt x="703" y="579" on="1"/>
        <pt x="703" y="454" on="0"/>
        <pt x="523" y="273" on="0"/>
        <pt x="365" y="273" on="1"/>
        <pt x="263" y="273" on="0"/>
        <pt x="186" y="334" on="1"/>
        <pt x="146" y="366" on="0"/>
        <pt x="100" y="479" on="0"/>
        <pt x="100" y="555" on="1"/>
        <pt x="100" y="680" on="0"/>
        <pt x="280" y="861" on="0"/>
      </contour>
      <contour>
        <pt x="436" y="814" on="1"/>
        <pt x="309" y="814" on="0"/>
        <pt x="165" y="661" on="0"/>
        <pt x="165" y="555" on="1"/>
        <pt x="165" y="492" on="0"/>
        <pt x="200" y="397" on="0"/>
        <pt x="230" y="371" on="1"/>
        <pt x="289" y="320" on="0"/>
        <pt x="367" y="320" on="1"/>
        <pt x="494" y="320" on="0"/>
        <pt x="638" y="473" on="0"/>
        <pt x="638" y="579" on="1"/>
        <pt x="638" y="642" on="0"/>
        <pt x="603" y="737" on="0"/>
        <pt x="573" y="763" on="1"/>
        <pt x="514" y="814" on="0"/>
      </contour>
    </TTGlyph>
    <TTGlyph name="d" xMin="51" yMin="-18" xMax="573" yMax="957">
      <contour>
        <pt x="159" y="145" on="0"/>
        <pt x="203" y="73" on="0"/>
        <pt x="296" y="73" on="0"/>
        <pt x="373" y="156" on="0"/>
        <pt x="420" y="297" on="0"/>
        <pt x="455" y="456" on="0"/>
        <pt x="463" y="546" on="1"/>
        <pt x="478" y="713" on="0"/>
        <pt x="478" y="909" on="0"/>
        <pt x="470" y="957" on="1"/>
        <pt x="573" y="924" on="0"/>
        <pt x="573" y="750" on="1"/>
        <pt x="573" y="679" on="0"/>
        <pt x="506" y="249" on="0"/>
        <pt x="506" y="51" on="0"/>
        <pt x="515" y="-18" on="1"/>
        <pt x="458" y="1" on="0"/>
        <pt x="416" y="99" on="0"/>
        <pt x="416" y="175" on="1"/>
        <pt x="385" y="89" on="0"/>
        <pt x="263" y="-11" on="0"/>
        <pt x="132" y="-11" on="0"/>
        <pt x="51" y="90" on="0"/>
        <pt x="51" y="188" on="1"/>
        <pt x="51" y="351" on="0"/>
        <pt x="222" y="561" on="0"/>
        <pt x="349" y="561" on="1"/>
        <pt x="385" y="561" on="0"/>
        <pt x="426" y="550" on="1"/>
        <pt x="358" y="539" on="0"/>
        <pt x="250" y="462" on="0"/>
        <pt x="220" y="410" on="1"/>
        <pt x="159" y="304" on="0"/>
        <pt x="159" y="202" on="1"/>
      </contour>
    </TTGlyph>
    <TTGlyph name="dagger" xMin="-20" yMin="-186" xMax="476" yMax="867">
      <contour>
        <pt x="87" y="-132" on="0"/>
        <pt x="81" y="-99" on="0"/>
        <pt x="81" y="-33" on="0"/>
        <pt x="111" y="158" on="0"/>
        <pt x="156" y="437" on="0"/>
        <pt x="168" y="542" on="1"/>
        <pt x="56" y="540" on="0"/>
        <pt x="-16" y="511" on="1"/>
        <pt x="-20" y="547" on="0"/>
        <pt x="-20" y="555" on="1"/>
        <pt x="-20" y="602" on="0"/>
        <pt x="46" y="635" on="0"/>
        <pt x="107" y="635" on="1"/>
        <pt x="177" y="635" on="1"/>
        <pt x="185" y="720" on="0"/>
        <pt x="185" y="815" on="0"/>
        <pt x="181" y="867" on="1"/>
        <pt x="261" y="863" on="0"/>
        <pt x="280" y="830" on="1"/>
        <pt x="291" y="813" on="0"/>
        <pt x="297" y="780" on="0"/>
        <pt x="297" y="719" on="0"/>
        <pt x="285" y="635" on="1"/>
        <pt x="476" y="635" on="1"/>
        <pt x="476" y="585" on="0"/>
        <pt x="419" y="541" on="0"/>
        <pt x="383" y="541" on="1"/>
        <pt x="315" y="541" on="0"/>
        <pt x="272" y="542" on="1"/>
        <pt x="272" y="522" on="0"/>
        <pt x="193" y="-49" on="0"/>
        <pt x="193" y="-160" on="0"/>
        <pt x="197" y="-186" on="1"/>
        <pt x="117" y="-182" on="0"/>
        <pt x="98" y="-150" on="1"/>
      </contour>
    </TTGlyph>
    <TTGlyph name="daggerdbl" xMin="-82" yMin="-186" xMax="476" yMax="867">
      <contour>
        <pt x="87" y="-132" on="0"/>
        <pt x="81" y="-99" on="0"/>
        <pt x="81" y="-34" on="0"/>
        <pt x="90" y="24" on="1"/>
        <pt x="-82" y="24" on="1"/>
        <pt x="-82" y="74" on="0"/>
        <pt x="-25" y="118" on="0"/>
        <pt x="67" y="118" on="0"/>
        <pt x="104" y="117" on="1"/>
        <pt x="153" y="412" on="0"/>
        <pt x="168" y="542" on="1"/>
        <pt x="56" y="540" on="0"/>
        <pt x="-16" y="511" on="1"/>
        <pt x="-20" y="547" on="0"/>
        <pt x="-20" y="555" on="1"/>
        <pt x="-20" y="602" on="0"/>
        <pt x="46" y="635" on="0"/>
        <pt x="107" y="635" on="1"/>
        <pt x="177" y="635" on="1"/>
        <pt x="185" y="720" on="0"/>
        <pt x="185" y="815" on="0"/>
        <pt x="181" y="867" on="1"/>
        <pt x="261" y="863" on="0"/>
        <pt x="280" y="830" on="1"/>
        <pt x="291" y="813" on="0"/>
        <pt x="297" y="780" on="0"/>
        <pt x="297" y="719" on="0"/>
        <pt x="285" y="635" on="1"/>
        <pt x="476" y="635" on="1"/>
        <pt x="476" y="585" on="0"/>
        <pt x="419" y="541" on="0"/>
        <pt x="383" y="541" on="1"/>
        <pt x="315" y="541" on="0"/>
        <pt x="272" y="542" on="1"/>
        <pt x="272" y="522" on="0"/>
        <pt x="224" y="188" on="0"/>
        <pt x="215" y="117" on="1"/>
        <pt x="334" y="117" on="0"/>
        <pt x="410" y="148" on="1"/>
        <pt x="414" y="112" on="0"/>
        <pt x="414" y="104" on="1"/>
        <pt x="414" y="57" on="0"/>
        <pt x="348" y="24" on="0"/>
        <pt x="287" y="24" on="1"/>
        <pt x="204" y="24" on="1"/>
        <pt x="193" y="-66" on="0"/>
        <pt x="193" y="-160" on="0"/>
        <pt x="197" y="-186" on="1"/>
        <pt x="117" y="-182" on="0"/>
        <pt x="98" y="-150" on="1"/>
      </contour>
    </TTGlyph>
    <TTGlyph name="degree" xMin="38" yMin="450" xMax="366" yMax="784">
      <contour>
        <pt x="229" y="784" on="1"/>
        <pt x="286" y="784" on="0"/>
        <pt x="366" y="713" on="0"/>
        <pt x="366" y="561" on="0"/>
        <pt x="264" y="450" on="0"/>
        <pt x="175" y="450" on="1"/>
        <pt x="118" y="450" on="0"/>
        <pt x="38" y="521" on="0"/>
        <pt x="38" y="672" on="0"/>
        <pt x="140" y="784" on="0"/>
      </contour>
      <contour>
        <pt x="212" y="729" on="1"/>
        <pt x="170" y="729" on="0"/>
        <pt x="125" y="660" on="0"/>
        <pt x="125" y="556" on="0"/>
        <pt x="164" y="505" on="0"/>
        <pt x="193" y="505" on="1"/>
        <pt x="235" y="505" on="0"/>
        <pt x="280" y="574" on="0"/>
        <pt x="280" y="676" on="0"/>
        <pt x="241" y="729" on="0"/>
      </contour>
    </TTGlyph>
    <TTGlyph name="dieresis" xMin="80" yMin="682" xMax="427" yMax="799">
      <contour>
        <pt x="164" y="682" on="1"/>
        <pt x="80" y="682" on="0"/>
        <pt x="80" y="739" on="1"/>
        <pt x="80" y="759" on="0"/>
        <pt x="95" y="795" on="1"/>
        <pt x="117" y="799" on="0"/>
        <pt x="133" y="799" on="1"/>
        <pt x="217" y="799" on="0"/>
        <pt x="217" y="742" on="1"/>
        <pt x="217" y="722" on="0"/>
        <pt x="202" y="686" on="1"/>
        <pt x="180" y="682" on="0"/>
      </contour>
      <contour>
        <pt x="374" y="682" on="1"/>
        <pt x="290" y="682" on="0"/>
        <pt x="290" y="739" on="1"/>
        <pt x="290" y="759" on="0"/>
        <pt x="305" y="795" on="1"/>
        <pt x="327" y="799" on="0"/>
        <pt x="343" y="799" on="1"/>
        <pt x="427" y="799" on="0"/>
        <pt x="427" y="742" on="1"/>
        <pt x="427" y="722" on="0"/>
        <pt x="412" y="686" on="1"/>
        <pt x="390" y="682" on="0"/>
      </contour>
    </TTGlyph>
    <TTGlyph name="divide" xMin="60" yMin="106" xMax="560" yMax="606">
      <contour>
        <pt x="352" y="504" on="1"/>
        <pt x="331" y="495" on="0"/>
        <pt x="283" y="495" on="0"/>
        <pt x="251" y="517" on="0"/>
        <pt x="251" y="551" on="0"/>
        <pt x="267" y="597" on="1"/>
        <pt x="288" y="606" on="0"/>
        <pt x="336" y="606" on="0"/>
        <pt x="368" y="584" on="0"/>
        <pt x="368" y="550" on="0"/>
      </contour>
      <contour>
        <pt x="352" y="115" on="1"/>
        <pt x="331" y="106" on="0"/>
        <pt x="283" y="106" on="0"/>
        <pt x="251" y="128" on="0"/>
        <pt x="251" y="162" on="0"/>
        <pt x="267" y="208" on="1"/>
        <pt x="288" y="217" on="0"/>
        <pt x="336" y="217" on="0"/>
        <pt x="368" y="195" on="0"/>
        <pt x="368" y="161" on="0"/>
      </contour>
      <contour>
        <pt x="254" y="398" on="0"/>
        <pt x="408" y="409" on="0"/>
        <pt x="519" y="409" on="0"/>
        <pt x="560" y="367" on="0"/>
        <pt x="560" y="325" on="1"/>
        <pt x="560" y="322" on="0"/>
        <pt x="559" y="310" on="0"/>
        <pt x="559" y="307" on="1"/>
        <pt x="498" y="315" on="0"/>
        <pt x="366" y="315" on="0"/>
        <pt x="212" y="304" on="0"/>
        <pt x="101" y="304" on="0"/>
        <pt x="60" y="346" on="0"/>
        <pt x="60" y="388" on="1"/>
        <pt x="60" y="391" on="0"/>
        <pt x="61" y="403" on="0"/>
        <pt x="61" y="406" on="1"/>
        <pt x="122" y="398" on="0"/>
      </contour>
    </TTGlyph>
    <TTGlyph name="dollar" xMin="76" yMin="-190" xMax="530" yMax="875">
      <contour>
        <pt x="440" y="583" on="1"/>
        <pt x="440" y="618" on="0"/>
        <pt x="384" y="658" on="0"/>
        <pt x="300" y="658" on="0"/>
        <pt x="236" y="604" on="0"/>
        <pt x="236" y="509" on="0"/>
        <pt x="296" y="432" on="0"/>
        <pt x="381" y="371" on="0"/>
        <pt x="467" y="308" on="0"/>
        <pt x="527" y="222" on="0"/>
        <pt x="527" y="172" on="1"/>
        <pt x="527" y="95" on="0"/>
        <pt x="409" y="-17" on="0"/>
        <pt x="313" y="-24" on="1"/>
        <pt x="295" y="-122" on="0"/>
        <pt x="295" y="-190" on="1"/>
        <pt x="279" y="-190" on="0"/>
        <pt x="257" y="-182" on="1"/>
        <pt x="214" y="-167" on="0"/>
        <pt x="214" y="-113" on="1"/>
        <pt x="214" y="-83" on="0"/>
        <pt x="227" y="-20" on="1"/>
        <pt x="154" y="-6" on="0"/>
        <pt x="76" y="79" on="0"/>
        <pt x="76" y="181" on="0"/>
        <pt x="132" y="245" on="0"/>
        <pt x="172" y="245" on="1"/>
        <pt x="188" y="245" on="0"/>
        <pt x="201" y="241" on="1"/>
        <pt x="182" y="212" on="0"/>
        <pt x="182" y="110" on="0"/>
        <pt x="242" y="38" on="0"/>
        <pt x="355" y="38" on="0"/>
        <pt x="417" y="95" on="0"/>
        <pt x="417" y="146" on="1"/>
        <pt x="417" y="203" on="0"/>
        <pt x="344" y="257" on="1"/>
        <pt x="263" y="317" on="0"/>
        <pt x="209" y="368" on="1"/>
        <pt x="178" y="398" on="0"/>
        <pt x="136" y="485" on="0"/>
        <pt x="136" y="534" on="1"/>
        <pt x="136" y="614" on="0"/>
        <pt x="234" y="713" on="0"/>
        <pt x="330" y="718" on="1"/>
        <pt x="353" y="825" on="0"/>
        <pt x="358" y="875" on="1"/>
        <pt x="377" y="875" on="0"/>
        <pt x="412" y="831" on="0"/>
        <pt x="412" y="768" on="0"/>
        <pt x="402" y="715" on="1"/>
        <pt x="465" y="703" on="0"/>
        <pt x="530" y="626" on="0"/>
        <pt x="530" y="544" on="0"/>
        <pt x="483" y="482" on="0"/>
        <pt x="440" y="482" on="1"/>
        <pt x="419" y="482" on="0"/>
        <pt x="399" y="489" on="1"/>
        <pt x="440" y="517" on="0"/>
      </contour>
    </TTGlyph>
    <TTGlyph name="dotaccent" xMin="65" yMin="656" xMax="198" yMax="783">
      <contour>
        <pt x="180" y="666" on="1"/>
        <pt x="153" y="656" on="0"/>
        <pt x="101" y="656" on="0"/>
        <pt x="65" y="680" on="0"/>
        <pt x="65" y="721" on="0"/>
        <pt x="83" y="773" on="1"/>
        <pt x="110" y="783" on="0"/>
        <pt x="162" y="783" on="0"/>
        <pt x="198" y="759" on="0"/>
        <pt x="198" y="718" on="0"/>
      </contour>
    </TTGlyph>
    <TTGlyph name="dotlessi" xMin="102" yMin="-15" xMax="242" yMax="583">
      <contour>
        <pt x="147" y="5" on="0"/>
        <pt x="102" y="88" on="0"/>
        <pt x="102" y="206" on="0"/>
        <pt x="134" y="426" on="0"/>
        <pt x="134" y="548" on="0"/>
        <pt x="128" y="581" on="1"/>
        <pt x="146" y="583" on="0"/>
        <pt x="157" y="583" on="1"/>
        <pt x="202" y="583" on="0"/>
        <pt x="242" y="543" on="0"/>
        <pt x="242" y="497" on="1"/>
        <pt x="242" y="482" on="0"/>
        <pt x="193" y="197" on="0"/>
        <pt x="192" y="12" on="0"/>
        <pt x="204" y="-15" on="1"/>
      </contour>
    </TTGlyph>
    <TTGlyph name="e" xMin="65" yMin="-15" xMax="502" yMax="577">
      <contour>
        <pt x="333" y="525" on="1"/>
        <pt x="273" y="525" on="0"/>
        <pt x="190" y="387" on="0"/>
        <pt x="176" y="294" on="1"/>
        <pt x="204" y="294" on="1"/>
        <pt x="257" y="294" on="0"/>
        <pt x="335" y="324" on="0"/>
        <pt x="356" y="348" on="1"/>
        <pt x="396" y="394" on="0"/>
        <pt x="396" y="452" on="1"/>
        <pt x="396" y="485" on="0"/>
        <pt x="365" y="525" on="0"/>
      </contour>
      <contour>
        <pt x="428" y="45" on="0"/>
        <pt x="318" y="-15" on="0"/>
        <pt x="173" y="-15" on="0"/>
        <pt x="65" y="113" on="0"/>
        <pt x="65" y="229" on="1"/>
        <pt x="65" y="361" on="0"/>
        <pt x="136" y="465" on="1"/>
        <pt x="171" y="515" on="0"/>
        <pt x="284" y="577" on="0"/>
        <pt x="352" y="577" on="1"/>
        <pt x="502" y="577" on="0"/>
        <pt x="502" y="432" on="1"/>
        <pt x="502" y="345" on="0"/>
        <pt x="367" y="246" on="0"/>
        <pt x="278" y="246" on="1"/>
        <pt x="219" y="246" on="0"/>
        <pt x="172" y="257" on="1"/>
        <pt x="171" y="247" on="0"/>
        <pt x="171" y="226" on="1"/>
        <pt x="171" y="49" on="0"/>
        <pt x="276" y="49" on="1"/>
        <pt x="375" y="49" on="0"/>
        <pt x="437" y="147" on="1"/>
        <pt x="474" y="142" on="0"/>
        <pt x="474" y="120" on="1"/>
      </contour>
    </TTGlyph>
    <TTGlyph name="eacute" xMin="65" yMin="-15" xMax="502" yMax="852">
      <contour>
        <pt x="333" y="525" on="1"/>
        <pt x="273" y="525" on="0"/>
        <pt x="190" y="387" on="0"/>
        <pt x="176" y="294" on="1"/>
        <pt x="204" y="294" on="1"/>
        <pt x="257" y="294" on="0"/>
        <pt x="335" y="324" on="0"/>
        <pt x="356" y="348" on="1"/>
        <pt x="396" y="394" on="0"/>
        <pt x="396" y="452" on="1"/>
        <pt x="396" y="485" on="0"/>
        <pt x="365" y="525" on="0"/>
      </contour>
      <contour>
        <pt x="428" y="45" on="0"/>
        <pt x="318" y="-15" on="0"/>
        <pt x="173" y="-15" on="0"/>
        <pt x="65" y="113" on="0"/>
        <pt x="65" y="229" on="1"/>
        <pt x="65" y="361" on="0"/>
        <pt x="136" y="465" on="1"/>
        <pt x="171" y="515" on="0"/>
        <pt x="284" y="577" on="0"/>
        <pt x="352" y="577" on="1"/>
        <pt x="502" y="577" on="0"/>
        <pt x="502" y="432" on="1"/>
        <pt x="502" y="345" on="0"/>
        <pt x="367" y="246" on="0"/>
        <pt x="278" y="246" on="1"/>
        <pt x="219" y="246" on="0"/>
        <pt x="172" y="257" on="1"/>
        <pt x="171" y="247" on="0"/>
        <pt x="171" y="226" on="1"/>
        <pt x="171" y="49" on="0"/>
        <pt x="276" y="49" on="1"/>
        <pt x="375" y="49" on="0"/>
        <pt x="437" y="147" on="1"/>
        <pt x="474" y="142" on="0"/>
        <pt x="474" y="120" on="1"/>
      </contour>
      <contour>
        <pt x="249" y="652" on="1"/>
        <pt x="274" y="708" on="0"/>
        <pt x="387" y="831" on="0"/>
        <pt x="440" y="852" on="1"/>
        <pt x="486" y="822" on="0"/>
        <pt x="488" y="770" on="1"/>
        <pt x="430" y="752" on="0"/>
        <pt x="317" y="664" on="0"/>
        <pt x="281" y="619" on="1"/>
        <pt x="269" y="622" on="0"/>
        <pt x="250" y="641" on="0"/>
      </contour>
    </TTGlyph>
    <TTGlyph name="ecircumflex" xMin="65" yMin="-15" xMax="507" yMax="853">
      <contour>
        <pt x="333" y="525" on="1"/>
        <pt x="273" y="525" on="0"/>
        <pt x="190" y="387" on="0"/>
        <pt x="176" y="294" on="1"/>
        <pt x="204" y="294" on="1"/>
        <pt x="257" y="294" on="0"/>
        <pt x="335" y="324" on="0"/>
        <pt x="356" y="348" on="1"/>
        <pt x="396" y="394" on="0"/>
        <pt x="396" y="452" on="1"/>
        <pt x="396" y="485" on="0"/>
        <pt x="365" y="525" on="0"/>
      </contour>
      <contour>
        <pt x="428" y="45" on="0"/>
        <pt x="318" y="-15" on="0"/>
        <pt x="173" y="-15" on="0"/>
        <pt x="65" y="113" on="0"/>
        <pt x="65" y="229" on="1"/>
        <pt x="65" y="361" on="0"/>
        <pt x="136" y="465" on="1"/>
        <pt x="171" y="515" on="0"/>
        <pt x="284" y="577" on="0"/>
        <pt x="352" y="577" on="1"/>
        <pt x="502" y="577" on="0"/>
        <pt x="502" y="432" on="1"/>
        <pt x="502" y="345" on="0"/>
        <pt x="367" y="246" on="0"/>
        <pt x="278" y="246" on="1"/>
        <pt x="219" y="246" on="0"/>
        <pt x="172" y="257" on="1"/>
        <pt x="171" y="247" on="0"/>
        <pt x="171" y="226" on="1"/>
        <pt x="171" y="49" on="0"/>
        <pt x="276" y="49" on="1"/>
        <pt x="375" y="49" on="0"/>
        <pt x="437" y="147" on="1"/>
        <pt x="474" y="142" on="0"/>
        <pt x="474" y="120" on="1"/>
      </contour>
      <contour>
        <pt x="507" y="652" on="1"/>
        <pt x="483" y="641" on="0"/>
        <pt x="415" y="641" on="0"/>
        <pt x="376" y="695" on="0"/>
        <pt x="361" y="772" on="1"/>
        <pt x="310" y="679" on="0"/>
        <pt x="228" y="625" on="1"/>
        <pt x="190" y="655" on="0"/>
        <pt x="189" y="701" on="1"/>
        <pt x="258" y="746" on="0"/>
        <pt x="305" y="790" on="0"/>
        <pt x="321" y="806" on="0"/>
        <pt x="356" y="849" on="0"/>
        <pt x="360" y="853" on="1"/>
        <pt x="420" y="853" on="0"/>
        <pt x="429" y="792" on="1"/>
        <pt x="433" y="766" on="0"/>
        <pt x="471" y="686" on="0"/>
      </contour>
    </TTGlyph>
    <TTGlyph name="edieresis" xMin="65" yMin="-15" xMax="505" yMax="799">
      <contour>
        <pt x="333" y="525" on="1"/>
        <pt x="273" y="525" on="0"/>
        <pt x="190" y="387" on="0"/>
        <pt x="176" y="294" on="1"/>
        <pt x="204" y="294" on="1"/>
        <pt x="257" y="294" on="0"/>
        <pt x="335" y="324" on="0"/>
        <pt x="356" y="348" on="1"/>
        <pt x="396" y="394" on="0"/>
        <pt x="396" y="452" on="1"/>
        <pt x="396" y="485" on="0"/>
        <pt x="365" y="525" on="0"/>
      </contour>
      <contour>
        <pt x="428" y="45" on="0"/>
        <pt x="318" y="-15" on="0"/>
        <pt x="173" y="-15" on="0"/>
        <pt x="65" y="113" on="0"/>
        <pt x="65" y="229" on="1"/>
        <pt x="65" y="361" on="0"/>
        <pt x="136" y="465" on="1"/>
        <pt x="171" y="515" on="0"/>
        <pt x="284" y="577" on="0"/>
        <pt x="352" y="577" on="1"/>
        <pt x="502" y="577" on="0"/>
        <pt x="502" y="432" on="1"/>
        <pt x="502" y="345" on="0"/>
        <pt x="367" y="246" on="0"/>
        <pt x="278" y="246" on="1"/>
        <pt x="219" y="246" on="0"/>
        <pt x="172" y="257" on="1"/>
        <pt x="171" y="247" on="0"/>
        <pt x="171" y="226" on="1"/>
        <pt x="171" y="49" on="0"/>
        <pt x="276" y="49" on="1"/>
        <pt x="375" y="49" on="0"/>
        <pt x="437" y="147" on="1"/>
        <pt x="474" y="142" on="0"/>
        <pt x="474" y="120" on="1"/>
      </contour>
      <contour>
        <pt x="242" y="682" on="1"/>
        <pt x="158" y="682" on="0"/>
        <pt x="158" y="739" on="1"/>
        <pt x="158" y="759" on="0"/>
        <pt x="173" y="795" on="1"/>
        <pt x="195" y="799" on="0"/>
        <pt x="211" y="799" on="1"/>
        <pt x="295" y="799" on="0"/>
        <pt x="295" y="742" on="1"/>
        <pt x="295" y="722" on="0"/>
        <pt x="280" y="686" on="1"/>
        <pt x="258" y="682" on="0"/>
      </contour>
      <contour>
        <pt x="452" y="682" on="1"/>
        <pt x="368" y="682" on="0"/>
        <pt x="368" y="739" on="1"/>
        <pt x="368" y="759" on="0"/>
        <pt x="383" y="795" on="1"/>
        <pt x="405" y="799" on="0"/>
        <pt x="421" y="799" on="1"/>
        <pt x="505" y="799" on="0"/>
        <pt x="505" y="742" on="1"/>
        <pt x="505" y="722" on="0"/>
        <pt x="490" y="686" on="1"/>
        <pt x="468" y="682" on="0"/>
      </contour>
    </TTGlyph>
    <TTGlyph name="egrave" xMin="65" yMin="-15" xMax="502" yMax="852">
      <contour>
        <pt x="333" y="525" on="1"/>
        <pt x="273" y="525" on="0"/>
        <pt x="190" y="387" on="0"/>
        <pt x="176" y="294" on="1"/>
        <pt x="204" y="294" on="1"/>
        <pt x="257" y="294" on="0"/>
        <pt x="335" y="324" on="0"/>
        <pt x="356" y="348" on="1"/>
        <pt x="396" y="394" on="0"/>
        <pt x="396" y="452" on="1"/>
        <pt x="396" y="485" on="0"/>
        <pt x="365" y="525" on="0"/>
      </contour>
      <contour>
        <pt x="428" y="45" on="0"/>
        <pt x="318" y="-15" on="0"/>
        <pt x="173" y="-15" on="0"/>
        <pt x="65" y="113" on="0"/>
        <pt x="65" y="229" on="1"/>
        <pt x="65" y="361" on="0"/>
        <pt x="136" y="465" on="1"/>
        <pt x="171" y="515" on="0"/>
        <pt x="284" y="577" on="0"/>
        <pt x="352" y="577" on="1"/>
        <pt x="502" y="577" on="0"/>
        <pt x="502" y="432" on="1"/>
        <pt x="502" y="345" on="0"/>
        <pt x="367" y="246" on="0"/>
        <pt x="278" y="246" on="1"/>
        <pt x="219" y="246" on="0"/>
        <pt x="172" y="257" on="1"/>
        <pt x="171" y="247" on="0"/>
        <pt x="171" y="226" on="1"/>
        <pt x="171" y="49" on="0"/>
        <pt x="276" y="49" on="1"/>
        <pt x="375" y="49" on="0"/>
        <pt x="437" y="147" on="1"/>
        <pt x="474" y="142" on="0"/>
        <pt x="474" y="120" on="1"/>
      </contour>
      <contour>
        <pt x="454" y="652" on="1"/>
        <pt x="453" y="641" on="0"/>
        <pt x="434" y="622" on="0"/>
        <pt x="422" y="619" on="1"/>
        <pt x="386" y="664" on="0"/>
        <pt x="273" y="752" on="0"/>
        <pt x="215" y="770" on="1"/>
        <pt x="217" y="822" on="0"/>
        <pt x="263" y="852" on="1"/>
        <pt x="316" y="831" on="0"/>
        <pt x="429" y="708" on="0"/>
      </contour>
    </TTGlyph>
</ttFont>
